# Blender 4.4.3
# www.blender.org
mtllib garage.mtl
o garage
v 80.000000 0.000000 -20.000000
v 80.000000 0.000000 20.000000
v 80.000000 20.000000 -20.000000
v 80.000000 20.000000 20.000000
v -80.000000 0.000001 19.999996
v 80.000000 0.000001 19.999998
v -80.000000 0.000001 -20.000000
v 80.000000 0.000001 -19.999998
v -80.000000 0.000001 -20.000000
v 80.000000 0.000001 -19.999998
v -80.000000 20.000000 -20.000000
v 80.000000 20.000000 -19.999998
v -80.000000 0.000001 19.999996
v -80.000000 0.000001 -20.000000
v -80.000000 20.000000 19.999996
v -80.000000 20.000000 -20.000000
v -10.000000 0.000001 20.199999
v -10.000000 20.000000 20.199999
v -10.000000 0.000001 19.799999
v -10.000000 20.000000 19.799999
v 10.000000 0.000001 20.199999
v 10.000000 20.000000 20.199999
v 10.000000 0.000001 19.799997
v 10.000000 20.000000 19.799997
v 10.000000 0.000001 20.999996
v 10.000000 20.000000 20.999996
v 10.000000 0.000001 18.999996
v 10.000000 20.000000 18.999996
v 20.000000 0.000001 20.999998
v 20.000000 20.000000 20.999998
v 20.000000 0.000001 18.999998
v 20.000000 20.000000 18.999998
v -50.000000 0.000000 20.999996
v -50.000000 20.000000 20.999996
v -50.000000 0.000000 18.999996
v -50.000000 20.000000 18.999996
v -40.000000 0.000000 20.999996
v -40.000000 20.000000 20.999996
v -40.000000 0.000000 18.999996
v -40.000000 20.000000 18.999996
v -80.000000 0.000001 20.999996
v -80.000000 20.000000 20.999996
v -80.000000 0.000001 18.999996
v -80.000000 20.000000 18.999996
v -70.000000 0.000001 20.999998
v -70.000000 20.000000 20.999998
v -70.000000 0.000001 18.999998
v -70.000000 20.000000 18.999998
v 40.000000 0.000000 20.999998
v 40.000000 20.000000 20.999998
v 40.000000 0.000000 18.999998
v 40.000000 20.000000 18.999998
v 50.000000 0.000001 20.999998
v 50.000000 20.000000 20.999998
v 50.000000 0.000001 18.999998
v 50.000000 20.000000 18.999998
v 70.000000 0.000001 21.000000
v 70.000000 20.000000 21.000000
v 70.000000 0.000001 18.999998
v 70.000000 20.000000 18.999998
v 80.000000 0.000001 21.000000
v 80.000000 20.000000 21.000000
v 80.000000 0.000001 18.999998
v 80.000000 20.000000 18.999998
v -20.000473 0.000000 20.999998
v -20.000473 20.000000 20.999998
v -20.000473 0.000000 18.999998
v -20.000473 20.000000 18.999998
v -10.000473 0.000001 20.999998
v -10.000473 20.000000 20.999998
v -10.000473 0.000001 18.999998
v -10.000473 20.000000 18.999998
v -40.000000 0.000000 20.199997
v -40.000000 20.000000 20.199997
v -40.000000 0.000000 19.799997
v -40.000000 20.000000 19.799997
v -20.000000 0.000000 20.199999
v -20.000000 20.000000 20.199999
v -20.000000 0.000000 19.799997
v -20.000000 20.000000 19.799997
v -70.000000 0.000001 20.199999
v -70.000000 20.000000 20.199999
v -70.000000 0.000001 19.799999
v -70.000000 20.000000 19.799999
v -50.000000 0.000000 20.199999
v -50.000000 20.000000 20.199999
v -50.000000 0.000000 19.799997
v -50.000000 20.000000 19.799997
v 20.000000 0.000001 20.199999
v 20.000000 20.000000 20.199999
v 20.000000 0.000001 19.799997
v 20.000000 20.000000 19.799997
v 40.000000 0.000000 20.199999
v 40.000000 20.000000 20.199999
v 40.000000 0.000000 19.799997
v 40.000000 20.000000 19.799997
v 50.000000 0.000001 20.199999
v 50.000000 20.000000 20.199999
v 50.000000 0.000001 19.799997
v 50.000000 20.000000 19.799997
v 70.000000 0.000001 20.200001
v 70.000000 20.000000 20.200001
v 70.000000 0.000001 19.799999
v 70.000000 20.000000 19.799999
v -17.222435 0.000001 2.620006
v -16.500473 20.000000 1.500000
v -17.222435 0.000001 -2.620007
v -16.500473 20.000000 -1.500000
v -12.778511 0.000001 2.620007
v -13.500473 20.000000 1.500000
v -12.778511 0.000001 -2.620006
v -13.500473 20.000000 -1.500000
v -16.500473 10.000000 1.500000
v -16.500473 10.000000 -1.500000
v -13.500473 10.000000 -1.500000
v -13.500473 10.000000 1.500000
v -16.500473 5.000000 -1.500000
v -13.500473 5.000000 -1.500000
v -13.500473 5.000000 1.500000
v -16.500473 5.000000 1.500000
v -16.500473 2.500000 -1.500000
v -13.500473 2.500000 -1.500000
v -13.500473 2.500000 1.500000
v -16.500473 2.500000 1.500000
v -47.221962 0.000000 2.620006
v -46.500000 20.000000 1.500000
v -47.221962 0.000000 -2.620007
v -46.500000 20.000000 -1.500000
v -42.778038 0.000000 2.620006
v -43.500000 20.000000 1.500000
v -42.778038 0.000000 -2.620007
v -43.500000 20.000000 -1.500000
v -46.500000 10.000000 1.500000
v -46.500000 10.000000 -1.500000
v -43.500000 10.000000 -1.500000
v -43.500000 10.000000 1.500000
v -46.500000 5.000000 -1.500000
v -43.500000 5.000000 -1.500000
v -43.500000 5.000000 1.500000
v -46.500000 5.000000 1.500000
v -46.500000 2.500000 -1.500000
v -43.500000 2.500000 -1.500000
v -43.500000 2.500000 1.500000
v -46.500000 2.500000 1.500000
v 12.778038 0.000001 2.620007
v 13.500000 20.000000 1.500000
v 12.778038 0.000001 -2.620006
v 13.500000 20.000000 -1.500000
v 17.221958 0.000001 2.620007
v 16.500000 20.000000 1.500000
v 17.221958 0.000001 -2.620006
v 16.500000 20.000000 -1.500000
v 13.500000 10.000000 1.500000
v 13.500000 10.000000 -1.500000
v 16.500000 10.000000 -1.500000
v 16.500000 10.000000 1.500000
v 13.500000 5.000000 -1.500000
v 16.500000 5.000000 -1.500000
v 16.500000 5.000000 1.500000
v 13.500000 5.000000 1.500000
v 13.500000 2.500001 -1.500000
v 16.500000 2.500001 -1.500000
v 16.500000 2.500001 1.500000
v 13.500000 2.500001 1.500000
v 42.778038 0.000000 2.620006
v 43.500000 20.000000 1.500000
v 42.778038 0.000000 -2.620007
v 43.500000 20.000000 -1.500000
v 47.221958 0.000000 2.620007
v 46.500000 20.000000 1.500000
v 47.221958 0.000000 -2.620007
v 46.500000 20.000000 -1.500000
v 43.500000 10.000000 1.500000
v 43.500000 10.000000 -1.500000
v 46.500000 10.000000 -1.500000
v 46.500000 10.000000 1.500000
v 43.500000 5.000000 -1.500000
v 46.500000 5.000000 -1.500000
v 46.500000 5.000000 1.500000
v 43.500000 5.000000 1.500000
v 43.500000 2.500001 -1.500000
v 46.500000 2.500001 -1.500000
v 46.500000 2.500001 1.500000
v 43.500000 2.500001 1.500000
vn -1.0000 -0.0000 -0.0000
vn -0.0000 1.0000 -0.0000
vn -0.0000 -0.0000 1.0000
vn 1.0000 -0.0000 -0.0000
vn -0.0000 -0.0000 -1.0000
vn -0.0000 -1.0000 -0.0000
vn -0.0000 0.4088 0.9126
vn 0.9607 0.2774 -0.0000
vn -0.0000 0.4088 -0.9126
vn -0.9607 0.2774 -0.0000
vt 0.012312 0.183679
vt 0.027319 0.198686
vt 0.012312 0.198686
vt 0.988031 0.756121
vt 0.036599 0.023745
vt 0.045901 0.011969
vt 0.963401 0.787304
vt 0.011969 0.054928
vt 0.021270 0.043152
vt 0.193614 0.027319
vt 0.208621 0.012312
vt 0.208621 0.027319
vt 0.414758 0.405966
vt 0.404040 0.395460
vt 0.404146 0.395354
vt 0.414652 0.406072
vt 0.297924 0.501577
vt 0.308535 0.512189
vt 0.297817 0.501683
vt 0.308429 0.512295
vt 0.191701 0.607800
vt 0.191701 0.395567
vt 0.191807 0.395460
vt 0.414652 0.618305
vt 0.370053 0.613060
vt 0.358911 0.602979
vt 0.359442 0.602449
vt 0.369523 0.613591
vt 0.305853 0.656038
vt 0.316464 0.666649
vt 0.305322 0.656568
vt 0.315934 0.667180
vt 0.252264 0.709626
vt 0.252264 0.603510
vt 0.252794 0.602979
vt 0.369523 0.719707
vt 0.575807 0.063512
vt 0.565726 0.074654
vt 0.565195 0.074124
vt 0.576337 0.064042
vt 0.618784 0.127712
vt 0.629395 0.117101
vt 0.619314 0.128243
vt 0.629926 0.117631
vt 0.672373 0.181301
vt 0.566256 0.181301
vt 0.565726 0.180771
vt 0.682454 0.064042
vt 0.443499 0.620218
vt 0.454642 0.630299
vt 0.454111 0.630829
vt 0.444030 0.619687
vt 0.507700 0.577240
vt 0.497088 0.566629
vt 0.508231 0.576710
vt 0.497619 0.566098
vt 0.561289 0.523651
vt 0.561289 0.629768
vt 0.560758 0.630299
vt 0.444030 0.513570
vt 0.707820 0.637896
vt 0.696678 0.627815
vt 0.697208 0.627284
vt 0.707289 0.638427
vt 0.643620 0.680873
vt 0.654231 0.691485
vt 0.643089 0.681404
vt 0.653701 0.692016
vt 0.590031 0.734462
vt 0.590031 0.628346
vt 0.590561 0.627815
vt 0.707290 0.744543
vt 0.521552 0.667699
vt 0.510409 0.657618
vt 0.510940 0.657087
vt 0.521021 0.668230
vt 0.457351 0.710676
vt 0.467963 0.721288
vt 0.456821 0.711207
vt 0.414374 0.774877
vt 0.403762 0.764265
vt 0.403762 0.658149
vt 0.404293 0.657618
vt 0.521021 0.774346
vt 0.467432 0.721819
vt 0.642570 0.367570
vt 0.652651 0.356428
vt 0.653181 0.356958
vt 0.642039 0.367039
vt 0.599593 0.303369
vt 0.588981 0.313981
vt 0.599062 0.302839
vt 0.588450 0.313450
vt 0.546004 0.249780
vt 0.652120 0.249780
vt 0.652651 0.250311
vt 0.535923 0.367039
vt 0.358101 0.225328
vt 0.368818 0.235834
vt 0.368712 0.235940
vt 0.358207 0.225222
vt 0.474935 0.129717
vt 0.464323 0.119106
vt 0.475041 0.129611
vt 0.464429 0.119000
vt 0.581158 0.023495
vt 0.581158 0.235728
vt 0.581052 0.235834
vt 0.358207 0.012989
vt 0.012883 0.722044
vt 0.023601 0.732550
vt 0.023495 0.732656
vt 0.012989 0.721938
vt 0.129717 0.626433
vt 0.119106 0.615822
vt 0.129824 0.626327
vt 0.119212 0.615716
vt 0.235940 0.520211
vt 0.235940 0.732444
vt 0.235834 0.732550
vt 0.012989 0.509705
vt 0.012883 0.468719
vt 0.023601 0.479225
vt 0.023495 0.479331
vt 0.012989 0.468613
vt 0.129717 0.373108
vt 0.119106 0.362496
vt 0.129823 0.373002
vt 0.119212 0.362390
vt 0.235940 0.266885
vt 0.235940 0.479119
vt 0.235834 0.479225
vt 0.012989 0.256380
vt 0.772500 0.687885
vt 0.757613 0.689783
vt 0.757595 0.689634
vt 0.772518 0.688034
vt 0.775112 0.838831
vt 0.790017 0.837081
vt 0.775129 0.838980
vt 0.790034 0.837230
vt 0.792628 0.988028
vt 0.626082 0.856479
vt 0.626064 0.856330
vt 0.939065 0.819582
vt 0.110271 0.184086
vt 0.110672 0.178642
vt 0.111461 0.178887
vt 0.109489 0.183908
vt 0.089856 0.174684
vt 0.095191 0.182489
vt 0.088604 0.175572
vt 0.094169 0.183214
vt 0.085054 0.198946
vt 0.079655 0.161769
vt 0.076857 0.158896
vt 0.077035 0.158742
vt 0.109702 0.202928
vt 0.081660 0.198462
vt 0.084818 0.170334
vt 0.086317 0.169329
vt 0.111755 0.175874
vt 0.112492 0.176339
vt 0.112855 0.174269
vt 0.113418 0.175373
vt 0.084394 0.166178
vt 0.082537 0.167184
vt 0.079629 0.198263
vt 0.077314 0.203654
vt 0.079477 0.161923
vt 0.119147 0.173627
vt 0.119212 0.175609
vt 0.199516 0.079154
vt 0.199174 0.084628
vt 0.198378 0.084390
vt 0.200303 0.079325
vt 0.220050 0.088322
vt 0.214757 0.080613
vt 0.221285 0.087409
vt 0.215769 0.079894
vt 0.224821 0.064518
vt 0.230607 0.101286
vt 0.233456 0.104153
vt 0.233278 0.104310
vt 0.200380 0.060384
vt 0.228195 0.064892
vt 0.225365 0.092720
vt 0.223850 0.093764
vt 0.198115 0.087429
vt 0.197367 0.086968
vt 0.197024 0.089059
vt 0.196445 0.087953
vt 0.225818 0.096916
vt 0.227672 0.095893
vt 0.230205 0.065064
vt 0.232447 0.059665
vt 0.230785 0.101128
vt 0.190691 0.089775
vt 0.190605 0.087779
vt 0.136713 0.033144
vt 0.136045 0.038516
vt 0.135274 0.038233
vt 0.137478 0.033359
vt 0.156719 0.043458
vt 0.151559 0.035439
vt 0.158010 0.042585
vt 0.152604 0.034743
vt 0.160819 0.019898
vt 0.167014 0.057363
vt 0.168883 0.059503
vt 0.168751 0.059606
vt 0.137636 0.014538
vt 0.164085 0.020283
vt 0.161854 0.048059
vt 0.160273 0.049083
vt 0.134827 0.041222
vt 0.134112 0.040716
vt 0.133635 0.042784
vt 0.133127 0.041638
vt 0.162220 0.052435
vt 0.164228 0.051382
vt 0.166072 0.020419
vt 0.167146 0.057260
vt 0.168883 0.013393
vt 0.127206 0.043111
vt 0.127245 0.041092
vt 0.045416 0.133140
vt 0.046009 0.127893
vt 0.046764 0.128162
vt 0.044667 0.132938
vt 0.025901 0.123220
vt 0.031263 0.131117
vt 0.024628 0.124124
vt 0.030236 0.131844
vt 0.021846 0.147365
vt 0.015385 0.109536
vt 0.013651 0.107105
vt 0.013799 0.107012
vt 0.045797 0.151656
vt 0.018493 0.146996
vt 0.020685 0.118753
vt 0.022235 0.117653
vt 0.047174 0.125238
vt 0.047877 0.125727
vt 0.048330 0.123699
vt 0.048835 0.124819
vt 0.019933 0.114287
vt 0.018206 0.115723
vt 0.016465 0.146868
vt 0.015236 0.109630
vt 0.013651 0.153982
vt 0.054639 0.123338
vt 0.054612 0.125321
vt 0.027319 0.183679
vt 0.978729 0.767898
vt 0.954099 0.799081
vt 0.193614 0.012312
vt 0.202313 0.618411
vt 0.414546 0.618411
vt 0.262876 0.720238
vt 0.368992 0.720238
vt 0.682984 0.170690
vt 0.682984 0.064573
vt 0.550677 0.513040
vt 0.444561 0.513040
vt 0.600642 0.745074
vt 0.706759 0.745074
vt 0.520491 0.774877
vt 0.535392 0.260392
vt 0.535392 0.366509
vt 0.570546 0.012883
vt 0.358313 0.012883
vt 0.225328 0.509599
vt 0.013096 0.509599
vt 0.225328 0.256274
vt 0.013095 0.256274
vt 0.807533 0.986278
vt 0.939082 0.819731
vt 0.090685 0.200107
vt 0.108680 0.203654
vt 0.219303 0.063340
vt 0.201392 0.059665
vt 0.155544 0.018918
vt 0.138681 0.013842
vt 0.027341 0.148330
vt 0.044770 0.152383
s 0
usemtl マテリアル
f 2/1/1 3/2/1 1/3/1
f 6/4/2 7/5/2 5/6/2
f 10/7/3 11/8/3 9/9/3
f 14/10/4 15/11/4 13/12/4
f 18/13/1 19/14/1 17/15/1
f 20/16/5 23/17/5 19/14/5
f 24/18/4 21/19/4 23/17/4
f 22/20/3 17/21/3 21/19/3
f 23/17/6 17/22/6 19/23/6
f 20/24/2 22/20/2 24/18/2
f 26/25/1 27/26/1 25/27/1
f 28/28/5 31/29/5 27/26/5
f 32/30/4 29/31/4 31/29/4
f 30/32/3 25/33/3 29/31/3
f 31/29/6 25/34/6 27/35/6
f 28/36/2 30/32/2 32/30/2
f 34/37/1 35/38/1 33/39/1
f 36/40/5 39/41/5 35/38/5
f 40/42/4 37/43/4 39/41/4
f 38/44/3 33/45/3 37/43/3
f 39/41/6 33/46/6 35/47/6
f 36/48/2 38/44/2 40/42/2
f 42/49/1 43/50/1 41/51/1
f 44/52/5 47/53/5 43/50/5
f 48/54/4 45/55/4 47/53/4
f 46/56/3 41/57/3 45/55/3
f 47/53/6 41/58/6 43/59/6
f 44/60/2 46/56/2 48/54/2
f 50/61/1 51/62/1 49/63/1
f 52/64/5 55/65/5 51/62/5
f 56/66/4 53/67/4 55/65/4
f 54/68/3 49/69/3 53/67/3
f 55/65/6 49/70/6 51/71/6
f 52/72/2 54/68/2 56/66/2
f 58/73/1 59/74/1 57/75/1
f 60/76/5 63/77/5 59/74/5
f 64/78/4 61/79/4 63/77/4
f 61/79/3 58/80/3 57/81/3
f 63/77/6 57/82/6 59/83/6
f 60/84/2 62/85/2 64/78/2
f 66/86/1 67/87/1 65/88/1
f 68/89/5 71/90/5 67/87/5
f 72/91/4 69/92/4 71/90/4
f 70/93/3 65/94/3 69/92/3
f 71/90/6 65/95/6 67/96/6
f 68/97/2 70/93/2 72/91/2
f 74/98/1 75/99/1 73/100/1
f 76/101/5 79/102/5 75/99/5
f 80/103/4 77/104/4 79/102/4
f 78/105/3 73/106/3 77/104/3
f 79/102/6 73/107/6 75/108/6
f 76/109/2 78/105/2 80/103/2
f 82/110/1 83/111/1 81/112/1
f 84/113/5 87/114/5 83/111/5
f 88/115/4 85/116/4 87/114/4
f 86/117/3 81/118/3 85/116/3
f 87/114/6 81/119/6 83/120/6
f 84/121/2 86/117/2 88/115/2
f 90/122/1 91/123/1 89/124/1
f 92/125/5 95/126/5 91/123/5
f 96/127/4 93/128/4 95/126/4
f 94/129/3 89/130/3 93/128/3
f 95/126/6 89/131/6 91/132/6
f 92/133/2 94/129/2 96/127/2
f 98/134/1 99/135/1 97/136/1
f 100/137/5 103/138/5 99/135/5
f 104/139/4 101/140/4 103/138/4
f 102/141/3 97/142/3 101/140/3
f 103/138/6 97/143/6 99/144/6
f 100/145/2 102/141/2 104/139/2
f 106/146/1 114/147/1 113/148/1
f 108/149/5 115/150/5 114/147/5
f 112/151/4 116/152/4 115/150/4
f 110/153/3 113/154/3 116/152/3
f 111/155/6 105/156/6 107/157/6
f 108/158/2 110/153/2 112/151/2
f 116/152/3 120/159/3 119/160/3
f 115/150/4 119/160/4 118/161/4
f 114/147/5 118/161/5 117/162/5
f 113/148/1 117/162/1 120/163/1
f 120/163/1 121/164/1 124/165/1
f 117/162/5 122/166/5 121/164/5
f 118/161/4 123/167/4 122/166/4
f 119/160/3 124/168/3 123/167/3
f 123/167/7 105/169/7 109/170/7
f 122/166/8 109/170/8 111/155/8
f 121/164/9 111/155/9 107/171/9
f 124/165/10 107/171/10 105/172/10
f 126/173/1 134/174/1 133/175/1
f 128/176/5 135/177/5 134/174/5
f 132/178/4 136/179/4 135/177/4
f 130/180/3 133/181/3 136/179/3
f 131/182/6 125/183/6 127/184/6
f 128/185/2 130/180/2 132/178/2
f 136/179/3 140/186/3 139/187/3
f 135/177/4 139/187/4 138/188/4
f 134/174/5 138/188/5 137/189/5
f 133/175/1 137/189/1 140/190/1
f 140/190/1 141/191/1 144/192/1
f 137/189/5 142/193/5 141/191/5
f 138/188/4 143/194/4 142/193/4
f 139/187/3 144/195/3 143/194/3
f 143/194/7 125/196/7 129/197/7
f 142/193/8 129/197/8 131/182/8
f 141/191/9 131/182/9 127/198/9
f 144/192/10 127/198/10 125/199/10
f 146/200/1 154/201/1 153/202/1
f 148/203/5 155/204/5 154/201/5
f 152/205/4 156/206/4 155/204/4
f 150/207/3 153/208/3 156/206/3
f 151/209/6 145/210/6 147/211/6
f 148/212/2 150/207/2 152/205/2
f 156/206/3 160/213/3 159/214/3
f 155/204/4 159/214/4 158/215/4
f 154/201/5 158/215/5 157/216/5
f 153/202/1 157/216/1 160/217/1
f 160/217/1 161/218/1 164/219/1
f 157/216/5 162/220/5 161/218/5
f 158/215/4 163/221/4 162/220/4
f 159/214/3 164/222/3 163/221/3
f 149/223/7 164/222/7 145/224/7
f 162/220/8 149/223/8 151/209/8
f 161/218/9 151/209/9 147/225/9
f 164/219/10 147/225/10 145/226/10
f 166/227/1 174/228/1 173/229/1
f 168/230/5 175/231/5 174/228/5
f 172/232/4 176/233/4 175/231/4
f 170/234/3 173/235/3 176/233/3
f 171/236/6 165/237/6 167/238/6
f 168/239/2 170/234/2 172/232/2
f 176/233/3 180/240/3 179/241/3
f 175/231/4 179/241/4 178/242/4
f 174/228/5 178/242/5 177/243/5
f 173/229/1 177/243/1 180/244/1
f 180/244/1 181/245/1 184/246/1
f 177/243/5 182/247/5 181/245/5
f 178/242/4 183/248/4 182/247/4
f 179/241/3 184/249/3 183/248/3
f 169/250/7 184/249/7 165/251/7
f 171/236/8 183/248/8 169/250/8
f 181/245/9 171/236/9 167/252/9
f 184/246/10 167/252/10 165/253/10
f 2/1/1 4/254/1 3/2/1
f 6/4/2 8/255/2 7/5/2
f 10/7/3 12/256/3 11/8/3
f 14/10/4 16/257/4 15/11/4
f 18/13/1 20/16/1 19/14/1
f 20/16/5 24/18/5 23/17/5
f 24/18/4 22/20/4 21/19/4
f 22/20/3 18/258/3 17/21/3
f 23/17/6 21/19/6 17/22/6
f 20/24/2 18/259/2 22/20/2
f 26/25/1 28/28/1 27/26/1
f 28/28/5 32/30/5 31/29/5
f 32/30/4 30/32/4 29/31/4
f 30/32/3 26/260/3 25/33/3
f 31/29/6 29/31/6 25/34/6
f 28/36/2 26/261/2 30/32/2
f 34/37/1 36/40/1 35/38/1
f 36/40/5 40/42/5 39/41/5
f 40/42/4 38/44/4 37/43/4
f 38/44/3 34/262/3 33/45/3
f 39/41/6 37/43/6 33/46/6
f 36/48/2 34/263/2 38/44/2
f 42/49/1 44/52/1 43/50/1
f 44/52/5 48/54/5 47/53/5
f 48/54/4 46/56/4 45/55/4
f 46/56/3 42/264/3 41/57/3
f 47/53/6 45/55/6 41/58/6
f 44/60/2 42/265/2 46/56/2
f 50/61/1 52/64/1 51/62/1
f 52/64/5 56/66/5 55/65/5
f 56/66/4 54/68/4 53/67/4
f 54/68/3 50/266/3 49/69/3
f 55/65/6 53/67/6 49/70/6
f 52/72/2 50/267/2 54/68/2
f 58/73/1 60/76/1 59/74/1
f 60/76/5 64/78/5 63/77/5
f 64/78/4 62/85/4 61/79/4
f 61/79/3 62/85/3 58/80/3
f 63/77/6 61/79/6 57/82/6
f 60/84/2 58/268/2 62/85/2
f 66/86/1 68/89/1 67/87/1
f 68/89/5 72/91/5 71/90/5
f 72/91/4 70/93/4 69/92/4
f 70/93/3 66/269/3 65/94/3
f 71/90/6 69/92/6 65/95/6
f 68/97/2 66/270/2 70/93/2
f 74/98/1 76/101/1 75/99/1
f 76/101/5 80/103/5 79/102/5
f 80/103/4 78/105/4 77/104/4
f 78/105/3 74/271/3 73/106/3
f 79/102/6 77/104/6 73/107/6
f 76/109/2 74/272/2 78/105/2
f 82/110/1 84/113/1 83/111/1
f 84/113/5 88/115/5 87/114/5
f 88/115/4 86/117/4 85/116/4
f 86/117/3 82/273/3 81/118/3
f 87/114/6 85/116/6 81/119/6
f 84/121/2 82/274/2 86/117/2
f 90/122/1 92/125/1 91/123/1
f 92/125/5 96/127/5 95/126/5
f 96/127/4 94/129/4 93/128/4
f 94/129/3 90/275/3 89/130/3
f 95/126/6 93/128/6 89/131/6
f 92/133/2 90/276/2 94/129/2
f 98/134/1 100/137/1 99/135/1
f 100/137/5 104/139/5 103/138/5
f 104/139/4 102/141/4 101/140/4
f 102/141/3 98/277/3 97/142/3
f 103/138/6 101/140/6 97/143/6
f 100/145/2 98/278/2 102/141/2
f 106/146/1 108/149/1 114/147/1
f 108/149/5 112/151/5 115/150/5
f 112/151/4 110/153/4 116/152/4
f 110/153/3 106/279/3 113/154/3
f 111/155/6 109/170/6 105/156/6
f 108/158/2 106/280/2 110/153/2
f 116/152/3 113/154/3 120/159/3
f 115/150/4 116/152/4 119/160/4
f 114/147/5 115/150/5 118/161/5
f 113/148/1 114/147/1 117/162/1
f 120/163/1 117/162/1 121/164/1
f 117/162/5 118/161/5 122/166/5
f 118/161/4 119/160/4 123/167/4
f 119/160/3 120/159/3 124/168/3
f 123/167/7 124/168/7 105/169/7
f 122/166/8 123/167/8 109/170/8
f 121/164/9 122/166/9 111/155/9
f 124/165/10 121/164/10 107/171/10
f 126/173/1 128/176/1 134/174/1
f 128/176/5 132/178/5 135/177/5
f 132/178/4 130/180/4 136/179/4
f 130/180/3 126/281/3 133/181/3
f 131/182/6 129/197/6 125/183/6
f 128/185/2 126/282/2 130/180/2
f 136/179/3 133/181/3 140/186/3
f 135/177/4 136/179/4 139/187/4
f 134/174/5 135/177/5 138/188/5
f 133/175/1 134/174/1 137/189/1
f 140/190/1 137/189/1 141/191/1
f 137/189/5 138/188/5 142/193/5
f 138/188/4 139/187/4 143/194/4
f 139/187/3 140/186/3 144/195/3
f 143/194/7 144/195/7 125/196/7
f 142/193/8 143/194/8 129/197/8
f 141/191/9 142/193/9 131/182/9
f 144/192/10 141/191/10 127/198/10
f 146/200/1 148/203/1 154/201/1
f 148/203/5 152/205/5 155/204/5
f 152/205/4 150/207/4 156/206/4
f 150/207/3 146/283/3 153/208/3
f 151/209/6 149/223/6 145/210/6
f 148/212/2 146/284/2 150/207/2
f 156/206/3 153/208/3 160/213/3
f 155/204/4 156/206/4 159/214/4
f 154/201/5 155/204/5 158/215/5
f 153/202/1 154/201/1 157/216/1
f 160/217/1 157/216/1 161/218/1
f 157/216/5 158/215/5 162/220/5
f 158/215/4 159/214/4 163/221/4
f 159/214/3 160/213/3 164/222/3
f 149/223/7 163/221/7 164/222/7
f 162/220/8 163/221/8 149/223/8
f 161/218/9 162/220/9 151/209/9
f 164/219/10 161/218/10 147/225/10
f 166/227/1 168/230/1 174/228/1
f 168/230/5 172/232/5 175/231/5
f 172/232/4 170/234/4 176/233/4
f 170/234/3 166/285/3 173/235/3
f 171/236/6 169/250/6 165/237/6
f 168/239/2 166/286/2 170/234/2
f 176/233/3 173/235/3 180/240/3
f 175/231/4 176/233/4 179/241/4
f 174/228/5 175/231/5 178/242/5
f 173/229/1 174/228/1 177/243/1
f 180/244/1 177/243/1 181/245/1
f 177/243/5 178/242/5 182/247/5
f 178/242/4 179/241/4 183/248/4
f 179/241/3 180/240/3 184/249/3
f 169/250/7 183/248/7 184/249/7
f 171/236/8 182/247/8 183/248/8
f 181/245/9 182/247/9 171/236/9
f 184/246/10 181/245/10 167/252/10
