# Blender 4.4.3
# www.blender.org
mtllib jet.mtl
o jet
v 0.306699 0.218782 -0.968763
v 1.006699 1.431218 -2.732117
v 0.306699 0.218782 -2.968762
v 1.006699 1.431218 -2.968762
v 0.393301 0.168782 -0.968763
v 1.093301 1.381218 -2.732117
v 0.393301 0.168782 -2.968762
v 1.093301 1.381218 -2.968762
v -0.000000 0.350000 3.712792
v 0.097545 0.343275 3.712792
v 0.191342 0.323358 3.712792
v 0.277785 0.291014 3.712792
v 0.353553 0.247487 3.712792
v 0.415735 0.194449 3.712792
v 0.461940 0.133939 3.712792
v 0.490393 0.068282 3.712792
v 0.500000 -0.000000 3.712792
v 0.490393 -0.068282 3.712792
v 0.461940 -0.133939 3.712792
v 0.415735 -0.194450 3.712792
v 0.353553 -0.247487 3.712792
v 0.277785 -0.291014 3.712792
v 0.191342 -0.323358 3.712792
v 0.097545 -0.343275 3.712792
v -0.000000 -0.350000 3.712792
v -0.097545 -0.343275 3.712792
v -0.191342 -0.323358 3.712792
v -0.277785 -0.291014 3.712792
v -0.353553 -0.247487 3.712792
v -0.415735 -0.194450 3.712792
v -0.461940 -0.133939 3.712792
v -0.490393 -0.068282 3.712792
v -0.500000 -0.000000 3.712792
v -0.490393 0.068282 3.712792
v -0.461940 0.133939 3.712792
v -0.415735 0.194449 3.712792
v -0.353553 0.247487 3.712792
v -0.277785 0.291014 3.712792
v -0.191342 0.323358 3.712792
v -0.097545 0.343275 3.712792
v 0.000000 -0.000000 5.712792
v -0.000000 0.350000 -2.983966
v 0.097545 0.343275 -2.983966
v 0.191341 0.323358 -2.983966
v 0.277785 0.291015 -2.983966
v 0.353553 0.247488 -2.983966
v 0.415734 0.194450 -2.983966
v 0.461939 0.133939 -2.983966
v 0.490392 0.068282 -2.983966
v 0.500000 0.000000 -2.983966
v 0.490392 -0.068281 -2.983966
v 0.461939 -0.133939 -2.983966
v 0.415734 -0.194449 -2.983966
v 0.353553 -0.247487 -2.983966
v 0.277785 -0.291014 -2.983966
v 0.191341 -0.323358 -2.983966
v 0.097545 -0.343275 -2.983966
v -0.000000 -0.350000 -2.983966
v -0.097545 -0.343275 -2.983966
v -0.191342 -0.323358 -2.983966
v -0.277785 -0.291014 -2.983966
v -0.353554 -0.247487 -2.983966
v -0.415735 -0.194449 -2.983966
v -0.461940 -0.133939 -2.983966
v -0.490393 -0.068281 -2.983966
v -0.500000 0.000000 -2.983966
v -0.490393 0.068282 -2.983966
v -0.461940 0.133939 -2.983966
v -0.415735 0.194450 -2.983966
v -0.353554 0.247488 -2.983966
v -0.277785 0.291015 -2.983966
v -0.191342 0.323358 -2.983966
v -0.097545 0.343275 -2.983966
v -0.359356 -0.341470 3.533999
v -0.464345 0.185738 3.533999
v -3.436676 0.249225 -1.071402
v -3.436676 0.400000 -1.071402
v 0.359356 -0.341470 3.533999
v 0.464345 0.185738 3.533999
v 3.436676 0.249225 -1.071402
v 3.436676 0.400000 -1.071402
v -3.436676 0.400000 -1.439170
v -3.436676 0.249225 -1.439170
v 3.436676 0.249225 -1.439170
v 3.436676 0.400000 -1.439170
v 1.500000 -0.079006 2.330141
v 1.539018 -0.082829 2.329751
v 1.576537 -0.094152 2.328594
v 1.611114 -0.112538 2.326715
v 1.641421 -0.137282 2.324186
v 1.666294 -0.167432 2.321105
v 1.684776 -0.201830 2.317590
v 1.696157 -0.239154 2.313775
v 1.700000 -0.277970 2.309809
v 1.696157 -0.316786 2.305842
v 1.684776 -0.354110 2.302028
v 1.666294 -0.388508 2.298512
v 1.641421 -0.418659 2.295431
v 1.611114 -0.443403 2.292903
v 1.576537 -0.461789 2.291024
v 1.539018 -0.473111 2.289867
v 1.500000 -0.476934 2.289476
v 1.460982 -0.473111 2.289867
v 1.423463 -0.461789 2.291024
v 1.388886 -0.443402 2.292903
v 1.358579 -0.418659 2.295431
v 1.333706 -0.388509 2.298512
v 1.315224 -0.354110 2.302028
v 1.303843 -0.316786 2.305842
v 1.300000 -0.277970 2.309809
v 1.303843 -0.239154 2.313775
v 1.315224 -0.201830 2.317590
v 1.333706 -0.167432 2.321105
v 1.358579 -0.137281 2.324186
v 1.388886 -0.112538 2.326715
v 1.423463 -0.094152 2.328594
v 1.460982 -0.082829 2.329751
v 1.500000 -0.423253 3.731455
v 1.500000 0.345663 -1.825423
v 1.539018 0.341840 -1.825814
v 1.576537 0.330518 -1.826971
v 1.611114 0.312132 -1.828850
v 1.641421 0.287388 -1.831379
v 1.666294 0.257238 -1.834460
v 1.684776 0.222840 -1.837975
v 1.696157 0.185515 -1.841789
v 1.700000 0.146699 -1.845756
v 1.696157 0.107884 -1.849723
v 1.684776 0.070559 -1.853537
v 1.666294 0.036161 -1.857053
v 1.641421 0.006011 -1.860134
v 1.611114 -0.018733 -1.862663
v 1.576536 -0.037119 -1.864541
v 1.539018 -0.048441 -1.865698
v 1.500000 -0.052264 -1.866089
v 1.460982 -0.048441 -1.865698
v 1.423463 -0.037119 -1.864541
v 1.388886 -0.018733 -1.862663
v 1.358578 0.006011 -1.860134
v 1.333706 0.036161 -1.857053
v 1.315224 0.070559 -1.853537
v 1.303843 0.107884 -1.849723
v 1.300000 0.146699 -1.845756
v 1.303843 0.185515 -1.841789
v 1.315224 0.222840 -1.837975
v 1.333706 0.257238 -1.834460
v 1.358578 0.287388 -1.831379
v 1.388886 0.312132 -1.828850
v 1.423463 0.330518 -1.826971
v 1.460982 0.341840 -1.825814
v -1.500000 -0.079007 2.330141
v -1.460982 -0.082829 2.329751
v -1.423463 -0.094152 2.328594
v -1.388886 -0.112538 2.326715
v -1.358579 -0.137282 2.324186
v -1.333706 -0.167432 2.321105
v -1.315224 -0.201830 2.317590
v -1.303843 -0.239154 2.313775
v -1.300000 -0.277970 2.309809
v -1.303843 -0.316786 2.305842
v -1.315224 -0.354110 2.302028
v -1.333706 -0.388509 2.298512
v -1.358579 -0.418659 2.295431
v -1.388886 -0.443402 2.292903
v -1.423463 -0.461789 2.291024
v -1.460982 -0.473111 2.289867
v -1.500000 -0.476934 2.289476
v -1.539018 -0.473111 2.289867
v -1.576537 -0.461789 2.291024
v -1.611114 -0.443403 2.292903
v -1.641422 -0.418659 2.295431
v -1.666294 -0.388509 2.298512
v -1.684776 -0.354110 2.302028
v -1.696157 -0.316786 2.305842
v -1.700000 -0.277970 2.309809
v -1.696157 -0.239155 2.313775
v -1.684776 -0.201830 2.317590
v -1.666294 -0.167432 2.321105
v -1.641422 -0.137282 2.324186
v -1.611114 -0.112538 2.326715
v -1.576537 -0.094152 2.328594
v -1.539018 -0.082829 2.329751
v -1.500000 -0.423252 3.731455
v -1.500000 0.345663 -1.825423
v -1.460982 0.341840 -1.825814
v -1.423464 0.330518 -1.826971
v -1.388886 0.312132 -1.828850
v -1.358579 0.287388 -1.831379
v -1.333706 0.257238 -1.834460
v -1.315224 0.222840 -1.837975
v -1.303843 0.185515 -1.841789
v -1.300000 0.146699 -1.845756
v -1.303843 0.107883 -1.849723
v -1.315224 0.070559 -1.853537
v -1.333706 0.036161 -1.857053
v -1.358579 0.006011 -1.860134
v -1.388886 -0.018733 -1.862663
v -1.423463 -0.037119 -1.864541
v -1.460982 -0.048441 -1.865698
v -1.500000 -0.052264 -1.866089
v -1.539018 -0.048441 -1.865698
v -1.576537 -0.037119 -1.864541
v -1.611114 -0.018733 -1.862663
v -1.641422 0.006011 -1.860134
v -1.666294 0.036161 -1.857053
v -1.684776 0.070559 -1.853537
v -1.696157 0.107884 -1.849723
v -1.700000 0.146700 -1.845756
v -1.696157 0.185515 -1.841789
v -1.684776 0.222840 -1.837975
v -1.666294 0.257238 -1.834460
v -1.641422 0.287388 -1.831379
v -1.611114 0.312132 -1.828850
v -1.576537 0.330518 -1.826971
v -1.539018 0.341840 -1.825814
v -0.269181 -0.184803 -1.640700
v -0.269181 0.266936 -1.640700
v -1.943780 -0.354600 -3.063695
v -1.943780 0.376422 -3.063695
v 0.269181 -0.184803 -1.640700
v 0.269181 0.266936 -1.640700
v 1.943780 -0.354601 -3.063695
v 1.943780 0.376421 -3.063695
v -0.393301 0.168782 -0.968762
v -1.093301 1.381218 -2.732117
v -0.393301 0.168782 -2.968762
v -1.093301 1.381218 -2.968762
v -0.306699 0.218782 -0.968762
v -1.006699 1.431218 -2.732117
v -0.306699 0.218782 -2.968762
v -1.006699 1.431218 -2.968762
vn -0.8660 0.5000 -0.0000
vn -0.0000 -0.0000 -1.0000
vn 0.8660 -0.5000 -0.0000
vn 0.3916 0.6783 0.6218
vn -0.5000 -0.8660 -0.0000
vn 0.5000 0.8660 -0.0000
vn 0.0678 0.9828 0.1720
vn 0.2045 0.9630 0.1753
vn 0.3446 0.9210 0.1819
vn 0.4889 0.8510 0.1917
vn 0.6352 0.7448 0.2045
vn 0.7755 0.5922 0.2188
vn 0.8925 0.3868 0.2320
vn 0.9612 0.1352 0.2403
vn 0.9612 -0.1352 0.2403
vn 0.8925 -0.3868 0.2320
vn 0.7755 -0.5922 0.2188
vn 0.6352 -0.7448 0.2045
vn 0.4889 -0.8510 0.1917
vn 0.3446 -0.9210 0.1819
vn 0.2045 -0.9630 0.1753
vn 0.0678 -0.9828 0.1720
vn -0.0678 -0.9828 0.1720
vn -0.2045 -0.9630 0.1753
vn -0.3446 -0.9210 0.1819
vn -0.4889 -0.8510 0.1917
vn -0.6352 -0.7448 0.2045
vn -0.7755 -0.5922 0.2188
vn -0.8925 -0.3868 0.2320
vn -0.9612 -0.1352 0.2403
vn -0.9612 0.1352 0.2403
vn -0.8925 0.3868 0.2320
vn -0.7755 0.5922 0.2188
vn -0.6352 0.7448 0.2045
vn -0.4889 0.8510 0.1917
vn -0.3446 0.9210 0.1819
vn -0.0688 0.9976 -0.0000
vn -0.2045 0.9630 0.1753
vn -0.0678 0.9828 0.1720
vn 0.6490 -0.7608 -0.0000
vn -0.3504 -0.9366 -0.0000
vn -0.9175 0.3976 -0.0000
vn 0.7948 0.6069 -0.0000
vn 0.4981 -0.8671 -0.0000
vn -0.4981 -0.8671 -0.0000
vn -0.7948 0.6069 -0.0000
vn 0.9175 0.3976 -0.0000
vn 0.0688 0.9976 -0.0000
vn 0.3504 -0.9366 -0.0000
vn -0.6489 -0.7608 -0.0000
vn -0.6490 0.7608 -0.0000
vn 0.9902 0.1393 -0.0000
vn 0.2077 -0.9782 -0.0000
vn -0.7948 -0.6069 -0.0000
vn 0.2077 0.9782 -0.0000
vn -0.4981 0.8671 -0.0000
vn 0.9902 -0.1393 -0.0000
vn 0.0688 -0.9976 -0.0000
vn -0.9175 -0.3976 -0.0000
vn 0.3504 0.9366 -0.0000
vn -0.3504 0.9366 -0.0000
vn 0.9175 -0.3976 -0.0000
vn -0.0688 -0.9976 -0.0000
vn -0.9902 -0.1393 -0.0000
vn 0.4981 0.8671 -0.0000
vn -0.2077 0.9782 -0.0000
vn 0.7948 -0.6069 -0.0000
vn -0.2077 -0.9782 -0.0000
vn -0.9902 0.1393 -0.0000
vn 0.6490 0.7608 -0.0000
vn -0.8297 -0.1652 0.5332
vn -0.0000 1.0000 -0.0000
vn 0.8315 -0.0000 0.5556
vn -0.0000 -0.0000 1.0000
vn -0.0000 -0.9919 -0.1272
vn -0.0000 0.9989 0.0465
vn -1.0000 -0.0000 -0.0000
vn 1.0000 -0.0000 -0.0000
vn -0.0000 -1.0000 -0.0000
vn 0.0971 0.9665 0.2374
vn 0.2875 0.9289 0.2336
vn 0.4669 0.8549 0.2260
vn 0.6283 0.7476 0.2151
vn 0.7656 0.6110 0.2011
vn 0.8735 0.4504 0.1847
vn 0.9478 0.2720 0.1665
vn 0.9857 0.0825 0.1471
vn 0.9857 -0.1106 0.1274
vn 0.9478 -0.3000 0.1080
vn 0.8735 -0.4785 0.0898
vn 0.7656 -0.6391 0.0734
vn 0.6283 -0.7757 0.0594
vn 0.4669 -0.8830 0.0484
vn 0.2875 -0.9569 0.0409
vn 0.0971 -0.9946 0.0370
vn -0.0971 -0.9946 0.0370
vn -0.2875 -0.9569 0.0409
vn -0.4669 -0.8830 0.0484
vn -0.6283 -0.7757 0.0594
vn -0.7656 -0.6391 0.0734
vn -0.8735 -0.4785 0.0898
vn -0.9478 -0.3000 0.1080
vn -0.9857 -0.1106 0.1274
vn -0.9857 0.0826 0.1471
vn -0.9478 0.2720 0.1665
vn -0.8735 0.4504 0.1847
vn -0.7656 0.6110 0.2011
vn -0.6283 0.7476 0.2151
vn -0.4669 0.8549 0.2260
vn 0.9569 0.2888 0.0295
vn -0.2875 0.9289 0.2336
vn -0.0971 0.9665 0.2374
vn -0.0000 0.1017 -0.9948
vn 0.0980 0.9900 0.1012
vn 0.4714 -0.8774 -0.0897
vn -0.7730 -0.6311 -0.0645
vn -0.7730 0.6311 0.0645
vn 0.9952 0.0975 0.0100
vn 0.2903 -0.9520 -0.0973
vn -0.8819 -0.4690 -0.0479
vn 0.2903 0.9520 0.0973
vn -0.6344 0.7690 0.0786
vn 0.9952 -0.0975 -0.0100
vn 0.0980 -0.9900 -0.1012
vn -0.9569 -0.2888 -0.0295
vn 0.4714 0.8774 0.0897
vn -0.4714 0.8774 0.0897
vn 0.9569 -0.2888 -0.0295
vn -0.0980 -0.9900 -0.1012
vn -0.9952 -0.0975 -0.0100
vn 0.6344 0.7690 0.0786
vn -0.2903 0.9520 0.0973
vn 0.8819 -0.4690 -0.0479
vn -0.2903 -0.9520 -0.0973
vn -0.9952 0.0975 0.0100
vn 0.7730 0.6311 0.0645
vn -0.0980 0.9900 0.1012
vn 0.7730 -0.6311 -0.0645
vn -0.4714 -0.8774 -0.0897
vn -0.9569 0.2888 0.0295
vn 0.8819 0.4690 0.0479
vn 0.6344 -0.7690 -0.0786
vn -0.6344 -0.7690 -0.0786
vn -0.8819 0.4690 0.0479
vn 0.8735 0.4505 0.1847
vn 0.4714 -0.8773 -0.0897
vn -0.6475 -0.0000 0.7620
vn 0.6475 -0.0000 0.7620
vn -0.0000 -0.9930 0.1185
vn -0.0000 0.9971 0.0767
vn -0.8660 -0.5000 -0.0000
vn 0.8660 0.5000 -0.0000
vn -0.3916 0.6783 0.6218
vn 0.5000 -0.8660 -0.0000
vn -0.5000 0.8660 -0.0000
vn -0.6490 -0.7608 -0.0000
vn -0.9176 -0.3976 -0.0000
vn -0.8402 -0.0000 0.5423
vn 0.8321 -0.1657 0.5293
vn -0.0000 0.1018 -0.9948
vn -0.0000 0.1016 -0.9948
vt 0.141431 0.343809
vt 0.109332 0.311710
vt 0.141431 0.311710
vt 0.109332 0.343809
vt 0.077232 0.311710
vt 0.045133 0.343809
vt 0.045133 0.311710
vt 0.013034 0.311710
vt 0.045133 0.279611
vt 0.077232 0.279611
vt 0.077232 0.375908
vt 0.077232 0.343809
vt 0.638373 0.759050
vt 0.808926 0.810786
vt 0.631557 0.793318
vt 0.631557 0.828256
vt 0.638373 0.862523
vt 0.651744 0.894802
vt 0.671155 0.923853
vt 0.695860 0.948558
vt 0.724910 0.967969
vt 0.757189 0.981339
vt 0.791457 0.988155
vt 0.826395 0.988155
vt 0.860662 0.981339
vt 0.892942 0.967969
vt 0.921992 0.948558
vt 0.946697 0.923853
vt 0.966108 0.894802
vt 0.979478 0.862523
vt 0.986294 0.828256
vt 0.986294 0.793317
vt 0.979478 0.759050
vt 0.966108 0.726771
vt 0.946697 0.697721
vt 0.921992 0.673015
vt 0.892941 0.653605
vt 0.860662 0.640234
vt 0.826395 0.633418
vt 0.791456 0.633418
vt 0.757189 0.640234
vt 0.724910 0.653605
vt 0.695860 0.673016
vt 0.671155 0.697721
vt 0.651744 0.726771
vt 0.758325 0.579542
vt 0.741443 0.523891
vt 0.685792 0.540772
vt 0.826395 0.633418
vt 0.671155 0.923853
vt 0.791456 0.633418
vt 0.724911 0.967969
vt 0.724910 0.653605
vt 0.757189 0.981339
vt 0.638373 0.862524
vt 0.695860 0.673016
vt 0.826395 0.988155
vt 0.860662 0.640234
vt 0.442068 0.013412
vt 0.227226 0.228253
vt 0.227226 0.013412
vt 0.442068 0.443095
vt 0.656909 0.443095
vt 0.227226 0.657936
vt 0.227226 0.443095
vt 0.442068 0.657936
vt 0.227226 0.872778
vt 0.012385 0.657936
vt 0.012385 0.443095
vt 0.656909 0.657936
vt 0.442068 0.443095
vt 0.227226 0.443095
vt 0.442068 0.228253
vt 0.604295 0.188547
vt 0.560293 0.106226
vt 0.619510 0.178381
vt 0.632449 0.165442
vt 0.642615 0.150228
vt 0.649618 0.133322
vt 0.653187 0.115375
vt 0.653187 0.097077
vt 0.649618 0.079130
vt 0.642615 0.062225
vt 0.632449 0.047010
vt 0.619510 0.034071
vt 0.604296 0.023905
vt 0.587390 0.016902
vt 0.569443 0.013332
vt 0.551145 0.013332
vt 0.533198 0.016902
vt 0.516292 0.023905
vt 0.501078 0.034071
vt 0.488139 0.047010
vt 0.477973 0.062224
vt 0.470970 0.079130
vt 0.467400 0.097077
vt 0.467400 0.115375
vt 0.470970 0.133322
vt 0.477973 0.150228
vt 0.488139 0.165442
vt 0.501078 0.178381
vt 0.516292 0.188547
vt 0.533198 0.195550
vt 0.551145 0.199120
vt 0.569443 0.199120
vt 0.649618 0.079130
vt 0.587390 0.195550
vt 0.197259 0.030649
vt 0.175802 0.013039
vt 0.158192 0.034497
vt 0.569443 0.013333
vt 0.470970 0.079130
vt 0.533198 0.195550
vt 0.642615 0.062224
vt 0.632449 0.047010
vt 0.467400 0.115375
vt 0.642615 0.150228
vt 0.569443 0.199120
vt 0.619510 0.034071
vt 0.587390 0.195550
vt 0.477973 0.150228
vt 0.488139 0.047010
vt 0.488139 0.165442
vt 0.587390 0.016902
vt 0.501078 0.178381
vt 0.150228 0.858483
vt 0.106226 0.776162
vt 0.165442 0.848317
vt 0.178381 0.835378
vt 0.188547 0.820164
vt 0.195550 0.803258
vt 0.199120 0.785311
vt 0.199120 0.767013
vt 0.195550 0.749066
vt 0.188547 0.732161
vt 0.178381 0.716946
vt 0.165443 0.704007
vt 0.150228 0.693841
vt 0.133322 0.686838
vt 0.115376 0.683268
vt 0.097077 0.683268
vt 0.079130 0.686838
vt 0.062225 0.693841
vt 0.047010 0.704007
vt 0.034071 0.716946
vt 0.023905 0.732160
vt 0.016902 0.749066
vt 0.013333 0.767013
vt 0.013333 0.785311
vt 0.016902 0.803258
vt 0.023905 0.820164
vt 0.034071 0.835378
vt 0.047010 0.848317
vt 0.062224 0.858483
vt 0.079130 0.865486
vt 0.097077 0.869056
vt 0.115375 0.869056
vt 0.199120 0.767013
vt 0.133322 0.865486
vt 0.194759 0.251588
vt 0.192038 0.223964
vt 0.164414 0.226684
vt 0.165442 0.848317
vt 0.150228 0.858483
vt 0.016903 0.749066
vt 0.097077 0.683268
vt 0.178381 0.835378
vt 0.097077 0.869056
vt 0.013333 0.785311
vt 0.115375 0.869056
vt 0.062225 0.693841
vt 0.016902 0.803258
vt 0.133322 0.865486
vt 0.047010 0.704007
vt 0.023905 0.820164
vt 0.034071 0.835378
vt 0.133322 0.686838
vt 0.047010 0.848317
vt 0.804317 0.012742
vt 0.683751 0.133309
vt 0.683751 0.012742
vt 0.804317 0.253875
vt 0.683751 0.253875
vt 0.683751 0.374442
vt 0.804317 0.374442
vt 0.683751 0.495008
vt 0.563184 0.253875
vt 0.563184 0.374442
vt 0.924884 0.374442
vt 0.133048 0.012990
vt 0.072558 0.073480
vt 0.072558 0.012990
vt 0.133048 0.133969
vt 0.072558 0.133969
vt 0.133048 0.194458
vt 0.072558 0.194458
vt 0.072558 0.254948
vt 0.012069 0.194458
vt 0.012069 0.133969
vt 0.193537 0.133969
vt 0.013034 0.343809
vt 0.045133 0.375908
vt 0.682707 0.548220
vt 0.681134 0.556126
vt 0.681134 0.564188
vt 0.682707 0.572094
vt 0.685792 0.579542
vt 0.690270 0.586245
vt 0.695971 0.591945
vt 0.702673 0.596424
vt 0.710121 0.599509
vt 0.718028 0.601081
vt 0.726089 0.601081
vt 0.733995 0.599509
vt 0.741443 0.596424
vt 0.748146 0.591945
vt 0.753846 0.586245
vt 0.761410 0.572094
vt 0.762982 0.564188
vt 0.762982 0.556127
vt 0.761410 0.548220
vt 0.758325 0.540772
vt 0.753846 0.534070
vt 0.748146 0.528369
vt 0.733996 0.520806
vt 0.726089 0.519233
vt 0.718028 0.519233
vt 0.710121 0.520806
vt 0.702674 0.523891
vt 0.695971 0.528369
vt 0.690271 0.534070
vt 0.442068 0.872778
vt 0.012385 0.443095
vt 0.158943 0.038270
vt 0.160415 0.041825
vt 0.162553 0.045025
vt 0.165274 0.047745
vt 0.168473 0.049883
vt 0.172028 0.051355
vt 0.175802 0.052106
vt 0.179649 0.052106
vt 0.183423 0.051355
vt 0.186978 0.049883
vt 0.190177 0.047745
vt 0.192898 0.045025
vt 0.195036 0.041825
vt 0.196508 0.038270
vt 0.197259 0.034497
vt 0.196508 0.026875
vt 0.195036 0.023320
vt 0.192898 0.020121
vt 0.190177 0.017400
vt 0.186978 0.015262
vt 0.183423 0.013790
vt 0.179649 0.013039
vt 0.172028 0.013790
vt 0.168473 0.015262
vt 0.165274 0.017400
vt 0.162553 0.020121
vt 0.160415 0.023320
vt 0.158943 0.026875
vt 0.158192 0.030649
vt 0.162276 0.229884
vt 0.160804 0.233439
vt 0.160053 0.237212
vt 0.160053 0.241060
vt 0.160804 0.244834
vt 0.162276 0.248389
vt 0.164414 0.251588
vt 0.167135 0.254309
vt 0.170334 0.256447
vt 0.173889 0.257919
vt 0.177662 0.258670
vt 0.181510 0.258670
vt 0.185284 0.257919
vt 0.188839 0.256447
vt 0.192038 0.254309
vt 0.196897 0.248389
vt 0.198369 0.244834
vt 0.199120 0.241060
vt 0.199120 0.237212
vt 0.198369 0.233439
vt 0.196897 0.229884
vt 0.194759 0.226684
vt 0.188839 0.221826
vt 0.185284 0.220353
vt 0.181510 0.219603
vt 0.177663 0.219603
vt 0.173889 0.220353
vt 0.170334 0.221826
vt 0.167135 0.223964
vt 0.804317 0.133309
vt 0.804317 0.495008
vt 0.924884 0.253875
vt 0.133048 0.073480
vt 0.133048 0.254948
vt 0.193537 0.194458
s 0
usemtl マテリアル
f 2/1/1 3/2/1 1/3/1
f 4/4/2 7/5/2 3/2/2
f 7/5/3 6/6/3 5/7/3
f 6/6/4 1/8/4 5/7/4
f 7/5/5 1/9/5 3/10/5
f 4/11/6 6/6/6 8/12/6
f 9/13/7 41/14/7 10/15/7
f 10/15/8 41/14/8 11/16/8
f 11/16/9 41/14/9 12/17/9
f 12/17/10 41/14/10 13/18/10
f 13/18/11 41/14/11 14/19/11
f 14/19/12 41/14/12 15/20/12
f 15/20/13 41/14/13 16/21/13
f 16/21/14 41/14/14 17/22/14
f 17/22/15 41/14/15 18/23/15
f 18/23/16 41/14/16 19/24/16
f 19/24/17 41/14/17 20/25/17
f 20/25/18 41/14/18 21/26/18
f 21/26/19 41/14/19 22/27/19
f 22/27/20 41/14/20 23/28/20
f 23/28/21 41/14/21 24/29/21
f 24/29/22 41/14/22 25/30/22
f 25/30/23 41/14/23 26/31/23
f 26/31/24 41/14/24 27/32/24
f 27/32/25 41/14/25 28/33/25
f 28/33/26 41/14/26 29/34/26
f 29/34/27 41/14/27 30/35/27
f 30/35/28 41/14/28 31/36/28
f 31/36/29 41/14/29 32/37/29
f 32/37/30 41/14/30 33/38/30
f 33/38/31 41/14/31 34/39/31
f 34/39/32 41/14/32 35/40/32
f 35/40/33 41/14/33 36/41/33
f 36/41/34 41/14/34 37/42/34
f 37/42/35 41/14/35 38/43/35
f 38/43/36 41/14/36 39/44/36
f 40/45/37 42/13/37 73/45/37
f 39/44/38 41/14/38 40/45/38
f 40/45/39 41/14/39 9/13/39
f 57/46/2 65/47/2 73/48/2
f 21/26/40 53/25/40 20/25/40
f 28/33/41 60/32/41 27/32/41
f 35/40/42 67/49/42 34/39/42
f 14/19/43 48/20/43 47/50/43
f 22/27/44 54/26/44 21/26/44
f 29/34/45 61/33/45 28/33/45
f 35/40/46 69/41/46 68/51/46
f 15/20/47 49/52/47 48/20/47
f 9/13/48 43/15/48 42/13/48
f 23/28/49 55/27/49 22/27/49
f 30/35/50 62/34/50 29/34/50
f 36/41/51 70/53/51 69/41/51
f 16/21/52 50/54/52 49/52/52
f 24/29/53 56/28/53 23/28/53
f 31/36/54 63/35/54 30/35/54
f 10/15/55 44/16/55 43/15/55
f 38/43/56 70/53/56 37/42/56
f 18/23/57 50/54/57 17/22/57
f 25/30/58 57/29/58 24/29/58
f 32/37/59 64/36/59 31/36/59
f 11/16/60 45/55/60 44/16/60
f 38/43/61 72/44/61 71/56/61
f 18/23/62 52/57/62 51/23/62
f 26/31/63 58/30/63 25/30/63
f 33/38/64 65/37/64 32/37/64
f 12/17/65 46/18/65 45/55/65
f 39/44/66 73/45/66 72/44/66
f 20/25/67 52/57/67 19/24/67
f 27/32/68 59/31/68 26/31/68
f 34/39/69 66/58/69 33/38/69
f 13/18/70 47/50/70 46/18/70
f 75/59/71 76/60/71 74/61/71
f 81/62/72 82/63/72 77/63/72
f 81/62/73 78/64/73 80/65/73
f 79/66/74 74/67/74 78/64/74
f 80/65/75 74/68/75 76/69/75
f 81/62/76 75/70/76 79/66/76
f 83/60/2 85/71/2 84/72/2
f 77/73/77 83/60/77 76/60/77
f 80/65/78 85/71/78 81/62/78
f 76/69/79 84/72/79 80/65/79
f 86/74/80 118/75/80 87/76/80
f 87/76/81 118/75/81 88/77/81
f 88/77/82 118/75/82 89/78/82
f 89/78/83 118/75/83 90/79/83
f 90/79/84 118/75/84 91/80/84
f 91/80/85 118/75/85 92/81/85
f 92/81/86 118/75/86 93/82/86
f 93/82/87 118/75/87 94/83/87
f 94/83/88 118/75/88 95/84/88
f 95/84/89 118/75/89 96/85/89
f 96/85/90 118/75/90 97/86/90
f 97/86/91 118/75/91 98/87/91
f 98/87/92 118/75/92 99/88/92
f 99/88/93 118/75/93 100/89/93
f 100/89/94 118/75/94 101/90/94
f 101/90/95 118/75/95 102/91/95
f 102/91/96 118/75/96 103/92/96
f 103/92/97 118/75/97 104/93/97
f 104/93/98 118/75/98 105/94/98
f 105/94/99 118/75/99 106/95/99
f 106/95/100 118/75/100 107/96/100
f 107/96/101 118/75/101 108/97/101
f 108/97/102 118/75/102 109/98/102
f 109/98/103 118/75/103 110/99/103
f 110/99/104 118/75/104 111/100/104
f 111/100/105 118/75/105 112/101/105
f 112/101/106 118/75/106 113/102/106
f 113/102/107 118/75/107 114/103/107
f 114/103/108 118/75/108 115/104/108
f 115/104/109 118/75/109 116/105/109
f 92/81/110 126/106/110 125/81/110
f 116/105/111 118/75/111 117/107/111
f 117/107/112 118/75/112 86/74/112
f 134/108/113 142/109/113 150/110/113
f 86/74/114 120/76/114 119/74/114
f 100/89/115 132/111/115 99/88/115
f 107/96/116 139/112/116 106/95/116
f 113/102/117 147/113/117 146/102/117
f 93/82/118 127/114/118 126/106/118
f 101/90/119 133/89/119 100/89/119
f 108/97/120 140/96/120 107/96/120
f 87/76/121 121/77/121 120/76/121
f 114/103/122 148/104/122 147/113/122
f 94/83/123 128/115/123 127/114/123
f 102/91/124 134/90/124 101/90/124
f 109/98/125 141/116/125 108/97/125
f 88/77/126 122/117/126 121/77/126
f 115/104/127 149/118/127 148/104/127
f 95/84/128 129/119/128 128/115/128
f 103/92/129 135/91/129 102/91/129
f 110/99/130 142/98/130 109/98/130
f 89/78/131 123/79/131 122/117/131
f 116/105/132 150/120/132 149/118/132
f 96/85/133 130/86/133 129/119/133
f 104/93/134 136/92/134 103/92/134
f 111/100/135 143/121/135 110/99/135
f 90/79/136 124/80/136 123/79/136
f 117/107/137 119/74/137 150/120/137
f 98/87/138 130/86/138 97/86/138
f 105/94/139 137/122/139 104/93/139
f 112/101/140 144/123/140 111/100/140
f 91/80/141 125/81/141 124/80/141
f 99/88/142 131/124/142 98/87/142
f 106/95/143 138/94/143 105/94/143
f 113/102/144 145/125/144 112/101/144
f 151/126/80 183/127/80 152/128/80
f 152/128/81 183/127/81 153/129/81
f 153/129/82 183/127/82 154/130/82
f 154/130/83 183/127/83 155/131/83
f 155/131/84 183/127/84 156/132/84
f 156/132/145 183/127/145 157/133/145
f 157/133/86 183/127/86 158/134/86
f 158/134/87 183/127/87 159/135/87
f 159/135/88 183/127/88 160/136/88
f 160/136/89 183/127/89 161/137/89
f 161/137/90 183/127/90 162/138/90
f 162/138/91 183/127/91 163/139/91
f 163/139/92 183/127/92 164/140/92
f 164/140/93 183/127/93 165/141/93
f 165/141/94 183/127/94 166/142/94
f 166/142/95 183/127/95 167/143/95
f 167/143/96 183/127/96 168/144/96
f 168/144/97 183/127/97 169/145/97
f 169/145/98 183/127/98 170/146/98
f 170/146/99 183/127/99 171/147/99
f 171/147/100 183/127/100 172/148/100
f 172/148/101 183/127/101 173/149/101
f 173/149/102 183/127/102 174/150/102
f 174/150/103 183/127/103 175/151/103
f 175/151/104 183/127/104 176/152/104
f 176/152/105 183/127/105 177/153/105
f 177/153/106 183/127/106 178/154/106
f 178/154/107 183/127/107 179/155/107
f 179/155/108 183/127/108 180/156/108
f 180/156/109 183/127/109 181/157/109
f 157/133/110 191/134/110 190/158/110
f 181/157/111 183/127/111 182/159/111
f 182/159/112 183/127/112 151/126/112
f 199/160/113 207/161/113 215/162/113
f 151/126/114 185/163/114 184/164/114
f 165/141/146 197/140/146 164/140/146
f 172/148/116 204/165/116 171/147/116
f 178/154/117 212/155/117 211/154/117
f 158/134/118 192/135/118 191/134/118
f 166/142/119 198/166/119 165/141/119
f 173/149/120 205/148/120 172/148/120
f 152/128/121 186/167/121 185/163/121
f 179/155/122 213/168/122 212/155/122
f 159/135/123 193/136/123 192/135/123
f 167/143/124 199/142/124 166/142/124
f 174/150/125 206/169/125 173/149/125
f 153/129/126 187/130/126 186/167/126
f 180/156/127 214/170/127 213/168/127
f 160/136/128 194/137/128 193/136/128
f 168/144/129 200/171/129 167/143/129
f 175/151/130 207/172/130 174/150/130
f 154/130/131 188/131/131 187/130/131
f 181/157/132 215/173/132 214/170/132
f 161/137/133 195/138/133 194/137/133
f 169/145/134 201/174/134 168/144/134
f 176/152/135 208/175/135 175/151/135
f 155/131/136 189/132/136 188/131/136
f 182/159/137 184/164/137 215/173/137
f 163/139/138 195/138/138 162/138/138
f 170/146/139 202/145/139 169/145/139
f 177/153/140 209/176/140 176/152/140
f 156/132/141 190/158/141 189/132/141
f 164/140/142 196/177/142 163/139/142
f 171/147/143 203/146/143 170/146/143
f 178/154/144 210/178/144 177/153/144
f 217/179/147 218/180/147 216/181/147
f 218/180/2 223/182/2 222/183/2
f 223/182/148 220/184/148 222/183/148
f 221/185/74 216/186/74 220/184/74
f 218/187/149 220/184/149 216/188/149
f 223/182/150 217/189/150 221/185/150
f 225/190/151 226/191/151 224/192/151
f 226/191/2 231/193/2 230/194/2
f 230/194/152 229/195/152 228/196/152
f 229/195/153 224/197/153 228/196/153
f 230/194/154 224/198/154 226/199/154
f 227/200/155 229/195/155 231/193/155
f 2/1/1 4/4/1 3/2/1
f 4/4/2 8/12/2 7/5/2
f 7/5/3 8/12/3 6/6/3
f 6/6/4 2/201/4 1/8/4
f 7/5/5 5/7/5 1/9/5
f 4/11/6 2/202/6 6/6/6
f 40/45/37 9/13/37 42/13/37
f 73/48/2 42/203/2 43/204/2
f 43/204/2 44/205/2 45/206/2
f 45/206/2 46/207/2 47/208/2
f 47/208/2 48/209/2 49/210/2
f 49/210/2 50/211/2 51/212/2
f 51/212/2 52/213/2 53/214/2
f 53/214/2 54/215/2 55/216/2
f 55/216/2 56/217/2 57/46/2
f 57/46/2 58/218/2 59/219/2
f 59/219/2 60/220/2 61/221/2
f 61/221/2 62/222/2 63/223/2
f 63/223/2 64/224/2 65/47/2
f 65/47/2 66/225/2 67/226/2
f 67/226/2 68/227/2 69/228/2
f 69/228/2 70/229/2 71/230/2
f 71/230/2 72/231/2 73/48/2
f 73/48/2 43/204/2 45/206/2
f 45/206/2 47/208/2 49/210/2
f 49/210/2 51/212/2 53/214/2
f 53/214/2 55/216/2 57/46/2
f 57/46/2 59/219/2 61/221/2
f 61/221/2 63/223/2 65/47/2
f 65/47/2 67/226/2 69/228/2
f 69/228/2 71/230/2 73/48/2
f 73/48/2 45/206/2 49/210/2
f 49/210/2 53/214/2 57/46/2
f 57/46/2 61/221/2 65/47/2
f 65/47/2 69/228/2 73/48/2
f 73/48/2 49/210/2 57/46/2
f 21/26/40 54/26/40 53/25/40
f 28/33/41 61/33/41 60/32/41
f 35/40/42 68/51/42 67/49/42
f 14/19/43 15/20/43 48/20/43
f 22/27/44 55/27/44 54/26/44
f 29/34/45 62/34/45 61/33/45
f 35/40/46 36/41/46 69/41/46
f 15/20/47 16/21/47 49/52/47
f 9/13/48 10/15/48 43/15/48
f 23/28/49 56/28/49 55/27/49
f 30/35/156 63/35/156 62/34/156
f 36/41/51 37/42/51 70/53/51
f 16/21/52 17/22/52 50/54/52
f 24/29/53 57/29/53 56/28/53
f 31/36/54 64/36/54 63/35/54
f 10/15/55 11/16/55 44/16/55
f 38/43/56 71/56/56 70/53/56
f 18/23/57 51/23/57 50/54/57
f 25/30/58 58/30/58 57/29/58
f 32/37/157 65/37/157 64/36/157
f 11/16/60 12/17/60 45/55/60
f 38/43/61 39/44/61 72/44/61
f 18/23/62 19/24/62 52/57/62
f 26/31/63 59/31/63 58/30/63
f 33/38/64 66/58/64 65/37/64
f 12/17/65 13/18/65 46/18/65
f 39/44/66 40/45/66 73/45/66
f 20/25/67 53/25/67 52/57/67
f 27/32/68 60/32/68 59/31/68
f 34/39/69 67/49/69 66/58/69
f 13/18/70 14/19/70 47/50/70
f 75/59/158 77/73/158 76/60/158
f 81/62/72 85/71/72 82/63/72
f 81/62/159 79/66/159 78/64/159
f 79/66/74 75/232/74 74/67/74
f 80/65/75 78/64/75 74/68/75
f 81/62/76 77/63/76 75/70/76
f 83/60/2 82/73/2 85/71/2
f 77/73/77 82/73/77 83/60/77
f 80/65/78 84/72/78 85/71/78
f 76/69/79 83/233/79 84/72/79
f 92/81/110 93/82/110 126/106/110
f 150/110/160 119/234/160 120/235/160
f 120/235/113 121/236/113 122/237/113
f 122/237/113 123/238/113 124/239/113
f 124/239/113 125/240/113 126/241/113
f 126/241/113 127/242/113 128/243/113
f 128/243/113 129/244/113 130/245/113
f 130/245/113 131/246/113 132/247/113
f 132/247/113 133/248/113 134/108/113
f 134/108/113 135/249/113 136/250/113
f 136/250/113 137/251/113 138/252/113
f 138/252/113 139/253/113 140/254/113
f 140/254/113 141/255/113 142/109/113
f 142/109/113 143/256/113 144/257/113
f 144/257/113 145/258/113 146/259/113
f 146/259/113 147/260/113 148/261/113
f 148/261/113 149/262/113 150/110/113
f 150/110/161 120/235/161 122/237/161
f 122/237/113 124/239/113 126/241/113
f 126/241/113 128/243/113 130/245/113
f 130/245/113 132/247/113 134/108/113
f 134/108/161 136/250/161 138/252/161
f 138/252/113 140/254/113 142/109/113
f 142/109/113 144/257/113 146/259/113
f 146/259/113 148/261/113 150/110/113
f 150/110/113 122/237/113 126/241/113
f 126/241/113 130/245/113 134/108/113
f 134/108/113 138/252/113 142/109/113
f 142/109/113 146/259/113 150/110/113
f 150/110/113 126/241/113 134/108/113
f 86/74/114 87/76/114 120/76/114
f 100/89/115 133/89/115 132/111/115
f 107/96/116 140/96/116 139/112/116
f 113/102/117 114/103/117 147/113/117
f 93/82/118 94/83/118 127/114/118
f 101/90/119 134/90/119 133/89/119
f 108/97/120 141/116/120 140/96/120
f 87/76/121 88/77/121 121/77/121
f 114/103/122 115/104/122 148/104/122
f 94/83/123 95/84/123 128/115/123
f 102/91/124 135/91/124 134/90/124
f 109/98/125 142/98/125 141/116/125
f 88/77/126 89/78/126 122/117/126
f 115/104/127 116/105/127 149/118/127
f 95/84/128 96/85/128 129/119/128
f 103/92/129 136/92/129 135/91/129
f 110/99/130 143/121/130 142/98/130
f 89/78/131 90/79/131 123/79/131
f 116/105/132 117/107/132 150/120/132
f 96/85/133 97/86/133 130/86/133
f 104/93/134 137/122/134 136/92/134
f 111/100/135 144/123/135 143/121/135
f 90/79/136 91/80/136 124/80/136
f 117/107/137 86/74/137 119/74/137
f 98/87/138 131/124/138 130/86/138
f 105/94/139 138/94/139 137/122/139
f 112/101/140 145/125/140 144/123/140
f 91/80/141 92/81/141 125/81/141
f 99/88/142 132/111/142 131/124/142
f 106/95/143 139/112/143 138/94/143
f 113/102/144 146/102/144 145/125/144
f 157/133/110 158/134/110 191/134/110
f 215/162/160 184/263/160 185/264/160
f 185/264/113 186/265/113 187/266/113
f 187/266/113 188/267/113 189/268/113
f 189/268/113 190/269/113 191/270/113
f 191/270/113 192/271/113 193/272/113
f 193/272/113 194/273/113 195/274/113
f 195/274/113 196/275/113 197/276/113
f 197/276/113 198/277/113 199/160/113
f 199/160/160 200/278/160 201/279/160
f 201/279/113 202/280/113 203/281/113
f 203/281/113 204/282/113 205/283/113
f 205/283/113 206/284/113 207/161/113
f 207/161/113 208/285/113 209/286/113
f 209/286/113 210/287/113 211/288/113
f 211/288/113 212/289/113 213/290/113
f 213/290/113 214/291/113 215/162/113
f 215/162/161 185/264/161 187/266/161
f 187/266/113 189/268/113 191/270/113
f 191/270/113 193/272/113 195/274/113
f 195/274/113 197/276/113 199/160/113
f 199/160/161 201/279/161 203/281/161
f 203/281/113 205/283/113 207/161/113
f 207/161/113 209/286/113 211/288/113
f 211/288/113 213/290/113 215/162/113
f 215/162/113 187/266/113 191/270/113
f 191/270/113 195/274/113 199/160/113
f 199/160/113 203/281/113 207/161/113
f 207/161/113 211/288/113 215/162/113
f 215/162/113 191/270/113 199/160/113
f 151/126/114 152/128/114 185/163/114
f 165/141/115 198/166/115 197/140/115
f 172/148/116 205/148/116 204/165/116
f 178/154/117 179/155/117 212/155/117
f 158/134/118 159/135/118 192/135/118
f 166/142/119 199/142/119 198/166/119
f 173/149/120 206/169/120 205/148/120
f 152/128/121 153/129/121 186/167/121
f 179/155/122 180/156/122 213/168/122
f 159/135/123 160/136/123 193/136/123
f 167/143/124 200/171/124 199/142/124
f 174/150/125 207/172/125 206/169/125
f 153/129/126 154/130/126 187/130/126
f 180/156/127 181/157/127 214/170/127
f 160/136/128 161/137/128 194/137/128
f 168/144/129 201/174/129 200/171/129
f 175/151/130 208/175/130 207/172/130
f 154/130/131 155/131/131 188/131/131
f 181/157/132 182/159/132 215/173/132
f 161/137/133 162/138/133 195/138/133
f 169/145/134 202/145/134 201/174/134
f 176/152/135 209/176/135 208/175/135
f 155/131/136 156/132/136 189/132/136
f 182/159/137 151/126/137 184/164/137
f 163/139/138 196/177/138 195/138/138
f 170/146/139 203/146/139 202/145/139
f 177/153/140 210/178/140 209/176/140
f 156/132/141 157/133/141 190/158/141
f 164/140/142 197/140/142 196/177/142
f 171/147/143 204/165/143 203/146/143
f 178/154/144 211/154/144 210/178/144
f 217/179/147 219/292/147 218/180/147
f 218/180/2 219/292/2 223/182/2
f 223/182/148 221/185/148 220/184/148
f 221/185/74 217/293/74 216/186/74
f 218/187/149 222/183/149 220/184/149
f 223/182/150 219/294/150 217/189/150
f 225/190/151 227/295/151 226/191/151
f 226/191/2 227/295/2 231/193/2
f 230/194/152 231/193/152 229/195/152
f 229/195/153 225/296/153 224/197/153
f 230/194/154 228/196/154 224/198/154
f 227/200/155 225/297/155 229/195/155
