# Blender 4.1.1
# www.blender.org
mtllib obstacle.mtl
o Cube
v 1.000000 2.000000 -1.000000
v 1.000000 -0.000000 -1.000000
v 1.000000 2.000000 1.000000
v 1.000000 0.000000 1.000000
v -1.000000 2.000000 -1.000000
v -1.000000 -0.000000 -1.000000
v -1.000000 2.000000 1.000000
v -1.000000 0.000000 1.000000
vn -0.0000 1.0000 -0.0000
vn -0.0000 -0.0000 1.0000
vn -1.0000 -0.0000 -0.0000
vn -0.0000 -1.0000 -0.0000
vn 1.0000 -0.0000 -0.0000
vn -0.0000 -0.0000 -1.0000
vt -0.006212 -0.002862
vt 0.999479 -0.997138
vt 0.993771 0.002845
vt -0.001852 0.998490
vt 0.995118 2.001510
vt -0.004877 1.998485
vt -1.003366 0.000000
vt -0.003367 1.000000
vt -1.003366 1.000000
vt -0.003367 1.000000
vt 0.996633 -0.000000
vt 0.996633 1.000000
vt -0.003367 2.000000
vt -1.003366 2.000000
vt -1.003366 -1.000000
vt -0.003366 -0.000000
vt -1.003366 -0.000000
vt -0.000504 -1.002846
vt 0.998143 1.001515
vt -0.003367 0.000000
vt -0.003367 1.000000
vt -0.003367 -1.000000
s 0
usemtl Material.001
f 5/1/1 3/2/1 1/3/1
f 3/4/2 8/5/2 4/6/2
f 7/7/3 6/8/3 8/9/3
f 2/10/4 8/11/4 6/12/4
f 1/9/5 4/13/5 2/14/5
f 5/15/6 2/16/6 6/17/6
f 5/1/1 7/18/1 3/2/1
f 3/4/2 7/19/2 8/5/2
f 7/7/3 5/20/3 6/8/3
f 2/10/4 4/16/4 8/11/4
f 1/9/5 3/21/5 4/13/5
f 5/15/6 1/22/6 2/16/6
