# Blender 4.4.3
# www.blender.org
mtllib keyCanota.mtl
o keyCanota
v -2.277690 0.235915 0.391541
v -1.084643 4.905781 -0.288539
v -2.277690 0.235915 -5.639980
v -1.599604 4.905781 -4.959900
v 2.277553 0.235915 0.391541
v 1.084506 4.905781 -0.288539
v 2.277553 0.235915 -5.639980
v 1.599467 4.905781 -4.959900
v -2.879086 2.570848 0.486837
v -2.679663 2.570848 -5.483931
v 2.679526 2.570848 -5.483931
v 2.878949 2.570848 0.486837
v -3.530579 0.235915 -2.624219
v -3.074997 4.905781 -2.624219
v 3.530442 0.235915 -2.624219
v 3.074860 4.905781 -2.624219
v 4.811727 2.570848 -2.624219
v -4.811863 2.570848 -2.624219
v -3.376014 0.235915 -1.265280
v 2.311260 4.905781 -1.456379
v 3.830417 2.570848 -0.939694
v -2.311396 4.905781 -1.456379
v 3.375878 0.235915 -1.265280
v -3.830554 2.570848 -0.939694
v -2.311396 4.905781 -3.792060
v 3.375878 0.235915 -3.983159
v -4.191666 2.570848 -3.792060
v -3.376014 0.235915 -3.983159
v 2.311260 4.905781 -3.792060
v 4.191529 2.570848 -3.792060
v -0.000068 0.235915 -6.700125
v -0.000068 4.905781 -5.306634
v -0.000068 0.235915 1.451686
v -0.000068 4.905781 0.412421
v -0.000068 2.570848 2.850986
v -0.000068 2.570848 -7.322032
v -0.000068 4.905781 -2.624219
v -0.000068 0.235915 -2.624219
v -0.000068 4.905781 -1.456379
v -0.000068 0.235915 -1.456379
v -0.000068 0.235915 -3.792060
v -0.000068 4.905781 -3.792060
v 5.427289 -1.029152 -10.624219
v 5.427289 -1.794519 -9.863014
v 8.572575 -1.029152 -10.624219
v 5.427289 -0.263785 -9.863014
v 5.427289 -1.553501 -10.645080
v 5.427289 -2.318868 -9.883874
v 8.572575 -1.553501 -10.645080
v 8.572575 -2.318868 -9.883874
v 8.572575 -1.794519 -9.863014
v 8.572575 -2.443365 -7.695286
v 5.427289 -2.443365 -7.695286
v 8.572575 -2.876911 -4.451054
v 8.572575 -2.967715 -7.716146
v 5.427289 -2.967715 -7.716146
v 8.572575 -3.401260 -4.471913
v 5.427289 -3.401260 -4.471913
v 5.427289 -2.876911 -4.451054
v 5.427289 -3.029152 -0.624219
v 8.572575 -3.029152 -0.624219
v 5.427289 -2.876911 3.202615
v 5.427289 -3.553501 -0.645079
v 8.572575 -3.553501 -0.645079
v 5.427289 -3.401260 3.181755
v 8.572575 -3.401260 3.181755
v 8.572575 -2.876911 3.202615
v 8.572575 -2.443365 6.446848
v 5.427289 -2.443365 6.446848
v 8.572575 -1.794519 8.614575
v 8.572575 -2.967715 6.425988
v 5.427289 -2.967715 6.425988
v 8.572575 -2.318868 8.593716
v 5.427289 -2.318868 8.593716
v 5.427289 -1.794519 8.614575
v 5.427289 -1.029152 9.375780
v 8.572575 -1.029152 9.375780
v 5.427289 -0.263785 8.614575
v 8.572575 -0.263785 8.614575
v 5.427289 0.385062 6.446848
v 8.572575 0.385062 6.446848
v 5.427289 0.818607 3.202615
v 8.572575 0.818607 3.202615
v 5.427289 0.970848 -0.624219
v 8.572575 0.970848 -0.624219
v 5.427289 0.818607 -4.451054
v 8.572575 0.818607 -4.451054
v 5.427289 0.385062 -7.695286
v 8.572575 0.385062 -7.695286
v 8.572575 -0.263785 -9.863014
v -8.572711 -1.029152 -10.624219
v -8.572711 -1.794519 -9.863014
v -5.427426 -1.029152 -10.624219
v -8.572711 -0.263785 -9.863014
v -8.572711 -1.553501 -10.645080
v -8.572711 -2.318868 -9.883874
v -5.427426 -1.553501 -10.645080
v -5.427426 -2.318868 -9.883874
v -5.427426 -1.794519 -9.863014
v -5.427426 -2.443365 -7.695286
v -8.572711 -2.443365 -7.695286
v -5.427426 -2.876911 -4.451054
v -5.427426 -2.967715 -7.716146
v -8.572711 -2.967715 -7.716146
v -5.427426 -3.401260 -4.471913
v -8.572711 -3.401260 -4.471913
v -8.572711 -2.876911 -4.451054
v -8.572711 -3.029152 -0.624219
v -5.427426 -3.029152 -0.624219
v -8.572711 -2.876911 3.202615
v -8.572711 -3.553501 -0.645079
v -5.427426 -3.553501 -0.645079
v -8.572711 -3.401260 3.181755
v -5.427426 -3.401260 3.181755
v -5.427426 -2.876911 3.202615
v -5.427426 -2.443365 6.446848
v -8.572711 -2.443365 6.446848
v -5.427426 -1.794519 8.614575
v -5.427426 -2.967715 6.425988
v -8.572711 -2.967715 6.425988
v -5.427426 -2.318868 8.593716
v -8.572711 -2.318868 8.593716
v -8.572711 -1.794519 8.614575
v -8.572711 -1.029152 9.375780
v -5.427426 -1.029152 9.375780
v -8.572711 -0.263785 8.614575
v -5.427426 -0.263785 8.614575
v -8.572711 0.385062 6.446848
v -5.427426 0.385062 6.446848
v -8.572711 0.818607 3.202615
v -5.427426 0.818607 3.202615
v -8.572711 0.970848 -0.624219
v -5.427426 0.970848 -0.624219
v -8.572711 0.818607 -4.451054
v -5.427426 0.818607 -4.451054
v -8.572711 0.385062 -7.695286
v -5.427426 0.385062 -7.695286
v -5.427426 -0.263785 -9.863014
v -5.600069 -1.529152 7.775781
v -5.600069 -1.529152 -10.224218
v -5.600069 0.470848 7.775781
v 5.599932 -1.529152 7.775781
v 5.599932 -1.529152 -10.224218
v 5.599932 0.470848 7.775781
v 5.599932 0.470848 -10.224218
v -5.600069 0.470848 -10.224218
v -9.000069 -1.429152 10.375780
v -9.000069 -1.429152 -11.624219
v -9.000069 1.370848 10.375780
v -5.000068 -1.429152 10.375780
v -5.000068 -1.429152 -11.624219
v -5.000068 1.370848 10.375780
v -5.000068 1.370848 -11.624219
v -9.000069 1.370848 -11.624219
v 4.999932 -1.429152 10.375780
v 4.999932 -1.429152 -11.624219
v 4.999932 1.370848 10.375780
v 8.999932 -1.429152 10.375780
v 8.999932 -1.429152 -11.624219
v 8.999932 1.370848 10.375780
v 8.999932 1.370848 -11.624219
v 4.999932 1.370848 -11.624219
v -0.000068 3.770849 -1.384315
v 0.459152 3.679504 -1.384315
v -0.000068 3.770848 14.615685
v -0.459289 3.679504 -1.384315
v -0.848597 3.419377 -1.384315
v -0.459289 3.679504 14.615685
v -0.848597 3.419376 14.615685
v -0.339348 3.389941 14.615685
v -0.626975 3.197755 14.615685
v -0.000068 3.457428 14.615685
v -0.339348 3.389942 1.436486
v -0.626975 3.197755 1.436486
v -0.000068 3.457429 1.436486
v -0.339348 3.389942 2.304809
v -0.626975 3.197755 2.304809
v -0.000068 3.457429 2.304809
v 0.339211 3.389942 2.304809
v 0.626839 3.197755 2.304809
v 0.339211 3.389942 1.436486
v 0.626839 3.197755 1.436486
v 0.339211 3.389941 14.615685
v 0.626838 3.197755 14.615685
v 0.459152 3.679504 14.615685
v 0.848460 3.419376 14.615685
v 0.848460 3.419377 -1.384315
v 1.108587 3.030068 14.615685
v 1.108587 3.030069 -1.384315
v 1.199932 2.570848 14.615685
v 0.819025 2.910128 14.615685
v 0.886512 2.570848 14.615685
v 0.819025 2.910128 1.436486
v 0.886512 2.570849 1.436486
v 0.819025 2.910128 2.304809
v 0.886512 2.570849 2.304809
v 0.819025 2.231569 2.304809
v 0.626839 1.943942 2.304809
v 0.819025 2.231569 1.436486
v 0.626839 1.943942 1.436486
v 0.819025 2.231569 14.615685
v 0.626838 1.943941 14.615685
v 1.108587 2.111628 14.615685
v 1.108587 2.111629 -1.384315
v 0.848460 1.722320 14.615685
v 0.848460 1.722321 -1.384315
v 0.459152 1.462193 14.615685
v 0.459152 1.462193 -1.384315
v -0.000068 1.370848 14.615685
v 0.339211 1.751755 14.615685
v -0.000068 1.684268 14.615685
v 0.339211 1.751756 1.436486
v -0.000068 1.684269 1.436486
v 0.339211 1.751756 2.304809
v -0.000068 1.684269 2.304809
v -0.339348 1.751756 2.304809
v -0.626975 1.943942 2.304809
v -0.339348 1.751756 1.436486
v -0.626975 1.943942 1.436486
v -0.339348 1.751755 14.615685
v -0.626975 1.943941 14.615685
v -0.459289 1.462193 14.615685
v -0.459289 1.462193 -1.384315
v -0.848597 1.722320 14.615685
v -0.848597 1.722321 -1.384315
v -1.108724 2.111628 14.615685
v -1.108724 2.111629 -1.384315
v -1.200068 2.570848 14.615685
v -0.819161 2.231569 14.615685
v -0.886648 2.570848 14.615685
v -0.819161 2.231569 1.436486
v -0.886648 2.570849 1.436486
v -0.819161 2.231569 2.304809
v -0.886648 2.570849 2.304809
v -0.819161 2.910128 2.304809
v -0.819161 2.910128 1.436486
v -0.819161 2.910128 14.615685
v -1.108724 3.030068 14.615685
v -1.108724 3.030069 -1.384315
v -1.200068 2.570849 -1.384315
v -0.000068 1.370849 -1.384315
v 1.199932 2.570849 -1.384315
vn -0.6392 0.5148 -0.5713
vn 0.5165 0.4079 -0.7529
vn 0.6930 0.5532 0.4622
vn -0.4938 0.6281 0.6014
vn -0.0000 -1.0000 -0.0000
vn -0.0000 1.0000 -0.0000
vn -0.4176 -0.1442 0.8971
vn 0.8110 -0.2308 0.5376
vn 0.4102 -0.2347 -0.8813
vn -0.8288 -0.1060 -0.5494
vn -0.9725 -0.2047 0.1106
vn 0.9413 -0.3201 -0.1071
vn 0.7381 0.5491 -0.3920
vn -0.7269 0.5407 0.4234
vn -0.6930 0.5532 0.4622
vn -0.8110 -0.2308 0.5376
vn 0.9725 -0.2047 0.1106
vn 0.7269 0.5407 0.4234
vn 0.6392 0.5148 -0.5713
vn 0.8288 -0.1060 -0.5494
vn -0.9413 -0.3201 -0.1071
vn -0.7381 0.5491 -0.3920
vn -0.4102 -0.2347 -0.8813
vn 0.4176 -0.1442 0.8971
vn 0.4938 0.6281 0.6014
vn -0.5165 0.4079 -0.7529
vn -1.0000 -0.0000 -0.0000
vn -0.0000 0.0398 -0.9992
vn -0.0000 0.7052 -0.7090
vn -0.0000 -0.7052 -0.7090
vn 1.0000 -0.0000 -0.0000
vn -0.0000 -0.0397 0.9992
vn -0.0000 -0.9580 -0.2868
vn -0.0000 -0.9912 -0.1325
vn -0.0000 -0.0398 0.9992
vn -0.0000 -0.9992 -0.0398
vn -0.0000 -0.9992 0.0398
vn -0.0000 -0.9912 0.1325
vn -0.0000 -0.9580 0.2868
vn -0.0000 -0.7052 0.7090
vn -0.0000 0.7052 0.7090
vn -0.0000 0.9580 0.2868
vn -0.0000 0.9912 0.1325
vn -0.0000 0.9992 0.0398
vn -0.0000 0.9992 -0.0398
vn -0.0000 0.9912 -0.1325
vn -0.0000 0.9580 -0.2868
vn -0.0000 -0.0000 1.0000
vn -0.0000 -0.0000 -1.0000
vn 0.1951 0.9808 -0.0000
vn -0.1951 0.9808 -0.0000
vn -0.5556 0.8315 -0.0000
vn 0.5556 -0.8315 -0.0000
vn 0.1951 -0.9808 -0.0000
vn 0.5556 0.8315 -0.0000
vn -0.1951 -0.9808 -0.0000
vn -0.5556 -0.8315 -0.0000
vn 0.8315 0.5556 -0.0000
vn 0.9808 0.1951 -0.0000
vn -0.8315 -0.5556 -0.0000
vn -0.9808 -0.1951 -0.0000
vn 0.9808 -0.1951 -0.0000
vn 0.8315 -0.5556 -0.0000
vn -0.9808 0.1951 -0.0000
vn -0.8315 0.5556 -0.0000
vn -0.7601 0.4556 -0.4633
vn 0.1619 0.6448 -0.7470
vn 0.5462 0.6103 0.5738
vn -0.4455 0.5713 0.6893
vn -0.5759 -0.4203 0.7013
vn 0.8091 -0.2328 0.5396
vn 0.5652 -0.0422 -0.8239
vn -0.7303 -0.2017 -0.6527
vn -0.7808 -0.4284 0.4548
vn 0.7948 -0.4361 -0.4221
vn 0.6940 0.5589 -0.4538
vn -0.6967 0.5541 0.4556
vn -0.5462 0.6103 0.5738
vn -0.8091 -0.2328 0.5396
vn 0.7808 -0.4284 0.4548
vn 0.6967 0.5541 0.4556
vn 0.7601 0.4556 -0.4633
vn 0.7303 -0.2017 -0.6527
vn -0.7948 -0.4361 -0.4221
vn -0.6940 0.5589 -0.4538
vn -0.5652 -0.0422 -0.8239
vn 0.5759 -0.4203 0.7013
vn 0.4455 0.5713 0.6893
vn -0.1619 0.6448 -0.7470
vt 0.856495 0.855380
vt 0.891280 0.832929
vt 0.896485 0.859862
vt 0.881790 0.797078
vt 0.836008 0.788484
vt 0.864341 0.767651
vt 0.812402 0.748461
vt 0.821641 0.714908
vt 0.833708 0.727995
vt 0.773692 0.730162
vt 0.752939 0.672175
vt 0.794153 0.693468
vt 0.884614 0.685846
vt 0.841831 0.691292
vt 0.855192 0.655451
vt 0.785256 0.764585
vt 0.761290 0.759018
vt 0.769774 0.740203
vt 0.814408 0.664275
vt 0.779275 0.643624
vt 0.853280 0.714056
vt 0.892530 0.752170
vt 0.908525 0.785388
vt 0.928180 0.849621
vt 0.921976 0.819630
vt 0.899121 0.896156
vt 0.931256 0.870363
vt 0.932620 0.891045
vt 0.851083 0.748728
vt 0.862252 0.725581
vt 0.871942 0.736613
vt 0.777797 0.814366
vt 0.794983 0.778885
vt 0.805804 0.792150
vt 0.895546 0.697944
vt 0.905479 0.710840
vt 0.825781 0.755599
vt 0.844379 0.740069
vt 0.862096 0.875786
vt 0.898069 0.874236
vt 0.899364 0.920829
vt 0.858905 0.896799
vt 0.935760 0.920931
vt 0.755920 0.785277
vt 0.829511 0.770860
vt 0.930271 0.745266
vt 0.798016 0.821584
vt 0.820946 0.809538
vt 0.948296 0.711653
vt 0.945796 0.682050
vt 0.920081 0.651302
vt 0.934801 0.665118
vt 0.790434 0.740338
vt 0.891389 0.643624
vt 0.854107 0.834596
vt 0.928057 0.311381
vt 0.925292 0.300954
vt 0.934976 0.311381
vt 0.918372 0.554745
vt 0.886781 0.482095
vt 0.907890 0.310578
vt 0.794834 0.611679
vt 0.752939 0.618598
vt 0.752939 0.611679
vt 0.794834 0.597448
vt 0.752939 0.597448
vt 0.794834 0.012513
vt 0.752939 0.026744
vt 0.752939 0.012513
vt 0.457204 0.977060
vt 0.454439 0.987487
vt 0.447519 0.987487
vt 0.752939 0.033663
vt 0.794834 0.026744
vt 0.794834 0.033663
vt 0.419940 0.763390
vt 0.457204 0.761907
vt 0.464617 0.948169
vt 0.752939 0.063489
vt 0.794834 0.063489
vt 0.752939 0.070409
vt 0.468628 0.905213
vt 0.471536 0.948169
vt 0.794834 0.070409
vt 0.752939 0.113552
vt 0.752939 0.120471
vt 0.794834 0.113552
vt 0.794834 0.120471
vt 0.939481 0.383228
vt 0.942389 0.340272
vt 0.946400 0.383228
vt 0.752939 0.170953
vt 0.794834 0.170953
vt 0.752939 0.177873
vt 0.939481 0.433710
vt 0.942389 0.484033
vt 0.935469 0.484033
vt 0.794834 0.177873
vt 0.752939 0.228355
vt 0.752939 0.235274
vt 0.794834 0.228355
vt 0.794834 0.235274
vt 0.468628 0.854731
vt 0.471536 0.804408
vt 0.475547 0.854731
vt 0.752939 0.278417
vt 0.794834 0.278417
vt 0.752939 0.285337
vt 0.454439 0.733696
vt 0.464123 0.761906
vt 0.794834 0.285337
vt 0.752939 0.315163
vt 0.752939 0.322082
vt 0.794834 0.315163
vt 0.794834 0.322082
vt 0.928057 0.526534
vt 0.925292 0.554745
vt 0.752939 0.336313
vt 0.794834 0.336313
vt 0.752939 0.350544
vt 0.794834 0.350544
vt 0.752939 0.380370
vt 0.794834 0.380370
vt 0.752939 0.423514
vt 0.794834 0.423514
vt 0.752939 0.473996
vt 0.794834 0.473996
vt 0.752939 0.524478
vt 0.794834 0.524478
vt 0.752939 0.567621
vt 0.794834 0.567621
vt 0.541849 0.734499
vt 0.539083 0.724072
vt 0.548768 0.734499
vt 0.532164 0.977863
vt 0.500573 0.905213
vt 0.521681 0.733696
vt 0.861755 0.611679
vt 0.819860 0.618598
vt 0.819860 0.611679
vt 0.861755 0.597448
vt 0.819860 0.597448
vt 0.861755 0.012513
vt 0.819860 0.026744
vt 0.819860 0.012513
vt 0.928057 0.265501
vt 0.925291 0.275928
vt 0.918372 0.275928
vt 0.819860 0.033663
vt 0.861755 0.026744
vt 0.861755 0.033663
vt 0.890792 0.051831
vt 0.928057 0.050348
vt 0.935469 0.236611
vt 0.819860 0.063489
vt 0.861755 0.063489
vt 0.819860 0.070409
vt 0.939481 0.193654
vt 0.942389 0.236610
vt 0.861755 0.070409
vt 0.819860 0.113552
vt 0.819860 0.120471
vt 0.861755 0.113552
vt 0.861755 0.120471
vt 0.553273 0.806346
vt 0.556181 0.763390
vt 0.560192 0.806346
vt 0.819860 0.170953
vt 0.861755 0.170953
vt 0.819860 0.177872
vt 0.553273 0.856828
vt 0.556181 0.907151
vt 0.549261 0.907151
vt 0.861755 0.177872
vt 0.819860 0.228355
vt 0.819860 0.235274
vt 0.861755 0.228355
vt 0.861755 0.235274
vt 0.939481 0.143172
vt 0.942389 0.092849
vt 0.946400 0.143172
vt 0.819860 0.278417
vt 0.861755 0.278417
vt 0.819860 0.285336
vt 0.925291 0.022137
vt 0.934976 0.050347
vt 0.861755 0.285336
vt 0.819860 0.315163
vt 0.819860 0.322082
vt 0.861755 0.315163
vt 0.861755 0.322082
vt 0.541849 0.949652
vt 0.539083 0.977863
vt 0.819860 0.336313
vt 0.861755 0.350544
vt 0.819860 0.350544
vt 0.819860 0.380370
vt 0.861755 0.380370
vt 0.819860 0.423514
vt 0.861755 0.423514
vt 0.819860 0.473996
vt 0.861755 0.473996
vt 0.819860 0.524478
vt 0.861755 0.524478
vt 0.819860 0.567621
vt 0.861755 0.567621
vt 0.161698 0.398959
vt 0.012513 0.636221
vt 0.012513 0.398959
vt 0.188068 0.012513
vt 0.161698 0.249774
vt 0.161698 0.012513
vt 0.188068 0.636221
vt 0.161698 0.785406
vt 0.161698 0.636221
vt 0.188068 0.398959
vt 0.337253 0.398959
vt 0.188068 0.249774
vt 0.637714 0.355779
vt 0.584433 0.645766
vt 0.584433 0.355779
vt 0.674633 0.012513
vt 0.637714 0.302499
vt 0.637714 0.012513
vt 0.674633 0.645766
vt 0.637714 0.699046
vt 0.637714 0.645766
vt 0.674633 0.355779
vt 0.727913 0.355779
vt 0.674633 0.302499
vt 0.469208 0.355779
vt 0.415928 0.645766
vt 0.415928 0.355779
vt 0.506128 0.012513
vt 0.469208 0.302499
vt 0.469208 0.012513
vt 0.506128 0.645766
vt 0.469208 0.699046
vt 0.469208 0.645766
vt 0.506128 0.355779
vt 0.559408 0.355779
vt 0.506128 0.302499
vt 0.012513 0.829292
vt 0.024949 0.810455
vt 0.043562 0.822937
vt 0.585218 0.724072
vt 0.591452 0.934971
vt 0.585218 0.934971
vt 0.678266 0.724072
vt 0.684501 0.934971
vt 0.678267 0.934971
vt 0.672049 0.724072
vt 0.672049 0.934971
vt 0.376976 0.029030
vt 0.390249 0.027710
vt 0.381587 0.033857
vt 0.362460 0.027920
vt 0.376333 0.012513
vt 0.386771 0.729585
vt 0.385848 0.730309
vt 0.371654 0.034105
vt 0.387742 0.729357
vt 0.387406 0.731978
vt 0.387097 0.732453
vt 0.388636 0.734219
vt 0.387764 0.738028
vt 0.386778 0.734191
vt 0.386866 0.733200
vt 0.385082 0.731528
vt 0.384590 0.733230
vt 0.369984 0.041307
vt 0.370387 0.047539
vt 0.365568 0.049550
vt 0.362279 0.041607
vt 0.591452 0.724072
vt 0.597669 0.934971
vt 0.597669 0.724072
vt 0.603862 0.934971
vt 0.371567 0.052247
vt 0.603862 0.724072
vt 0.610038 0.934971
vt 0.370866 0.057229
vt 0.368562 0.054151
vt 0.384486 0.735403
vt 0.384887 0.738037
vt 0.372923 0.055681
vt 0.386875 0.735354
vt 0.387099 0.736560
vt 0.387374 0.737557
vt 0.385950 0.741144
vt 0.387937 0.744769
vt 0.374353 0.058055
vt 0.375749 0.059447
vt 0.373026 0.059463
vt 0.610038 0.724072
vt 0.616214 0.934971
vt 0.616214 0.724072
vt 0.622408 0.934971
vt 0.622408 0.724072
vt 0.628625 0.934971
vt 0.377087 0.059876
vt 0.375109 0.060810
vt 0.628625 0.724072
vt 0.634859 0.934971
vt 0.378357 0.059344
vt 0.377154 0.061205
vt 0.389777 0.741050
vt 0.390666 0.737906
vt 0.388157 0.737491
vt 0.388468 0.736502
vt 0.388636 0.735361
vt 0.390903 0.735291
vt 0.390700 0.733171
vt 0.379586 0.057853
vt 0.380801 0.055398
vt 0.380999 0.059079
vt 0.379107 0.060626
vt 0.641093 0.724072
vt 0.641093 0.934971
vt 0.647311 0.934971
vt 0.647311 0.724072
vt 0.653504 0.934971
vt 0.385090 0.053478
vt 0.382892 0.056714
vt 0.653504 0.724072
vt 0.659680 0.934971
vt 0.382033 0.051887
vt 0.387948 0.048722
vt 0.390204 0.731524
vt 0.389509 0.730337
vt 0.383128 0.047070
vt 0.388502 0.733207
vt 0.388277 0.732407
vt 0.388031 0.731940
vt 0.388673 0.729612
vt 0.387734 0.731803
vt 0.383347 0.040880
vt 0.390903 0.040915
vt 0.659680 0.724072
vt 0.665856 0.934971
vt 0.665856 0.724072
vt 0.846464 0.810972
vt 0.753586 0.722624
vt 0.757150 0.807085
vt 0.852856 0.922003
vt 0.918372 0.300954
vt 0.935469 0.340272
vt 0.907890 0.564369
vt 0.898205 0.553942
vt 0.890792 0.525052
vt 0.886781 0.431613
vt 0.890792 0.381290
vt 0.898205 0.338789
vt 0.794834 0.618598
vt 0.464123 0.977060
vt 0.437037 0.977863
vt 0.427352 0.949652
vt 0.419940 0.907151
vt 0.415928 0.856828
vt 0.415928 0.806346
vt 0.427352 0.734499
vt 0.437037 0.724072
vt 0.447519 0.733696
vt 0.464617 0.804408
vt 0.475547 0.905213
vt 0.946400 0.433710
vt 0.934976 0.526535
vt 0.532164 0.724072
vt 0.549261 0.763389
vt 0.521681 0.987487
vt 0.511997 0.977060
vt 0.504584 0.948169
vt 0.500573 0.854731
vt 0.504584 0.804408
vt 0.511997 0.761907
vt 0.861755 0.618598
vt 0.934976 0.265501
vt 0.907890 0.266304
vt 0.898205 0.238093
vt 0.890792 0.195592
vt 0.886781 0.145269
vt 0.886781 0.094787
vt 0.898205 0.022940
vt 0.907890 0.012513
vt 0.918372 0.022137
vt 0.935469 0.092849
vt 0.946400 0.193654
vt 0.560192 0.856828
vt 0.548768 0.949652
vt 0.861755 0.336313
vt 0.188068 0.785406
vt 0.337253 0.636221
vt 0.674633 0.699046
vt 0.727913 0.645766
vt 0.506128 0.699046
vt 0.559408 0.645766
vt 0.043562 0.829171
vt 0.041198 0.834940
vt 0.036831 0.839365
vt 0.031125 0.841773
vt 0.024949 0.841797
vt 0.019243 0.839433
vt 0.014876 0.835042
vt 0.012513 0.823057
vt 0.014876 0.817288
vt 0.019243 0.812863
vt 0.031125 0.810431
vt 0.036831 0.812795
vt 0.041198 0.817186
vt 0.684501 0.724072
vt 0.634859 0.724072
s 0
usemtl マテリアル
f 25/1/1 10/2/1 27/3/1
f 36/4/2 8/5/2 11/6/2
f 20/7/3 12/8/3 21/9/3
f 34/10/4 9/11/4 35/12/4
f 40/13/5 5/14/5 33/15/5
f 39/16/6 2/17/6 34/18/6
f 33/19/7 9/11/7 1/20/7
f 23/21/8 12/8/8 5/14/8
f 36/4/9 7/22/9 31/23/9
f 28/24/10 10/2/10 3/25/10
f 24/26/11 13/27/11 19/28/11
f 30/29/12 15/30/12 26/31/12
f 25/32/6 37/33/6 42/34/6
f 26/31/5 38/35/5 41/36/5
f 30/29/13 16/37/13 17/38/13
f 24/26/14 14/39/14 18/40/14
f 9/41/15 22/42/15 24/26/15
f 9/41/16 19/28/16 1/43/16
f 15/30/17 21/9/17 23/21/17
f 37/33/6 22/44/6 39/16/6
f 38/35/5 23/21/5 40/13/5
f 16/37/18 21/9/18 17/38/18
f 11/6/19 29/45/19 30/29/19
f 7/22/5 41/36/5 31/46/5
f 4/47/6 42/34/6 32/48/6
f 11/6/20 26/31/20 7/22/20
f 13/27/21 27/3/21 28/24/21
f 14/39/22 27/3/22 18/40/22
f 8/5/6 42/34/6 29/45/6
f 3/49/5 41/36/5 28/50/5
f 38/35/5 19/51/5 13/52/5
f 37/33/6 20/7/6 16/37/6
f 28/50/5 38/35/5 13/52/5
f 29/45/6 37/33/6 16/37/6
f 3/25/23 36/4/23 31/23/23
f 12/8/24 33/19/24 5/14/24
f 39/16/6 6/53/6 20/7/6
f 40/13/5 1/54/5 19/51/5
f 12/8/25 34/10/25 35/12/25
f 4/55/26 36/4/26 10/2/26
f 44/56/27 47/57/27 48/58/27
f 75/59/27 82/60/27 46/61/27
f 45/62/28 47/63/28 43/64/28
f 90/65/29 43/64/29 46/66/29
f 49/67/30 48/68/30 47/69/30
f 51/70/31 49/71/31 45/72/31
f 44/73/32 50/74/32 51/75/32
f 81/76/31 68/77/31 52/78/31
f 51/75/33 53/79/33 44/73/33
f 52/80/28 56/81/28 53/79/28
f 54/82/31 55/83/31 52/78/31
f 55/84/34 58/85/34 56/81/34
f 59/86/35 57/87/35 54/88/35
f 59/89/27 56/90/27 58/91/27
f 54/88/36 60/92/36 59/86/36
f 61/93/28 63/94/28 60/92/28
f 60/95/27 65/96/27 62/97/27
f 64/98/37 65/99/37 63/94/37
f 62/100/35 66/101/35 67/102/35
f 61/103/31 66/104/31 64/105/31
f 67/102/38 69/106/38 62/100/38
f 68/107/28 72/108/28 69/106/28
f 68/77/31 73/109/31 71/110/31
f 71/111/39 74/112/39 72/108/39
f 75/113/35 73/114/35 70/115/35
f 69/116/27 74/117/27 75/59/27
f 70/115/40 76/118/40 75/113/40
f 77/119/41 78/120/41 76/118/41
f 79/121/42 80/122/42 78/120/42
f 81/123/43 82/124/43 80/122/43
f 83/125/44 84/126/44 82/124/44
f 85/127/45 86/128/45 84/126/45
f 87/129/46 88/130/46 86/128/46
f 89/131/47 46/66/47 88/130/47
f 92/132/27 95/133/27 96/134/27
f 123/135/27 130/136/27 94/137/27
f 93/138/28 95/139/28 91/140/28
f 138/141/29 91/140/29 94/142/29
f 97/143/30 96/144/30 95/145/30
f 99/146/31 97/147/31 93/148/31
f 92/149/35 98/150/35 99/151/35
f 129/152/31 116/153/31 100/154/31
f 99/151/33 101/155/33 92/149/33
f 100/156/28 104/157/28 101/155/28
f 102/158/31 103/159/31 100/154/31
f 103/160/34 106/161/34 104/157/34
f 107/162/35 105/163/35 102/164/35
f 107/165/27 104/166/27 106/167/27
f 102/164/36 108/168/36 107/162/36
f 109/169/28 111/170/28 108/168/28
f 108/171/27 113/172/27 110/173/27
f 112/174/37 113/175/37 111/170/37
f 110/176/35 114/177/35 115/178/35
f 109/179/31 114/180/31 112/181/31
f 115/178/38 117/182/38 110/176/38
f 116/183/28 120/184/28 117/182/28
f 116/153/31 121/185/31 119/186/31
f 119/187/39 122/188/39 120/184/39
f 123/189/35 121/190/35 118/191/35
f 117/192/27 122/193/27 123/135/27
f 118/191/40 124/194/40 123/189/40
f 124/194/41 127/195/41 126/196/41
f 127/195/42 128/197/42 126/196/42
f 129/198/43 130/199/43 128/197/43
f 131/200/44 132/201/44 130/199/44
f 133/202/45 134/203/45 132/201/45
f 135/204/46 136/205/46 134/203/46
f 137/206/47 94/142/47 136/205/47
f 143/207/5 139/208/5 140/209/5
f 141/210/27 140/211/27 139/212/27
f 144/213/48 139/214/48 142/215/48
f 145/216/31 142/215/31 143/207/31
f 146/217/6 144/213/6 145/216/6
f 146/218/49 143/207/49 140/211/49
f 151/219/5 147/220/5 148/221/5
f 149/222/27 148/223/27 147/224/27
f 152/225/48 147/226/48 150/227/48
f 153/228/31 150/227/31 151/219/31
f 154/229/6 152/225/6 153/228/6
f 154/230/49 151/219/49 148/223/49
f 159/231/5 155/232/5 156/233/5
f 157/234/27 156/235/27 155/236/27
f 160/237/48 155/238/48 158/239/48
f 161/240/31 158/239/31 159/231/31
f 162/241/6 160/237/6 161/240/6
f 162/242/49 159/231/49 156/235/49
f 208/243/49 227/244/49 166/245/49
f 165/246/50 164/247/50 163/248/50
f 168/249/51 163/250/51 166/251/51
f 169/252/52 166/251/52 167/253/52
f 170/254/48 169/255/48 171/256/48
f 170/254/48 165/257/48 168/258/48
f 171/256/53 173/259/53 170/254/53
f 170/254/54 175/260/54 172/261/54
f 174/262/52 176/263/52 173/259/52
f 173/259/51 178/264/51 175/260/51
f 217/265/48 198/266/48 180/267/48
f 175/260/50 179/268/50 181/269/50
f 181/269/55 180/267/55 182/270/55
f 172/261/56 181/269/56 183/271/56
f 183/271/57 182/270/57 184/272/57
f 183/271/48 165/257/48 172/261/48
f 183/271/48 186/273/48 185/274/48
f 185/275/55 187/276/55 164/247/55
f 186/277/58 189/278/58 187/276/58
f 191/279/48 186/273/48 184/272/48
f 188/280/59 242/281/59 189/278/59
f 191/279/48 190/282/48 188/283/48
f 184/272/60 193/284/60 191/279/60
f 191/279/61 194/285/61 192/286/61
f 182/270/58 195/287/58 193/284/58
f 193/284/59 196/288/59 194/285/59
f 194/285/62 197/289/62 199/290/62
f 199/290/63 198/266/63 200/291/63
f 192/286/64 199/290/64 201/292/64
f 201/292/65 200/291/65 202/293/65
f 201/292/48 190/282/48 192/286/48
f 202/293/48 203/294/48 201/292/48
f 190/295/62 204/296/62 242/281/62
f 203/297/63 206/298/63 204/296/63
f 205/299/53 208/300/53 206/298/53
f 210/301/48 205/302/48 202/293/48
f 207/303/54 241/304/54 208/300/54
f 211/305/48 207/306/48 210/301/48
f 202/293/52 212/307/52 210/301/52
f 210/301/51 213/308/51 211/305/51
f 200/291/53 214/309/53 212/307/53
f 212/307/54 215/310/54 213/308/54
f 213/308/56 216/311/56 218/312/56
f 218/312/57 217/265/57 219/313/57
f 211/305/50 218/312/50 220/314/50
f 220/314/55 219/313/55 221/315/55
f 211/305/48 222/316/48 209/317/48
f 221/315/48 222/316/48 220/314/48
f 241/304/56 222/318/56 223/319/56
f 222/318/57 225/320/57 223/319/57
f 224/321/60 227/322/60 225/320/60
f 221/315/48 226/323/48 224/324/48
f 226/325/61 240/326/61 227/322/61
f 229/327/48 228/328/48 226/323/48
f 221/315/58 231/329/58 229/327/58
f 229/327/59 232/330/59 230/331/59
f 219/313/60 233/332/60 231/329/60
f 231/329/61 234/333/61 232/330/61
f 232/330/64 235/334/64 236/335/64
f 236/335/65 177/336/65 174/262/65
f 230/331/62 236/335/62 237/337/62
f 237/337/63 174/262/63 171/256/63
f 237/337/48 228/328/48 230/331/48
f 171/256/48 238/338/48 237/337/48
f 228/339/64 239/340/64 240/326/64
f 238/341/65 167/253/65 239/340/65
f 25/1/66 4/55/66 10/2/66
f 36/4/67 32/342/67 8/5/67
f 20/7/68 6/53/68 12/8/68
f 34/10/69 2/343/69 9/11/69
f 40/13/5 23/21/5 5/14/5
f 39/16/6 22/44/6 2/17/6
f 33/19/70 35/12/70 9/11/70
f 23/21/71 21/9/71 12/8/71
f 36/4/72 11/6/72 7/22/72
f 28/24/73 27/3/73 10/2/73
f 24/26/74 18/40/74 13/27/74
f 30/29/75 17/38/75 15/30/75
f 25/32/6 14/344/6 37/33/6
f 26/31/5 15/30/5 38/35/5
f 30/29/76 29/45/76 16/37/76
f 24/26/77 22/42/77 14/39/77
f 9/41/78 2/345/78 22/42/78
f 9/41/79 24/26/79 19/28/79
f 15/30/80 17/38/80 21/9/80
f 37/33/6 14/344/6 22/44/6
f 38/35/5 15/30/5 23/21/5
f 16/37/81 20/7/81 21/9/81
f 11/6/82 8/5/82 29/45/82
f 7/22/5 26/31/5 41/36/5
f 4/47/6 25/32/6 42/34/6
f 11/6/83 30/29/83 26/31/83
f 13/27/84 18/40/84 27/3/84
f 14/39/85 25/1/85 27/3/85
f 8/5/6 32/48/6 42/34/6
f 3/49/5 31/46/5 41/36/5
f 38/35/5 40/13/5 19/51/5
f 37/33/6 39/16/6 20/7/6
f 28/50/5 41/36/5 38/35/5
f 29/45/6 42/34/6 37/33/6
f 3/25/86 10/2/86 36/4/86
f 12/8/87 35/12/87 33/19/87
f 39/16/6 34/18/6 6/53/6
f 40/13/5 33/15/5 1/54/5
f 12/8/88 6/53/88 34/10/88
f 4/55/89 32/342/89 36/4/89
f 44/56/27 43/346/27 47/57/27
f 46/61/27 43/346/27 44/56/27
f 44/56/27 53/347/27 59/89/27
f 59/89/27 60/95/27 62/97/27
f 62/97/27 69/116/27 75/59/27
f 75/59/27 76/348/27 78/349/27
f 78/349/27 80/350/27 82/60/27
f 82/60/27 84/351/27 86/352/27
f 86/352/27 88/353/27 46/61/27
f 46/61/27 44/56/27 59/89/27
f 59/89/27 62/97/27 75/59/27
f 75/59/27 78/349/27 82/60/27
f 82/60/27 86/352/27 46/61/27
f 46/61/27 59/89/27 75/59/27
f 45/62/28 49/354/28 47/63/28
f 90/65/29 45/62/29 43/64/29
f 49/67/30 50/74/30 48/68/30
f 51/70/31 50/355/31 49/71/31
f 44/73/35 48/68/35 50/74/35
f 52/78/31 51/70/31 45/72/31
f 45/72/31 90/356/31 89/357/31
f 89/357/31 87/358/31 85/359/31
f 85/359/31 83/360/31 81/76/31
f 81/76/31 79/361/31 77/362/31
f 77/362/31 70/363/31 68/77/31
f 68/77/31 67/364/31 61/103/31
f 61/103/31 54/82/31 52/78/31
f 52/78/31 45/72/31 89/357/31
f 89/357/31 85/359/31 81/76/31
f 81/76/31 77/362/31 68/77/31
f 68/77/31 61/103/31 52/78/31
f 52/78/31 89/357/31 81/76/31
f 51/75/33 52/80/33 53/79/33
f 52/80/28 55/84/28 56/81/28
f 54/82/31 57/365/31 55/83/31
f 55/84/34 57/87/34 58/85/34
f 59/86/35 58/85/35 57/87/35
f 59/89/27 53/347/27 56/90/27
f 54/88/36 61/93/36 60/92/36
f 61/93/28 64/98/28 63/94/28
f 60/95/27 63/366/27 65/96/27
f 64/98/37 66/101/37 65/99/37
f 62/100/35 65/99/35 66/101/35
f 61/103/31 67/364/31 66/104/31
f 67/102/38 68/107/38 69/106/38
f 68/107/28 71/111/28 72/108/28
f 68/77/31 70/363/31 73/109/31
f 71/111/39 73/114/39 74/112/39
f 75/113/35 74/112/35 73/114/35
f 69/116/27 72/367/27 74/117/27
f 70/115/40 77/119/40 76/118/40
f 77/119/41 79/121/41 78/120/41
f 79/121/42 81/123/42 80/122/42
f 81/123/43 83/125/43 82/124/43
f 83/125/44 85/127/44 84/126/44
f 85/127/45 87/129/45 86/128/45
f 87/129/46 89/131/46 88/130/46
f 89/131/47 90/65/47 46/66/47
f 92/132/27 91/368/27 95/133/27
f 94/137/27 91/368/27 92/132/27
f 92/132/27 101/369/27 107/165/27
f 107/165/27 108/171/27 110/173/27
f 110/173/27 117/192/27 123/135/27
f 123/135/27 124/370/27 126/371/27
f 126/371/27 128/372/27 130/136/27
f 130/136/27 132/373/27 134/374/27
f 134/374/27 136/375/27 94/137/27
f 94/137/27 92/132/27 107/165/27
f 107/165/27 110/173/27 123/135/27
f 123/135/27 126/371/27 130/136/27
f 130/136/27 134/374/27 94/137/27
f 94/137/27 107/165/27 123/135/27
f 93/138/28 97/376/28 95/139/28
f 138/141/29 93/138/29 91/140/29
f 97/143/30 98/150/30 96/144/30
f 99/146/31 98/377/31 97/147/31
f 92/149/35 96/144/35 98/150/35
f 100/154/31 99/146/31 93/148/31
f 93/148/31 138/378/31 137/379/31
f 137/379/31 135/380/31 133/381/31
f 133/381/31 131/382/31 129/152/31
f 129/152/31 127/383/31 125/384/31
f 125/384/31 118/385/31 116/153/31
f 116/153/31 115/386/31 109/179/31
f 109/179/31 102/158/31 100/154/31
f 100/154/31 93/148/31 137/379/31
f 137/379/31 133/381/31 129/152/31
f 129/152/31 125/384/31 116/153/31
f 116/153/31 109/179/31 100/154/31
f 100/154/31 137/379/31 129/152/31
f 99/151/33 100/156/33 101/155/33
f 100/156/28 103/160/28 104/157/28
f 102/158/31 105/387/31 103/159/31
f 103/160/34 105/163/34 106/161/34
f 107/162/35 106/161/35 105/163/35
f 107/165/27 101/369/27 104/166/27
f 102/164/36 109/169/36 108/168/36
f 109/169/28 112/174/28 111/170/28
f 108/171/27 111/388/27 113/172/27
f 112/174/37 114/177/37 113/175/37
f 110/176/35 113/175/35 114/177/35
f 109/179/31 115/386/31 114/180/31
f 115/178/38 116/183/38 117/182/38
f 116/183/28 119/187/28 120/184/28
f 116/153/31 118/385/31 121/185/31
f 119/187/39 121/190/39 122/188/39
f 123/189/32 122/188/32 121/190/32
f 117/192/27 120/389/27 122/193/27
f 118/191/40 125/390/40 124/194/40
f 124/194/41 125/390/41 127/195/41
f 127/195/42 129/198/42 128/197/42
f 129/198/43 131/200/43 130/199/43
f 131/200/44 133/202/44 132/201/44
f 133/202/45 135/204/45 134/203/45
f 135/204/46 137/206/46 136/205/46
f 137/206/47 138/141/47 94/142/47
f 143/207/5 142/215/5 139/208/5
f 141/210/27 146/218/27 140/211/27
f 144/213/48 141/391/48 139/214/48
f 145/216/31 144/213/31 142/215/31
f 146/217/6 141/392/6 144/213/6
f 146/218/49 145/216/49 143/207/49
f 151/219/5 150/227/5 147/220/5
f 149/222/27 154/230/27 148/223/27
f 152/225/48 149/393/48 147/226/48
f 153/228/31 152/225/31 150/227/31
f 154/229/6 149/394/6 152/225/6
f 154/230/49 153/228/49 151/219/49
f 159/231/5 158/239/5 155/232/5
f 157/234/27 162/242/27 156/235/27
f 160/237/48 157/395/48 155/238/48
f 161/240/31 160/237/31 158/239/31
f 162/241/6 157/396/6 160/237/6
f 162/242/49 161/240/49 159/231/49
f 166/245/49 163/397/49 164/398/49
f 164/398/49 187/399/49 189/400/49
f 189/400/49 242/401/49 204/402/49
f 204/402/49 206/403/49 208/243/49
f 208/243/49 241/404/49 223/405/49
f 223/405/49 225/406/49 227/244/49
f 227/244/49 240/407/49 239/408/49
f 239/408/49 167/409/49 166/245/49
f 166/245/49 164/398/49 189/400/49
f 189/400/49 204/402/49 208/243/49
f 208/243/49 223/405/49 227/244/49
f 227/244/49 239/408/49 166/245/49
f 166/245/49 189/400/49 208/243/49
f 165/246/50 185/275/50 164/247/50
f 168/249/51 165/410/51 163/250/51
f 169/252/52 168/249/52 166/251/52
f 170/254/48 168/258/48 169/255/48
f 170/254/48 172/261/48 165/257/48
f 171/256/53 174/262/53 173/259/53
f 170/254/54 173/259/54 175/260/54
f 174/262/52 177/336/52 176/263/52
f 173/259/51 176/263/51 178/264/51
f 180/267/48 179/268/48 178/264/48
f 178/264/48 176/263/48 177/336/48
f 177/336/48 235/334/48 234/333/48
f 234/333/48 233/332/48 217/265/48
f 217/265/48 216/311/48 215/310/48
f 215/310/48 214/309/48 198/266/48
f 198/266/48 197/289/48 196/288/48
f 196/288/48 195/287/48 180/267/48
f 180/267/48 178/264/48 177/336/48
f 177/336/48 234/333/48 217/265/48
f 217/265/48 215/310/48 198/266/48
f 198/266/48 196/288/48 180/267/48
f 180/267/48 177/336/48 217/265/48
f 175/260/50 178/264/50 179/268/50
f 181/269/55 179/268/55 180/267/55
f 172/261/56 175/260/56 181/269/56
f 183/271/57 181/269/57 182/270/57
f 183/271/48 185/274/48 165/257/48
f 183/271/48 184/272/48 186/273/48
f 185/275/55 186/277/55 187/276/55
f 186/277/58 188/280/58 189/278/58
f 191/279/48 188/283/48 186/273/48
f 188/280/59 190/295/59 242/281/59
f 191/279/48 192/286/48 190/282/48
f 184/272/60 182/270/60 193/284/60
f 191/279/61 193/284/61 194/285/61
f 182/270/58 180/267/58 195/287/58
f 193/284/59 195/287/59 196/288/59
f 194/285/62 196/288/62 197/289/62
f 199/290/63 197/289/63 198/266/63
f 192/286/64 194/285/64 199/290/64
f 201/292/65 199/290/65 200/291/65
f 201/292/48 203/294/48 190/282/48
f 202/293/48 205/302/48 203/294/48
f 190/295/62 203/297/62 204/296/62
f 203/297/63 205/299/63 206/298/63
f 205/299/53 207/303/53 208/300/53
f 210/301/48 207/306/48 205/302/48
f 207/303/54 209/411/54 241/304/54
f 211/305/48 209/317/48 207/306/48
f 202/293/52 200/291/52 212/307/52
f 210/301/51 212/307/51 213/308/51
f 200/291/53 198/266/53 214/309/53
f 212/307/54 214/309/54 215/310/54
f 213/308/56 215/310/56 216/311/56
f 218/312/57 216/311/57 217/265/57
f 211/305/50 213/308/50 218/312/50
f 220/314/55 218/312/55 219/313/55
f 211/305/48 220/314/48 222/316/48
f 221/315/48 224/324/48 222/316/48
f 241/304/56 209/411/56 222/318/56
f 222/318/57 224/321/57 225/320/57
f 224/321/60 226/325/60 227/322/60
f 221/315/48 229/327/48 226/323/48
f 226/325/61 228/339/61 240/326/61
f 229/327/48 230/331/48 228/328/48
f 221/315/58 219/313/58 231/329/58
f 229/327/59 231/329/59 232/330/59
f 219/313/60 217/265/60 233/332/60
f 231/329/61 233/332/61 234/333/61
f 232/330/64 234/333/64 235/334/64
f 236/335/65 235/334/65 177/336/65
f 230/331/62 232/330/62 236/335/62
f 237/337/63 236/335/63 174/262/63
f 237/337/48 238/338/48 228/328/48
f 171/256/48 169/255/48 238/338/48
f 228/339/64 238/341/64 239/340/64
f 238/341/65 169/252/65 167/253/65
