# Blender 4.4.3
# www.blender.org
mtllib key.mtl
o key
v -1.633155 -0.651215 -0.250000
v -1.633155 -0.651215 0.250000
v -1.375892 -0.357862 -0.250000
v -1.375892 -0.357862 0.250000
v -1.025949 -0.185289 -0.250000
v -1.025949 -0.185289 0.250000
v -0.636603 -0.159769 -0.250000
v -0.636603 -0.159769 0.250000
v -0.267130 -0.285190 -0.250000
v -0.267130 -0.285190 0.250000
v 0.026224 -0.542452 -0.250000
v 0.026224 -0.542452 0.250000
v 0.198796 -0.892395 -0.250000
v 0.198796 -0.892395 0.250000
v 0.224315 -1.281742 -0.250000
v 0.224315 -1.281742 0.250000
v 0.098895 -1.651215 -0.250000
v 0.098895 -1.651215 0.250000
v -0.158368 -1.944568 -0.250000
v -0.158368 -1.944568 0.250000
v -0.508311 -2.117141 -0.250000
v -0.508311 -2.117141 0.250000
v -0.897657 -2.142662 -0.250000
v -0.897657 -2.142662 0.250000
v -1.267130 -2.017241 -0.250000
v -1.267130 -2.017241 0.250000
v -1.560484 -1.759978 -0.250000
v -1.560484 -1.759978 0.250000
v -1.733056 -1.410035 -0.250000
v -1.733056 -1.410035 0.250000
v -1.758575 -1.020689 -0.250000
v -1.758575 -1.020689 0.250000
v -1.330063 -0.826205 -0.162505
v -1.162838 -0.635523 -0.162505
v -1.162838 -0.635523 0.162505
v -1.330063 -0.826205 0.162505
v -0.935368 -0.523345 -0.162505
v -0.935368 -0.523345 0.162505
v -0.682285 -0.506756 -0.162505
v -0.682285 -0.506756 0.162505
v -0.442122 -0.588284 -0.162505
v -0.442122 -0.588284 0.162505
v -0.251435 -0.755508 -0.162505
v -0.251435 -0.755508 0.162505
v -0.139259 -0.982978 -0.162505
v -0.139259 -0.982978 0.162505
v -0.122673 -1.236062 -0.162505
v -0.122673 -1.236062 0.162505
v -0.204196 -1.476225 -0.162505
v -0.204196 -1.476225 0.162505
v -0.371422 -1.666908 -0.162505
v -0.371422 -1.666908 0.162505
v -0.598892 -1.779086 -0.162505
v -0.598892 -1.779086 0.162505
v -0.851975 -1.795674 -0.162505
v -0.851975 -1.795674 0.162505
v -1.092138 -1.714146 -0.162505
v -1.092138 -1.714146 0.162505
v -1.282825 -1.546922 -0.162505
v -1.282825 -1.546922 0.162505
v -1.395001 -1.319452 -0.162505
v -1.395001 -1.319452 0.162505
v -1.411587 -1.066368 -0.162505
v -1.411587 -1.066368 0.162505
v -0.226074 -0.614078 -0.170000
v -0.572484 -0.414078 -0.170000
v -0.572484 -0.414078 0.170000
v 1.473923 2.330403 0.170000
v 1.473923 2.330403 -0.170000
v -0.226074 -0.614078 0.170000
v 1.127513 2.530403 0.170000
v 1.127513 2.530403 -0.170000
v 1.612291 1.170063 -0.150000
v 1.612291 1.170063 0.150000
v 0.919471 1.570064 -0.150000
v 1.912294 1.689684 0.150000
v 1.912294 1.689684 -0.150000
v 1.219474 2.089684 -0.150000
v 0.919471 1.570064 0.150000
v 1.219474 2.089684 0.150000
v 0.989168 0.490600 -0.150000
v 0.989168 0.490600 0.150000
v 0.469553 0.790600 -0.150000
v 1.289168 1.010214 0.150000
v 1.289168 1.010214 -0.150000
v 0.769552 1.310214 -0.150000
v 0.469553 0.790600 0.150000
v 0.769552 1.310214 0.150000
vn -0.7518 0.6593 -0.0000
vn -0.4423 0.8969 -0.0000
vn -0.0654 0.9979 -0.0000
vn 0.3214 0.9469 -0.0000
vn 0.6593 0.7518 -0.0000
vn 0.8969 0.4423 -0.0000
vn 0.9979 0.0654 -0.0000
vn 0.9469 -0.3214 -0.0000
vn 0.7518 -0.6593 -0.0000
vn 0.4423 -0.8969 -0.0000
vn 0.0654 -0.9979 -0.0000
vn -0.3214 -0.9469 -0.0000
vn -0.6593 -0.7518 -0.0000
vn -0.8969 -0.4423 -0.0000
vn -0.9979 -0.0654 -0.0000
vn -0.9469 0.3214 -0.0000
vn -0.3215 -0.9469 -0.0000
vn 0.3215 0.9469 -0.0000
vn 0.1857 -0.1629 -0.9690
vn -0.1629 -0.1857 0.9690
vn 0.2215 0.1092 0.9690
vn 0.1857 -0.1629 0.9690
vn -0.1092 0.2215 -0.9690
vn -0.1092 0.2215 0.9690
vn -0.2215 -0.1092 -0.9690
vn 0.2465 0.0162 -0.9690
vn -0.2215 -0.1092 0.9690
vn 0.2465 0.0162 0.9690
vn 0.1092 -0.2215 -0.9690
vn -0.0162 0.2465 -0.9690
vn 0.1092 -0.2215 0.9690
vn -0.0162 0.2465 0.9690
vn -0.2465 -0.0162 -0.9690
vn 0.2339 -0.0794 -0.9690
vn -0.2465 -0.0162 0.9690
vn 0.2339 -0.0794 0.9690
vn 0.0162 -0.2465 -0.9690
vn 0.0794 0.2339 -0.9690
vn 0.0162 -0.2465 0.9690
vn 0.0794 0.2339 0.9690
vn -0.2339 0.0794 -0.9690
vn -0.2339 0.0794 0.9690
vn -0.0794 -0.2339 -0.9690
vn 0.1629 0.1857 -0.9690
vn -0.0794 -0.2339 0.9690
vn 0.1629 0.1857 0.9690
vn -0.1857 0.1629 -0.9690
vn -0.1857 0.1629 0.9690
vn -0.1629 -0.1857 -0.9690
vn 0.2215 0.1092 -0.9690
vn -0.0000 -0.0000 -1.0000
vn -0.5000 -0.8660 -0.0000
vn 0.8660 -0.5000 -0.0000
vn -0.0000 -0.0000 1.0000
vn 0.5000 0.8660 -0.0000
vn -0.8660 0.5000 -0.0000
vt 0.555370 0.042005
vt 0.555370 0.008820
vt 0.820850 0.008820
vt 0.555370 0.075190
vt 0.820850 0.042005
vt 0.555370 0.108375
vt 0.820850 0.075190
vt 0.555370 0.141560
vt 0.820850 0.108375
vt 0.555370 0.174745
vt 0.820850 0.141560
vt 0.820850 0.174745
vt 0.820850 0.207930
vt 0.555370 0.241115
vt 0.555370 0.207930
vt 0.555370 0.274300
vt 0.820850 0.241115
vt 0.555370 0.307486
vt 0.820850 0.274300
vt 0.820850 0.307485
vt 0.820850 0.340670
vt 0.555370 0.373856
vt 0.555370 0.340670
vt 0.555370 0.407041
vt 0.820850 0.373856
vt 0.555370 0.440226
vt 0.820850 0.407041
vt 0.820850 0.440226
vt 0.820850 0.473411
vt 0.555370 0.506596
vt 0.555370 0.473411
vt 0.555370 0.539781
vt 0.820850 0.506596
vt 0.820850 0.539781
vt 0.008421 0.359612
vt 0.183944 0.535135
vt 0.008421 0.535135
vt 0.183944 0.008566
vt 0.359467 0.184089
vt 0.183944 0.184089
vt 0.359467 0.008566
vt 0.359467 0.535135
vt 0.359467 0.710658
vt 0.183944 0.710658
vt 0.534990 0.359612
vt 0.534990 0.535135
vt 0.359467 0.359612
vt 0.183944 0.359612
vt 0.686659 0.659465
vt 0.788910 0.659465
vt 0.788910 0.761717
vt 0.379904 0.659465
vt 0.482155 0.761717
vt 0.379904 0.761717
vt 0.584407 0.761717
vt 0.686659 0.863969
vt 0.584407 0.863969
vt 0.686659 0.761717
vt 0.482155 0.659465
vt 0.584407 0.659465
vt 0.584407 0.557214
vt 0.686659 0.557214
vt 0.900271 0.871525
vt 0.900271 0.962982
vt 0.808815 0.962982
vt 0.900271 0.597157
vt 0.808815 0.688613
vt 0.808815 0.597157
vt 0.808815 0.780069
vt 0.717359 0.871525
vt 0.717359 0.780069
vt 0.808815 0.871525
vt 0.900271 0.688613
vt 0.900271 0.780069
vt 0.991728 0.780069
vt 0.991728 0.871525
s 1
usemtl マテリアル
f 3/1/1 1/2/1 2/3/1
f 5/4/2 3/1/2 4/5/2
f 7/6/3 5/4/3 6/7/3
f 9/8/4 7/6/4 8/9/4
f 11/10/5 9/8/5 10/11/5
f 11/10/6 12/12/6 14/13/6
f 15/14/7 13/15/7 14/13/7
f 17/16/8 15/14/8 16/17/8
f 19/18/9 17/16/9 18/19/9
f 19/18/10 20/20/10 22/21/10
f 23/22/11 21/23/11 22/21/11
f 25/24/12 23/22/12 24/25/12
f 27/26/13 25/24/13 26/27/13
f 27/26/14 28/28/14 30/29/14
f 31/30/15 29/31/15 30/29/15
f 1/32/16 31/30/16 32/33/16
f 36/3/9 33/2/9 34/1/9
f 35/5/10 34/1/10 37/4/10
f 37/4/11 39/6/11 40/9/11
f 40/9/17 39/6/17 41/8/17
f 42/11/13 41/8/13 43/10/13
f 43/10/14 45/15/14 46/13/14
f 46/13/15 45/15/15 47/14/15
f 48/17/16 47/14/16 49/16/16
f 50/19/1 49/16/1 51/18/1
f 52/20/2 51/18/2 53/23/2
f 54/21/3 53/23/3 55/22/3
f 56/25/18 55/22/18 57/24/18
f 58/27/5 57/24/5 59/26/5
f 60/28/6 59/26/6 61/31/6
f 62/29/7 61/31/7 63/30/7
f 64/33/8 63/30/8 33/32/8
f 1/2/19 3/1/19 34/1/19
f 10/11/20 42/11/20 44/12/20
f 30/29/21 28/28/21 60/28/21
f 2/3/22 36/3/22 35/5/22
f 19/18/23 21/23/23 53/23/23
f 20/20/24 52/20/24 54/21/24
f 13/15/25 45/15/25 43/10/25
f 31/30/26 63/30/26 61/31/26
f 14/13/27 12/12/27 44/12/27
f 32/33/28 30/29/28 62/29/28
f 3/1/29 5/4/29 37/4/29
f 21/23/30 23/22/30 55/22/30
f 4/5/31 35/5/31 38/7/31
f 22/21/32 54/21/32 56/25/32
f 15/14/33 47/14/33 45/15/33
f 1/32/34 33/32/34 63/30/34
f 16/17/35 14/13/35 46/13/35
f 2/34/36 32/33/36 64/33/36
f 5/4/37 7/6/37 39/6/37
f 25/24/38 57/24/38 55/22/38
f 6/7/39 38/7/39 40/9/39
f 26/27/40 24/25/40 56/25/40
f 17/16/41 49/16/41 47/14/41
f 18/19/42 16/17/42 48/17/42
f 9/8/43 41/8/43 39/6/43
f 25/24/44 27/26/44 59/26/44
f 10/11/45 8/9/45 40/9/45
f 26/27/46 58/27/46 60/28/46
f 17/16/47 19/18/47 51/18/47
f 18/19/48 50/19/48 52/20/48
f 9/8/49 11/10/49 43/10/49
f 29/31/50 61/31/50 59/26/50
f 3/1/1 2/3/1 4/5/1
f 5/4/2 4/5/2 6/7/2
f 7/6/3 6/7/3 8/9/3
f 9/8/4 8/9/4 10/11/4
f 11/10/5 10/11/5 12/12/5
f 11/10/6 14/13/6 13/15/6
f 15/14/7 14/13/7 16/17/7
f 17/16/8 16/17/8 18/19/8
f 19/18/9 18/19/9 20/20/9
f 19/18/10 22/21/10 21/23/10
f 23/22/11 22/21/11 24/25/11
f 25/24/12 24/25/12 26/27/12
f 27/26/13 26/27/13 28/28/13
f 27/26/14 30/29/14 29/31/14
f 31/30/15 30/29/15 32/33/15
f 1/32/16 32/33/16 2/34/16
f 36/3/9 34/1/9 35/5/9
f 35/5/10 37/4/10 38/7/10
f 37/4/11 40/9/11 38/7/11
f 40/9/17 41/8/17 42/11/17
f 42/11/13 43/10/13 44/12/13
f 43/10/14 46/13/14 44/12/14
f 46/13/15 47/14/15 48/17/15
f 48/17/16 49/16/16 50/19/16
f 50/19/1 51/18/1 52/20/1
f 52/20/2 53/23/2 54/21/2
f 54/21/3 55/22/3 56/25/3
f 56/25/18 57/24/18 58/27/18
f 58/27/5 59/26/5 60/28/5
f 60/28/6 61/31/6 62/29/6
f 62/29/7 63/30/7 64/33/7
f 64/33/8 33/32/8 36/34/8
f 1/2/19 34/1/19 33/2/19
f 10/11/20 44/12/20 12/12/20
f 30/29/21 60/28/21 62/29/21
f 2/3/22 35/5/22 4/5/22
f 19/18/23 53/23/23 51/18/23
f 20/20/24 54/21/24 22/21/24
f 13/15/25 43/10/25 11/10/25
f 31/30/26 61/31/26 29/31/26
f 14/13/27 44/12/27 46/13/27
f 32/33/28 62/29/28 64/33/28
f 3/1/29 37/4/29 34/1/29
f 21/23/30 55/22/30 53/23/30
f 4/5/31 38/7/31 6/7/31
f 22/21/32 56/25/32 24/25/32
f 15/14/33 45/15/33 13/15/33
f 1/32/34 63/30/34 31/30/34
f 16/17/35 46/13/35 48/17/35
f 2/34/36 64/33/36 36/34/36
f 5/4/37 39/6/37 37/4/37
f 25/24/38 55/22/38 23/22/38
f 6/7/39 40/9/39 8/9/39
f 26/27/40 56/25/40 58/27/40
f 17/16/41 47/14/41 15/14/41
f 18/19/42 48/17/42 50/19/42
f 9/8/43 39/6/43 7/6/43
f 25/24/44 59/26/44 57/24/44
f 10/11/45 40/9/45 42/11/45
f 26/27/46 60/28/46 28/28/46
f 17/16/47 51/18/47 49/16/47
f 18/19/48 52/20/48 20/20/48
f 9/8/49 43/10/49 41/8/49
f 29/31/50 59/26/50 27/26/50
f 66/35/51 69/36/51 65/37/51
f 65/38/52 67/39/52 66/40/52
f 65/38/52 70/41/52 67/39/52
f 68/42/53 70/43/53 65/44/53
f 68/42/53 65/44/53 69/36/53
f 67/45/54 70/46/54 68/42/54
f 71/47/55 68/42/55 69/36/55
f 71/47/55 69/36/55 72/48/55
f 66/35/51 72/48/51 69/36/51
f 67/39/56 71/47/56 72/48/56
f 67/39/56 72/48/56 66/40/56
f 67/45/54 68/42/54 71/47/54
f 76/49/53 74/50/53 73/51/53
f 74/52/52 75/53/52 73/54/52
f 78/55/51 73/56/51 75/57/51
f 76/49/53 73/51/53 77/58/53
f 78/55/51 77/58/51 73/56/51
f 79/59/56 80/60/56 78/55/56
f 79/59/56 78/55/56 75/53/56
f 78/55/55 76/49/55 77/58/55
f 78/55/55 80/60/55 76/49/55
f 79/61/54 76/49/54 80/60/54
f 74/52/52 79/59/52 75/53/52
f 79/61/54 74/62/54 76/49/54
f 84/63/53 82/64/53 81/65/53
f 82/66/52 83/67/52 81/68/52
f 86/69/51 81/70/51 83/71/51
f 84/63/53 81/65/53 85/72/53
f 86/69/51 85/72/51 81/70/51
f 87/73/56 88/74/56 86/69/56
f 87/73/56 86/69/56 83/67/56
f 86/69/55 84/63/55 85/72/55
f 86/69/55 88/74/55 84/63/55
f 87/75/54 84/63/54 88/74/54
f 82/66/52 87/73/52 83/67/52
f 87/75/54 82/76/54 84/63/54
