# Blender 4.1.1
# www.blender.org
mtllib Boss.mtl
o Boss
v -13.999945 -2.493712 18.974709
v -13.999945 -2.762219 30.974709
v -13.617261 -2.569832 18.974709
v -13.720015 -2.817901 30.974709
v -13.292838 -2.786605 18.974709
v -13.482701 -2.976469 30.974709
v -13.076065 -3.111028 18.974709
v -13.324133 -3.213782 30.974709
v -12.999945 -3.493712 18.974709
v -13.268452 -3.493712 30.974709
v -13.076065 -3.876395 18.974709
v -13.324133 -3.773643 30.974709
v -13.292838 -4.200819 18.974709
v -13.482701 -4.010956 30.974709
v -13.617261 -4.417592 18.974709
v -13.720015 -4.169524 30.974709
v -13.999945 -4.493712 18.974709
v -13.999945 -4.225206 30.974709
v -14.382628 -4.417592 18.974709
v -14.279875 -4.169524 30.974709
v -14.707051 -4.200819 18.974709
v -14.517188 -4.010956 30.974709
v -14.923824 -3.876395 18.974709
v -14.675756 -3.773643 30.974709
v -14.999945 -3.493712 18.974709
v -14.731438 -3.493712 30.974709
v -14.923824 -3.111028 18.974709
v -14.675756 -3.213782 30.974709
v -14.707051 -2.786605 18.974709
v -14.517188 -2.976469 30.974709
v -14.382628 -2.569832 18.974709
v -14.279875 -2.817901 30.974709
v -13.617261 -2.569833 30.974709
v -13.999945 -2.493712 30.974709
v -13.292838 -2.786606 30.974709
v -13.076065 -3.111029 30.974709
v -12.999945 -3.493712 30.974709
v -13.076065 -3.876396 30.974709
v -13.292838 -4.200819 30.974709
v -13.617261 -4.417592 30.974709
v -13.999945 -4.493712 30.974709
v -14.382628 -4.417592 30.974709
v -14.707051 -4.200819 30.974709
v -14.923824 -3.876396 30.974709
v -14.999945 -3.493712 30.974709
v -14.923824 -3.111029 30.974709
v -14.707051 -2.786606 30.974709
v -14.382628 -2.569833 30.974709
v -13.720015 -2.817900 20.802044
v -13.999945 -2.762219 20.802044
v -13.482701 -2.976468 20.802044
v -13.324133 -3.213782 20.802044
v -13.268452 -3.493712 20.802044
v -13.324133 -3.773642 20.802044
v -13.482701 -4.010956 20.802044
v -13.720015 -4.169524 20.802044
v -13.999945 -4.225205 20.802044
v -14.279875 -4.169524 20.802044
v -14.517188 -4.010956 20.802044
v -14.675756 -3.773642 20.802044
v -14.731438 -3.493712 20.802044
v -14.675756 -3.213782 20.802044
v -14.517188 -2.976468 20.802044
v -14.279875 -2.817900 20.802044
v 11.000055 -13.493712 -12.025295
v 17.000055 -13.493712 -12.025295
v 11.000055 -14.078984 -11.737073
v 17.000055 -14.078984 -11.737073
v 11.000055 -14.641764 -10.883487
v 17.000055 -14.641764 -10.883487
v 11.000055 -15.160423 -9.497338
v 17.000055 -15.160425 -9.497338
v 11.000055 -15.615034 -7.631896
v 17.000055 -15.615034 -7.631896
v 11.000055 -15.988123 -5.358848
v 17.000055 -15.988123 -5.358848
v 11.000055 -16.265352 -2.765546
v 17.000055 -16.265352 -2.765546
v 11.000055 -16.436069 0.048351
v 17.000055 -16.436069 0.048351
v 11.000055 -16.493713 2.974706
v 17.000055 -16.493713 2.974706
v 11.000055 -16.436068 5.901061
v 17.000055 -16.436069 5.901061
v 11.000055 -16.265350 8.714958
v 17.000055 -16.265352 8.714958
v 11.000055 -15.988122 11.308259
v 17.000055 -15.988122 11.308259
v 11.000055 -15.615033 13.581307
v 17.000055 -15.615033 13.581307
v 11.000055 -15.160424 15.446751
v 17.000055 -15.160424 15.446751
v 11.000055 -14.641763 16.832901
v 17.000055 -14.641765 16.832901
v 11.000055 -14.078984 17.686485
v 17.000055 -14.078984 17.686485
v 11.000055 -13.493712 17.974707
v 17.000055 -13.493712 17.974707
v 11.000055 -12.908442 17.686485
v 17.000055 -12.908442 17.686485
v 11.000055 -12.345662 16.832901
v 17.000055 -12.345664 16.832901
v 11.000055 -11.827003 15.446751
v 17.000055 -11.827003 15.446751
v 11.000055 -11.372394 13.581307
v 17.000055 -11.372394 13.581307
v 11.000055 -10.999305 11.308259
v 17.000055 -10.999305 11.308259
v 11.000055 -10.722075 8.714959
v 17.000055 -10.722075 8.714959
v 11.000055 -10.551357 5.901061
v 17.000055 -10.551357 5.901061
v 11.000055 -10.493713 2.974707
v 17.000055 -10.493713 2.974707
v 11.000055 -10.551357 0.048351
v 17.000055 -10.551357 0.048351
v 11.000055 -10.722075 -2.765545
v 17.000055 -10.722075 -2.765545
v 11.000055 -10.999304 -5.358848
v 17.000055 -10.999305 -5.358848
v 11.000055 -11.372393 -7.631896
v 17.000055 -11.372393 -7.631896
v 11.000055 -11.827003 -9.497338
v 17.000055 -11.827003 -9.497338
v 11.000055 -12.345663 -10.883487
v 17.000055 -12.345663 -10.883487
v 11.000055 -12.908441 -11.737073
v 17.000055 -12.908442 -11.737073
v -16.999945 -13.493712 -12.025295
v -10.999945 -13.493712 -12.025295
v -16.999945 -14.078984 -11.737073
v -10.999945 -14.078984 -11.737073
v -16.999945 -14.641764 -10.883487
v -10.999945 -14.641764 -10.883487
v -16.999945 -15.160423 -9.497338
v -10.999945 -15.160425 -9.497338
v -16.999945 -15.615034 -7.631896
v -10.999945 -15.615034 -7.631896
v -16.999945 -15.988123 -5.358848
v -10.999945 -15.988123 -5.358848
v -16.999945 -16.265352 -2.765546
v -10.999945 -16.265352 -2.765546
v -16.999945 -16.436069 0.048351
v -10.999945 -16.436069 0.048351
v -16.999945 -16.493713 2.974706
v -10.999945 -16.493713 2.974706
v -16.999945 -16.436068 5.901061
v -10.999945 -16.436069 5.901061
v -16.999945 -16.265350 8.714958
v -10.999945 -16.265352 8.714958
v -16.999945 -15.988122 11.308259
v -10.999945 -15.988122 11.308259
v -16.999945 -15.615033 13.581307
v -10.999945 -15.615033 13.581307
v -16.999945 -15.160424 15.446751
v -10.999945 -15.160424 15.446751
v -16.999945 -14.641763 16.832901
v -10.999945 -14.641765 16.832901
v -16.999945 -14.078984 17.686485
v -10.999945 -14.078984 17.686485
v -16.999945 -13.493712 17.974707
v -10.999945 -13.493712 17.974707
v -16.999945 -12.908442 17.686485
v -10.999945 -12.908442 17.686485
v -16.999945 -12.345662 16.832901
v -10.999945 -12.345664 16.832901
v -16.999945 -11.827003 15.446751
v -10.999945 -11.827003 15.446751
v -16.999945 -11.372394 13.581307
v -10.999945 -11.372394 13.581307
v -16.999945 -10.999305 11.308259
v -10.999945 -10.999305 11.308259
v -16.999945 -10.722075 8.714959
v -10.999945 -10.722075 8.714959
v -16.999945 -10.551357 5.901061
v -10.999945 -10.551357 5.901061
v -16.999945 -10.493713 2.974707
v -10.999945 -10.493713 2.974707
v -16.999945 -10.551357 0.048351
v -10.999945 -10.551357 0.048351
v -16.999945 -10.722075 -2.765545
v -10.999945 -10.722075 -2.765545
v -16.999945 -10.999304 -5.358848
v -10.999945 -10.999305 -5.358848
v -16.999945 -11.372393 -7.631896
v -10.999945 -11.372393 -7.631896
v -16.999945 -11.827003 -9.497338
v -10.999945 -11.827003 -9.497338
v -16.999945 -12.345663 -10.883487
v -10.999945 -12.345663 -10.883487
v -16.999945 -12.908441 -11.737073
v -10.999945 -12.908442 -11.737073
v 10.000055 -13.493712 18.362770
v 10.000055 -0.314896 19.974709
v 10.000055 -13.493712 -12.413359
v 10.000055 -0.314896 -14.025292
v 18.000055 -13.493712 18.362770
v 18.000055 -0.314896 19.974709
v 18.000055 -13.493712 -12.413359
v 18.000055 -0.314896 -14.025292
v -17.999945 -13.493712 18.362770
v -17.999945 -0.314896 19.974709
v -17.999945 -13.493712 -12.413359
v -17.999945 -0.314896 -14.025292
v -9.999945 -13.493712 18.362770
v -9.999945 -0.314896 19.974709
v -9.999945 -13.493712 -12.413359
v -9.999945 -0.314896 -14.025292
v -9.999945 -13.493712 16.974709
v -8.523763 4.130793 14.320683
v -9.999945 -13.493712 -11.025293
v -8.523763 4.130793 -8.371270
v 10.000055 -13.493712 16.974709
v 8.523874 4.130793 14.320683
v 10.000055 -13.493712 -11.025293
v 8.523874 4.130793 -8.371270
v 0.000055 -6.376687 15.033703
v 0.000055 -5.436026 35.027805
v 1.148106 -6.604179 15.053606
v 0.839847 -5.602435 35.042366
v 2.121376 -7.252023 15.110284
v 1.551786 -6.076328 35.083824
v 2.771694 -8.221589 15.195110
v 2.027491 -6.785560 35.145874
v 3.000055 -9.365272 15.295170
v 2.194534 -7.622155 35.219067
v 2.771694 -10.508953 15.395230
v 2.027491 -8.458751 35.292259
v 2.121376 -11.478519 15.480056
v 1.551786 -9.167982 35.354309
v 1.148106 -12.126363 15.536735
v 0.839847 -9.641875 35.395767
v 0.000055 -12.353856 15.556637
v 0.000055 -9.808285 35.410324
v -1.147995 -12.126363 15.536735
v -0.839736 -9.641875 35.395767
v -2.121265 -11.478519 15.480056
v -1.551676 -9.167982 35.354309
v -2.771584 -10.508953 15.395230
v -2.027380 -8.458751 35.292259
v -2.999945 -9.365272 15.295170
v -2.194425 -7.622155 35.219067
v -2.771584 -8.221589 15.195110
v -2.027380 -6.785560 35.145874
v -2.121265 -7.252023 15.110284
v -1.551676 -6.076328 35.083824
v -1.147995 -6.604179 15.053606
v -0.839736 -5.602435 35.042366
v 1.148106 -4.861063 34.977501
v 0.000055 -4.633571 34.957596
v 2.121376 -5.508907 35.034180
v 2.771694 -6.478473 35.119003
v 3.000055 -7.622155 35.219067
v 2.771694 -8.765837 35.319126
v 2.121376 -9.735403 35.403954
v 1.148106 -10.383247 35.460629
v 0.000055 -10.610739 35.480534
v -1.147995 -10.383247 35.460629
v -2.121265 -9.735403 35.403954
v -2.771584 -8.765837 35.319126
v -2.999945 -7.622155 35.219067
v -2.771584 -6.478473 35.119003
v -2.121265 -5.508907 35.034180
v -1.147995 -4.861063 34.977501
v 0.839847 -7.080113 18.152439
v 0.000055 -6.913704 18.137878
v 1.551786 -7.554007 18.193897
v 2.027491 -8.263238 18.255947
v 2.194534 -9.099833 18.329140
v 2.027491 -9.936429 18.402332
v 1.551786 -10.645659 18.464382
v 0.839847 -11.119554 18.505844
v 0.000055 -11.285962 18.520401
v -0.839736 -11.119554 18.505844
v -1.551676 -10.645659 18.464382
v -2.027380 -9.936429 18.402332
v -2.194425 -9.099833 18.329140
v -2.027380 -8.263238 18.255947
v -1.551676 -7.554007 18.193897
v -0.839736 -7.080113 18.152439
v 0.000055 -13.393712 -15.025295
v 0.000055 26.606287 -12.877243
v 3.061523 -13.393712 -14.416332
v 2.239498 26.606287 -12.431787
v 5.656910 -13.393712 -12.682152
v 4.138006 26.606287 -11.163247
v 7.391092 -13.393713 -10.086763
v 5.406548 26.606287 -9.264738
v 8.000055 -13.393713 -7.025297
v 5.852001 26.606287 -7.025295
v 7.391092 -13.393713 -3.963828
v 5.406548 26.606287 -4.785852
v 5.656910 -13.393713 -1.368442
v 4.138006 26.606287 -2.887346
v 3.061523 -13.393713 0.365741
v 2.239498 26.606287 -1.618803
v 0.000055 -13.393713 0.974704
v 0.000055 26.606287 -1.173350
v -3.061413 -13.393713 0.365741
v -2.239388 26.606287 -1.618803
v -5.656799 -13.393713 -1.368442
v -4.137896 26.606287 -2.887346
v -7.390981 -13.393713 -3.963828
v -5.406437 26.606287 -4.785852
v -7.999945 -13.393713 -7.025297
v -5.851891 26.606287 -7.025295
v -7.390981 -13.393713 -10.086763
v -5.406437 26.606287 -9.264738
v -5.656799 -13.393712 -12.682152
v -4.137896 26.606287 -11.163247
v -3.061413 -13.393712 -14.416332
v -2.239388 26.606287 -12.431787
v 3.061523 26.606287 -14.416333
v 0.000055 26.606287 -15.025296
v 5.656910 26.606287 -12.682150
v 7.391092 26.606287 -10.086764
v 8.000055 26.606287 -7.025295
v 7.391092 26.606287 -3.963829
v 5.656910 26.606287 -1.368440
v 3.061523 26.606287 0.365740
v 0.000055 26.606287 0.974703
v -3.061413 26.606287 0.365740
v -5.656799 26.606287 -1.368440
v -7.390981 26.606287 -3.963829
v -7.999945 26.606287 -7.025295
v -7.390981 26.606287 -10.086764
v -5.656799 26.606287 -12.682150
v -3.061413 26.606287 -14.416333
v 2.239498 5.585780 -12.431788
v 0.000055 5.585780 -12.877241
v 4.138006 5.585780 -11.163245
v 5.406548 5.585780 -9.264739
v 5.852001 5.585780 -7.025296
v 5.406548 5.585780 -4.785853
v 4.138006 5.585780 -2.887347
v 2.239498 5.585780 -1.618804
v 0.000055 5.585780 -1.173351
v -2.239388 5.585780 -1.618804
v -4.137896 5.585780 -2.887347
v -5.406437 5.585780 -4.785853
v -5.851891 5.585780 -7.025296
v -5.406437 5.585780 -9.264739
v -4.137896 5.585780 -11.163245
v -2.239388 5.585780 -12.431788
v -7.999945 3.506287 11.974706
v -6.818999 10.556089 10.268546
v -7.999945 3.506287 -6.025294
v -6.818999 10.556089 -4.319134
v 8.000055 3.506287 11.974706
v 6.819109 10.556089 10.268546
v 8.000055 3.506287 -6.025294
v 6.819109 10.556089 -4.319134
v 14.000055 -2.493713 18.974709
v 14.000055 -2.762220 30.974709
v 14.382738 -2.569833 18.974709
v 14.279985 -2.817902 30.974709
v 14.707163 -2.786606 18.974709
v 14.517300 -2.976470 30.974709
v 14.923935 -3.111029 18.974709
v 14.675867 -3.213783 30.974709
v 15.000055 -3.493713 18.974709
v 14.731548 -3.493713 30.974709
v 14.923935 -3.876396 18.974709
v 14.675867 -3.773644 30.974709
v 14.707163 -4.200819 18.974709
v 14.517300 -4.010957 30.974709
v 14.382738 -4.417593 18.974709
v 14.279985 -4.169525 30.974709
v 14.000055 -4.493713 18.974709
v 14.000055 -4.225207 30.974709
v 13.617373 -4.417593 18.974709
v 13.720125 -4.169525 30.974709
v 13.292948 -4.200819 18.974709
v 13.482811 -4.010957 30.974709
v 13.076176 -3.876396 18.974709
v 13.324244 -3.773644 30.974709
v 13.000055 -3.493713 18.974709
v 13.268562 -3.493713 30.974709
v 13.076176 -3.111029 18.974709
v 13.324244 -3.213783 30.974709
v 13.292948 -2.786606 18.974709
v 13.482811 -2.976470 30.974709
v 13.617373 -2.569833 18.974709
v 13.720125 -2.817902 30.974709
v 14.382738 -2.569834 30.974709
v 14.000055 -2.493713 30.974709
v 14.707163 -2.786607 30.974709
v 14.923935 -3.111030 30.974709
v 15.000055 -3.493713 30.974709
v 14.923935 -3.876397 30.974709
v 14.707163 -4.200820 30.974709
v 14.382738 -4.417593 30.974709
v 14.000055 -4.493713 30.974709
v 13.617373 -4.417593 30.974709
v 13.292948 -4.200820 30.974709
v 13.076176 -3.876397 30.974709
v 13.000055 -3.493713 30.974709
v 13.076176 -3.111030 30.974709
v 13.292948 -2.786607 30.974709
v 13.617373 -2.569834 30.974709
v 14.279985 -2.817901 20.802044
v 14.000055 -2.762220 20.802044
v 14.517300 -2.976469 20.802044
v 14.675867 -3.213783 20.802044
v 14.731548 -3.493713 20.802044
v 14.675867 -3.773643 20.802044
v 14.517300 -4.010957 20.802044
v 14.279985 -4.169525 20.802044
v 14.000055 -4.225206 20.802044
v 13.720125 -4.169525 20.802044
v 13.482811 -4.010957 20.802044
v 13.324244 -3.773643 20.802044
v 13.268562 -3.493713 20.802044
v 13.324244 -3.213783 20.802044
v 13.482811 -2.976469 20.802044
v 13.720125 -2.817901 20.802044
v -17.999945 -10.493713 12.974708
v -17.999945 -9.728347 13.126948
v -17.999945 -9.079499 13.560493
v -17.999945 -8.645954 14.209339
v -17.999945 -8.493713 14.974707
v -17.999945 -8.645954 15.740074
v -17.999945 -9.079499 16.388920
v -17.999945 -9.728347 16.822466
v -17.999945 -10.493713 16.974707
v -17.999945 -11.259080 16.822466
v -17.999945 -11.907928 16.388920
v -17.999945 -12.341472 15.740074
v -17.999945 -12.493712 14.974706
v -17.999945 -12.341472 14.209340
v -17.999945 -11.907928 13.560493
v -17.999945 -11.259080 13.126947
v -21.999945 -10.493713 14.974707
v -17.999945 -10.493713 4.974708
v -17.999945 -9.728346 5.126948
v -17.999945 -9.079499 5.560493
v -17.999945 -8.645954 6.209341
v -17.999945 -8.493713 6.974707
v -17.999945 -8.645954 7.740074
v -17.999945 -9.079499 8.388922
v -17.999945 -9.728346 8.822466
v -17.999945 -10.493713 8.974707
v -17.999945 -11.259079 8.822465
v -17.999945 -11.907927 8.388921
v -17.999945 -12.341473 7.740074
v -17.999945 -12.493713 6.974707
v -17.999945 -12.341473 6.209341
v -17.999945 -11.907927 5.560493
v -17.999945 -11.259080 5.126948
v -21.999945 -10.493713 6.974707
v -17.999945 -10.493713 -3.025295
v -17.999945 -9.728346 -2.873054
v -17.999945 -9.079499 -2.439506
v -17.999945 -8.645954 -1.790660
v -17.999945 -8.493713 -1.025294
v -17.999945 -8.645954 -0.259927
v -17.999945 -9.079499 0.388918
v -17.999945 -9.728346 0.822466
v -17.999945 -10.493713 0.974707
v -17.999945 -11.259079 0.822466
v -17.999945 -11.907927 0.388918
v -17.999945 -12.341473 -0.259927
v -17.999945 -12.493713 -1.025294
v -17.999945 -12.341473 -1.790661
v -17.999945 -11.907927 -2.439506
v -17.999945 -11.259080 -2.873054
v -21.999945 -10.493713 -1.025294
v -17.999945 -10.493712 -11.025295
v -17.999945 -9.728346 -10.873055
v -17.999945 -9.079500 -10.439509
v -17.999945 -8.645954 -9.790661
v -17.999945 -8.493713 -9.025294
v -17.999945 -8.645954 -8.259928
v -17.999945 -9.079500 -7.611083
v -17.999945 -9.728346 -7.177535
v -17.999945 -10.493713 -7.025294
v -17.999945 -11.259081 -7.177535
v -17.999945 -11.907927 -7.611080
v -17.999945 -12.341473 -8.259929
v -17.999945 -12.493713 -9.025295
v -17.999945 -12.341473 -9.790662
v -17.999945 -11.907927 -10.439507
v -17.999945 -11.259081 -10.873055
v -21.999945 -10.493713 -9.025294
v 18.000055 -10.493712 -11.025292
v 18.000055 -11.259081 -10.873053
v 18.000055 -11.907927 -10.439505
v 18.000055 -12.341473 -9.790659
v 18.000055 -12.493713 -9.025292
v 18.000055 -12.341473 -8.259926
v 18.000055 -11.907927 -7.611080
v 18.000055 -11.259081 -7.177532
v 18.000055 -10.493713 -7.025291
v 18.000055 -9.728346 -7.177532
v 18.000055 -9.079500 -7.611080
v 18.000055 -8.645954 -8.259925
v 18.000055 -8.493713 -9.025291
v 18.000055 -8.645954 -9.790658
v 18.000055 -9.079500 -10.439504
v 18.000055 -9.728346 -10.873052
v 22.000055 -10.493713 -9.025291
v 18.000055 -10.493713 -3.025295
v 18.000055 -11.259080 -2.873054
v 18.000055 -11.907927 -2.439506
v 18.000055 -12.341473 -1.790661
v 18.000055 -12.493713 -1.025294
v 18.000055 -12.341473 -0.259927
v 18.000055 -11.907927 0.388918
v 18.000055 -11.259079 0.822466
v 18.000055 -10.493713 0.974707
v 18.000055 -9.728346 0.822466
v 18.000055 -9.079499 0.388918
v 18.000055 -8.645954 -0.259927
v 18.000055 -8.493713 -1.025294
v 18.000055 -8.645954 -1.790660
v 18.000055 -9.079499 -2.439506
v 18.000055 -9.728346 -2.873054
v 22.000055 -10.493713 -1.025294
v 18.000055 -10.493713 4.974708
v 18.000055 -11.259080 5.126948
v 18.000055 -11.907927 5.560493
v 18.000055 -12.341473 6.209341
v 18.000055 -12.493713 6.974707
v 18.000055 -12.341473 7.740074
v 18.000055 -11.907927 8.388921
v 18.000055 -11.259079 8.822465
v 18.000055 -10.493713 8.974707
v 18.000055 -9.728346 8.822466
v 18.000055 -9.079499 8.388922
v 18.000055 -8.645954 7.740074
v 18.000055 -8.493713 6.974707
v 18.000055 -8.645954 6.209341
v 18.000055 -9.079499 5.560493
v 18.000055 -9.728346 5.126948
v 22.000055 -10.493713 6.974707
v 18.000055 -10.493713 12.974707
v 18.000055 -11.259080 13.126946
v 18.000055 -11.907928 13.560493
v 18.000055 -12.341472 14.209338
v 18.000055 -12.493712 14.974705
v 18.000055 -12.341472 15.740073
v 18.000055 -11.907928 16.388920
v 18.000055 -11.259080 16.822466
v 18.000055 -10.493713 16.974707
v 18.000055 -9.728347 16.822466
v 18.000055 -9.079499 16.388920
v 18.000055 -8.645954 15.740072
v 18.000055 -8.493713 14.974706
v 18.000055 -8.645954 14.209339
v 18.000055 -9.079499 13.560493
v 18.000055 -9.728347 13.126947
v 22.000055 -10.493713 14.974706
v -13.999945 -12.493712 -12.525293
v -13.234578 -12.341472 -12.525293
v -12.585732 -11.907926 -12.525293
v -12.152185 -11.259080 -12.525293
v -11.999945 -10.493712 -12.525292
v -12.152185 -9.728346 -12.525292
v -12.585732 -9.079499 -12.525292
v -13.234578 -8.645953 -12.525292
v -13.999945 -8.493712 -12.525292
v -14.765311 -8.645953 -12.525292
v -15.414158 -9.079499 -12.525292
v -15.847704 -9.728346 -12.525292
v -15.999945 -10.493712 -12.525292
v -15.847704 -11.259080 -12.525293
v -15.414158 -11.907926 -12.525293
v -14.765311 -12.341472 -12.525293
v -13.999945 -10.493712 -16.525295
v 14.000055 -12.493712 -12.525293
v 14.765423 -12.341472 -12.525293
v 15.414268 -11.907926 -12.525293
v 15.847815 -11.259080 -12.525293
v 16.000055 -10.493712 -12.525292
v 15.847815 -9.728346 -12.525292
v 15.414268 -9.079499 -12.525292
v 14.765423 -8.645953 -12.525292
v 14.000055 -8.493712 -12.525292
v 13.234688 -8.645953 -12.525292
v 12.585842 -9.079499 -12.525292
v 12.152296 -9.728346 -12.525292
v 12.000055 -10.493712 -12.525292
v 12.152296 -11.259080 -12.525293
v 12.585842 -11.907926 -12.525293
v 13.234688 -12.341472 -12.525293
v 14.000055 -10.493712 -16.525295
v -13.999945 -8.493712 18.474707
v -13.234578 -8.645953 18.474707
v -12.585732 -9.079499 18.474707
v -12.152185 -9.728346 18.474707
v -11.999945 -10.493712 18.474707
v -12.152185 -11.259080 18.474707
v -12.585732 -11.907926 18.474707
v -13.234578 -12.341472 18.474707
v -13.999945 -12.493712 18.474707
v -14.765311 -12.341472 18.474707
v -15.414158 -11.907926 18.474707
v -15.847704 -11.259080 18.474707
v -15.999945 -10.493712 18.474707
v -15.847704 -9.728346 18.474707
v -15.414158 -9.079499 18.474707
v -14.765311 -8.645953 18.474707
v -13.999945 -10.493712 22.474707
v 14.000055 -8.493712 18.474707
v 14.765423 -8.645953 18.474707
v 15.414268 -9.079499 18.474707
v 15.847815 -9.728346 18.474707
v 16.000055 -10.493712 18.474707
v 15.847815 -11.259080 18.474707
v 15.414268 -11.907926 18.474707
v 14.765423 -12.341472 18.474707
v 14.000055 -12.493712 18.474707
v 13.234688 -12.341472 18.474707
v 12.585842 -11.907926 18.474707
v 12.152296 -11.259080 18.474707
v 12.000055 -10.493712 18.474707
v 12.152296 -9.728346 18.474707
v 12.585842 -9.079499 18.474707
v 13.234688 -8.645953 18.474707
v 14.000055 -10.493712 22.474707
vn 0.1951 0.9808 -0.0000
vn 0.5556 0.8315 -0.0000
vn 0.8315 0.5556 -0.0000
vn 0.9808 0.1951 -0.0000
vn 0.9808 -0.1951 -0.0000
vn 0.8315 -0.5556 -0.0000
vn 0.5556 -0.8315 -0.0000
vn 0.1951 -0.9808 -0.0000
vn -0.1951 -0.9808 -0.0000
vn -0.5556 -0.8315 -0.0000
vn -0.8315 -0.5556 -0.0000
vn -0.9808 -0.1951 -0.0000
vn -0.9808 0.1951 -0.0000
vn -0.8315 0.5556 -0.0000
vn -0.5556 0.8315 -0.0000
vn -0.1951 0.9808 -0.0000
vn -0.0000 -0.0000 -1.0000
vn -0.0000 -0.0000 1.0000
vn -0.0000 -0.4418 -0.8971
vn -0.0000 -0.8349 -0.5504
vn -0.0000 -0.9366 -0.3504
vn -0.0000 -0.9716 -0.2368
vn -0.0000 -0.9868 -0.1620
vn -0.0000 -0.9943 -0.1063
vn -0.0000 -0.9982 -0.0606
vn -0.0000 -0.9998 -0.0197
vn -0.0000 -0.9998 0.0197
vn -0.0000 -0.9982 0.0606
vn -0.0000 -0.9943 0.1063
vn -0.0000 -0.9868 0.1620
vn -0.0000 -0.9716 0.2368
vn -0.0000 -0.9366 0.3504
vn -0.0000 -0.8349 0.5504
vn -0.0000 -0.4418 0.8971
vn -0.0000 0.4418 0.8971
vn -0.0000 0.8349 0.5504
vn -0.0000 0.9366 0.3504
vn -0.0000 0.9716 0.2368
vn -0.0000 0.9868 0.1620
vn -0.0000 0.9943 0.1063
vn -0.0000 0.9982 0.0606
vn -0.0000 0.9998 0.0197
vn -0.0000 0.9998 -0.0197
vn -0.0000 0.9982 -0.0606
vn -0.0000 0.9943 -0.1063
vn -0.0000 0.9868 -0.1620
vn -0.0000 0.9716 -0.2368
vn -0.0000 0.9366 -0.3504
vn 1.0000 -0.0000 -0.0000
vn -0.0000 0.8349 -0.5504
vn -0.0000 0.4418 -0.8971
vn -1.0000 -0.0000 -0.0000
vn -0.0000 -0.1214 -0.9926
vn -0.0000 -0.1214 0.9926
vn -0.0000 -1.0000 -0.0000
vn -0.0000 1.0000 -0.0000
vn -0.9965 0.0835 -0.0000
vn -0.0000 0.1489 -0.9889
vn 0.9965 0.0835 -0.0000
vn -0.0000 0.1489 0.9889
vn 0.1951 0.9771 -0.0855
vn 0.5556 0.8283 -0.0725
vn 0.8315 0.5535 -0.0484
vn 0.9808 0.1943 -0.0170
vn 0.9808 -0.1943 0.0170
vn 0.8315 -0.5535 0.0484
vn 0.5556 -0.8283 0.0725
vn 0.1951 -0.9771 0.0855
vn -0.1951 -0.9771 0.0855
vn -0.5556 -0.8283 0.0725
vn -0.8315 -0.5535 0.0484
vn -0.9808 -0.1943 0.0170
vn -0.9808 0.1943 -0.0170
vn -0.8315 0.5535 -0.0484
vn -0.5556 0.8283 -0.0725
vn -0.1951 0.9771 -0.0855
vn -0.0000 -0.0872 -0.9962
vn -0.0000 0.0872 0.9962
vn -0.0000 0.0871 0.9962
vn 0.1951 -0.0000 -0.9808
vn 0.5556 -0.0000 -0.8315
vn 0.8315 -0.0000 -0.5556
vn 0.9808 -0.0000 -0.1951
vn 0.9808 -0.0000 0.1951
vn 0.8315 -0.0000 0.5556
vn 0.5556 -0.0000 0.8315
vn 0.1951 -0.0000 0.9808
vn -0.1951 -0.0000 0.9808
vn -0.5556 -0.0000 0.8315
vn -0.8315 -0.0000 0.5556
vn -0.9808 -0.0000 0.1951
vn -0.9808 -0.0000 -0.1951
vn -0.8315 -0.0000 -0.5556
vn -0.5556 -0.0000 -0.8315
vn -0.1951 -0.0000 -0.9808
vn -0.9863 0.1652 -0.0000
vn -0.0000 0.2352 -0.9719
vn 0.9863 0.1652 -0.0000
vn -0.0000 0.2352 0.9719
vn -0.4403 0.1752 -0.8806
vn -0.4403 0.4988 -0.7465
vn -0.4403 0.7465 -0.4988
vn -0.4403 0.8806 -0.1752
vn -0.4403 0.8806 0.1752
vn -0.4403 0.7465 0.4988
vn -0.4403 0.4988 0.7465
vn -0.4403 0.1752 0.8806
vn -0.4403 -0.1752 0.8806
vn -0.4403 -0.4988 0.7465
vn -0.4403 -0.7465 0.4988
vn -0.4403 -0.8806 0.1752
vn -0.4403 -0.8806 -0.1752
vn -0.4403 -0.7465 -0.4988
vn -0.4403 -0.4988 -0.7465
vn -0.4403 -0.1752 -0.8806
vn 0.4403 -0.1752 -0.8806
vn 0.4403 -0.4988 -0.7465
vn 0.4403 -0.7465 -0.4988
vn 0.4403 -0.8806 -0.1752
vn 0.4403 -0.8806 0.1752
vn 0.4403 -0.7465 0.4988
vn 0.4403 -0.4988 0.7465
vn 0.4403 -0.1752 0.8806
vn 0.4403 0.1752 0.8806
vn 0.4403 0.4988 0.7465
vn 0.4403 0.7465 0.4988
vn 0.4403 0.8806 0.1752
vn 0.4403 0.8806 -0.1752
vn 0.4403 0.7465 -0.4988
vn 0.4403 0.4988 -0.7465
vn 0.4403 0.1752 -0.8806
vn 0.1752 -0.8806 -0.4403
vn 0.4988 -0.7465 -0.4403
vn 0.7465 -0.4988 -0.4403
vn 0.8806 -0.1752 -0.4403
vn 0.8806 0.1752 -0.4403
vn 0.7465 0.4988 -0.4403
vn 0.4988 0.7465 -0.4403
vn 0.1752 0.8806 -0.4403
vn -0.1752 0.8806 -0.4403
vn -0.4988 0.7465 -0.4403
vn -0.7465 0.4988 -0.4403
vn -0.8806 0.1752 -0.4403
vn -0.8806 -0.1752 -0.4403
vn -0.7465 -0.4988 -0.4403
vn -0.4988 -0.7465 -0.4403
vn -0.1752 -0.8806 -0.4403
vn 0.1752 0.8806 0.4403
vn 0.4988 0.7465 0.4403
vn 0.7465 0.4988 0.4403
vn 0.8806 0.1752 0.4403
vn 0.8806 -0.1752 0.4403
vn 0.7465 -0.4988 0.4403
vn 0.4988 -0.7465 0.4403
vn 0.1752 -0.8806 0.4403
vn -0.1752 -0.8806 0.4403
vn -0.4988 -0.7465 0.4403
vn -0.7465 -0.4988 0.4403
vn -0.8806 -0.1752 0.4403
vn -0.8806 0.1752 0.4403
vn -0.7465 0.4988 0.4403
vn -0.4988 0.7465 0.4403
vn -0.1752 0.8806 0.4403
vt 0.142206 0.017919
vt 0.144427 0.086215
vt 0.142206 0.086215
vt 0.144427 0.017919
vt 0.146647 0.086215
vt 0.146647 0.017919
vt 0.148868 0.086215
vt 0.148868 0.017919
vt 0.151089 0.086215
vt 0.151089 0.017919
vt 0.153309 0.086215
vt 0.153309 0.017919
vt 0.155530 0.086215
vt 0.155530 0.017919
vt 0.157751 0.086215
vt 0.157751 0.017919
vt 0.159971 0.086215
vt 0.159971 0.017919
vt 0.162192 0.086215
vt 0.162192 0.017919
vt 0.164412 0.086215
vt 0.164412 0.017919
vt 0.166633 0.086215
vt 0.166633 0.017919
vt 0.168854 0.086215
vt 0.168854 0.017919
vt 0.171075 0.086215
vt 0.171075 0.017919
vt 0.173295 0.086215
vt 0.219533 0.566417
vt 0.222336 0.300031
vt 0.222834 0.299257
vt 0.173295 0.017919
vt 0.175516 0.086215
vt 0.175516 0.017919
vt 0.177736 0.086215
vt 0.381448 0.032667
vt 0.385920 0.025975
vt 0.392612 0.030447
vt 0.219741 0.578748
vt 0.217516 0.577456
vt 0.219302 0.576418
vt 0.220198 0.576439
vt 0.219532 0.579633
vt 0.220672 0.573929
vt 0.221929 0.577527
vt 0.222688 0.571452
vt 0.222834 0.574299
vt 0.220834 0.569642
vt 0.220852 0.571575
vt 0.221651 0.567779
vt 0.222238 0.569344
vt 0.220659 0.568133
vt 0.221064 0.566694
vt 0.220417 0.567070
vt 0.220463 0.566027
vt 0.219837 0.566217
vt 0.220135 0.566432
vt 0.219857 0.565809
vt 0.219240 0.567040
vt 0.219232 0.566010
vt 0.218013 0.567670
vt 0.218601 0.566643
vt 0.218775 0.569583
vt 0.218990 0.568081
vt 0.216848 0.571350
vt 0.217366 0.569237
vt 0.218717 0.571529
vt 0.216682 0.574189
vt 0.218872 0.573875
vt 0.220524 0.300453
vt 0.219347 0.297379
vt 0.219457 0.298565
vt 0.222827 0.298518
vt 0.219664 0.299446
vt 0.222740 0.297501
vt 0.220070 0.300111
vt 0.222382 0.296406
vt 0.221912 0.295064
vt 0.221152 0.300634
vt 0.221153 0.292954
vt 0.221783 0.300476
vt 0.220361 0.294612
vt 0.219788 0.296120
vt 0.767981 0.742779
vt 0.764268 0.708631
vt 0.767981 0.708631
vt 0.764268 0.742779
vt 0.758449 0.708631
vt 0.758449 0.742779
vt 0.750026 0.708631
vt 0.750026 0.742779
vt 0.739098 0.708631
vt 0.739098 0.742779
vt 0.725988 0.708631
vt 0.725988 0.742779
vt 0.711145 0.708631
vt 0.711145 0.742779
vt 0.695100 0.708631
vt 0.695100 0.742779
vt 0.678442 0.708631
vt 0.678442 0.742779
vt 0.661784 0.708631
vt 0.661784 0.742779
vt 0.645740 0.708631
vt 0.645740 0.742779
vt 0.630896 0.708631
vt 0.630896 0.742779
vt 0.617786 0.708631
vt 0.617786 0.742779
vt 0.606859 0.708631
vt 0.606859 0.742779
vt 0.598435 0.708631
vt 0.598435 0.742779
vt 0.592616 0.708631
vt 0.592616 0.742779
vt 0.588903 0.708631
vt 0.588903 0.742779
vt 0.585191 0.708631
vt 0.579372 0.742779
vt 0.579372 0.708631
vt 0.570948 0.708631
vt 0.570948 0.742779
vt 0.560021 0.708631
vt 0.560021 0.742779
vt 0.546911 0.708631
vt 0.546911 0.742779
vt 0.532067 0.708631
vt 0.532067 0.742779
vt 0.516023 0.708631
vt 0.516023 0.742779
vt 0.499365 0.708631
vt 0.499365 0.742779
vt 0.482707 0.708631
vt 0.482707 0.742779
vt 0.466662 0.708631
vt 0.466662 0.742779
vt 0.451819 0.708631
vt 0.438709 0.742779
vt 0.438709 0.708631
vt 0.427781 0.708631
vt 0.427781 0.742779
vt 0.419358 0.708631
vt 0.230926 0.797008
vt 0.277558 0.775613
vt 0.388896 0.787049
vt 0.419358 0.742779
vt 0.413539 0.708631
vt 0.413539 0.742779
vt 0.409826 0.708631
vt 0.433180 0.802313
vt 0.499847 0.780919
vt 0.600476 0.792354
vt 0.375369 0.734821
vt 0.371656 0.700673
vt 0.375369 0.700673
vt 0.371656 0.734821
vt 0.365837 0.700673
vt 0.365837 0.734821
vt 0.357414 0.700673
vt 0.357414 0.734821
vt 0.346486 0.700673
vt 0.346486 0.734821
vt 0.333376 0.700673
vt 0.333376 0.734821
vt 0.318533 0.700673
vt 0.318533 0.734821
vt 0.302488 0.700673
vt 0.302488 0.734821
vt 0.285830 0.700673
vt 0.285830 0.734821
vt 0.269172 0.700673
vt 0.269172 0.734821
vt 0.253128 0.700673
vt 0.253128 0.734821
vt 0.238284 0.700673
vt 0.238284 0.734821
vt 0.225174 0.700673
vt 0.225174 0.734821
vt 0.214247 0.700673
vt 0.214247 0.734821
vt 0.205823 0.700673
vt 0.205823 0.734821
vt 0.200005 0.700673
vt 0.200005 0.734821
vt 0.196292 0.700673
vt 0.196292 0.734821
vt 0.192579 0.700673
vt 0.186760 0.734821
vt 0.186760 0.700673
vt 0.178336 0.700673
vt 0.178336 0.734821
vt 0.167409 0.700673
vt 0.167409 0.734821
vt 0.154299 0.700673
vt 0.154299 0.734821
vt 0.139455 0.700673
vt 0.139455 0.734821
vt 0.123411 0.700673
vt 0.123411 0.734821
vt 0.106753 0.700673
vt 0.106753 0.734821
vt 0.090095 0.700673
vt 0.090095 0.734821
vt 0.074050 0.700673
vt 0.074050 0.734821
vt 0.059207 0.700673
vt 0.046097 0.734821
vt 0.046097 0.700673
vt 0.035169 0.700673
vt 0.035169 0.734821
vt 0.026746 0.700673
vt 0.024008 0.794355
vt 0.070641 0.772961
vt 0.181979 0.784396
vt 0.026746 0.734821
vt 0.020927 0.700673
vt 0.020927 0.734821
vt 0.017214 0.700673
vt 0.019346 0.629882
vt 0.086012 0.608488
vt 0.186642 0.619923
vt 0.017259 0.044066
vt 0.133567 0.205549
vt 0.058511 0.214297
vt 0.063782 0.259522
vt 0.138838 0.250773
vt 0.062789 0.434677
vt 0.137741 0.444277
vt 0.057005 0.479839
vt 0.017259 0.434419
vt 0.018252 0.259264
vt 0.184368 0.251032
vt 0.386643 0.462858
vt 0.270335 0.301375
vt 0.345391 0.292627
vt 0.340120 0.247402
vt 0.265064 0.256151
vt 0.341113 0.072247
vt 0.266161 0.062648
vt 0.346897 0.027085
vt 0.386643 0.072505
vt 0.385650 0.247660
vt 0.219534 0.255893
vt 0.258404 0.562559
vt 0.420226 0.631512
vt 0.264251 0.664176
vt 0.384810 0.536087
vt 0.523307 0.583233
vt 0.472674 0.494934
vt 0.648254 0.484323
vt 0.634155 0.338701
vt 0.718904 0.395075
vt 0.718904 0.573571
vt 0.593957 0.672481
vt 0.412453 0.418861
vt 0.573935 0.414775
vt 0.805966 0.171105
vt 0.812628 0.057277
vt 0.812628 0.171105
vt 0.819290 0.171105
vt 0.819290 0.057277
vt 0.825952 0.171105
vt 0.825952 0.057277
vt 0.832614 0.171105
vt 0.832614 0.057277
vt 0.839276 0.171105
vt 0.839276 0.057277
vt 0.845938 0.171105
vt 0.852600 0.057277
vt 0.852600 0.171105
vt 0.859262 0.057277
vt 0.859262 0.171105
vt 0.865924 0.057277
vt 0.865924 0.171105
vt 0.872586 0.171105
vt 0.872586 0.057277
vt 0.879248 0.171105
vt 0.879248 0.057277
vt 0.885910 0.171105
vt 0.885910 0.057277
vt 0.892572 0.171105
vt 0.892572 0.057277
vt 0.899234 0.171105
vt 0.439572 0.312908
vt 0.452399 0.062197
vt 0.443124 0.303801
vt 0.899234 0.057277
vt 0.905896 0.171105
vt 0.912557 0.057277
vt 0.912558 0.171105
vt 0.114768 0.875522
vt 0.091085 0.870811
vt 0.095796 0.847129
vt 0.434624 0.277126
vt 0.431258 0.275152
vt 0.434817 0.274678
vt 0.429613 0.279459
vt 0.432119 0.277617
vt 0.427172 0.282671
vt 0.427741 0.277019
vt 0.420675 0.284487
vt 0.424246 0.280152
vt 0.422995 0.293837
vt 0.424954 0.287346
vt 0.411765 0.302045
vt 0.416170 0.291181
vt 0.425040 0.312096
vt 0.422466 0.302234
vt 0.430312 0.340883
vt 0.412637 0.320128
vt 0.432408 0.318751
vt 0.453626 0.305053
vt 0.450543 0.322661
vt 0.443690 0.295407
vt 0.442778 0.288770
vt 0.450885 0.293624
vt 0.441238 0.283776
vt 0.447500 0.286535
vt 0.441492 0.278040
vt 0.444535 0.281674
vt 0.439263 0.280209
vt 0.438253 0.275654
vt 0.437030 0.277998
vt 0.446177 0.061784
vt 0.446514 0.051744
vt 0.445855 0.055191
vt 0.453058 0.060736
vt 0.445461 0.057899
vt 0.453626 0.058438
vt 0.445717 0.060250
vt 0.453598 0.055699
vt 0.453406 0.052192
vt 0.447604 0.063237
vt 0.452267 0.047348
vt 0.449171 0.063747
vt 0.448400 0.047030
vt 0.450673 0.041668
vt 0.450791 0.063449
vt 0.755202 0.656564
vt 0.982856 0.638799
vt 0.982856 0.656564
vt 0.755202 0.638799
vt 0.982856 0.621033
vt 0.755202 0.621033
vt 0.982856 0.603268
vt 0.755202 0.603268
vt 0.982856 0.585503
vt 0.755202 0.585503
vt 0.982856 0.567738
vt 0.755202 0.567738
vt 0.982856 0.549972
vt 0.755202 0.549972
vt 0.982856 0.532207
vt 0.755202 0.532207
vt 0.982856 0.514442
vt 0.755202 0.514442
vt 0.982856 0.496677
vt 0.755202 0.496677
vt 0.982856 0.478911
vt 0.755202 0.478911
vt 0.982856 0.461146
vt 0.755202 0.461146
vt 0.982856 0.443381
vt 0.755202 0.443381
vt 0.982856 0.425615
vt 0.755202 0.425615
vt 0.982856 0.407850
vt 0.788344 0.872511
vt 0.859680 0.859777
vt 0.797796 0.899125
vt 0.755202 0.407850
vt 0.982856 0.390085
vt 0.755202 0.390085
vt 0.982856 0.372320
vt 0.654258 0.865967
vt 0.641696 0.802814
vt 0.704849 0.790252
vt 0.933114 0.874563
vt 0.960308 0.839749
vt 0.960308 0.880252
vt 0.921807 0.818082
vt 0.933580 0.845035
vt 0.916166 0.774810
vt 0.944598 0.802663
vt 0.874257 0.786688
vt 0.901358 0.797218
vt 0.840221 0.760444
vt 0.879362 0.760051
vt 0.819023 0.797761
vt 0.845403 0.786337
vt 0.799162 0.818198
vt 0.804383 0.775550
vt 0.762342 0.839016
vt 0.776926 0.803377
vt 0.787899 0.844232
vt 0.775691 0.913334
vt 0.762056 0.877291
vt 0.817583 0.919912
vt 0.844140 0.931015
vt 0.802532 0.941292
vt 0.872929 0.932337
vt 0.837592 0.957022
vt 0.899960 0.921388
vt 0.876983 0.958981
vt 0.921958 0.902008
vt 0.914505 0.944965
vt 0.944102 0.917719
vt 0.858392 0.859321
vt 0.858908 0.858142
vt 0.858602 0.858325
vt 0.860001 0.859581
vt 0.858389 0.858610
vt 0.860225 0.859273
vt 0.858302 0.858951
vt 0.860211 0.858915
vt 0.860149 0.858565
vt 0.858612 0.859639
vt 0.859891 0.858337
vt 0.858938 0.859855
vt 0.859261 0.858076
vt 0.859606 0.858147
vt 0.859331 0.859936
vt 0.685338 0.329253
vt 0.715155 0.232477
vt 0.726863 0.334251
vt 0.675850 0.246773
vt 0.670682 0.153014
vt 0.637942 0.179040
vt 0.590058 0.089811
vt 0.572602 0.127819
vt 0.502275 0.065596
vt 0.646239 0.018145
vt 0.726863 0.081348
vt 0.590055 0.240127
vt 0.489721 0.234121
vt 0.491941 0.302417
vt 0.489721 0.302417
vt 0.491941 0.234121
vt 0.494162 0.302417
vt 0.494162 0.234121
vt 0.496383 0.302417
vt 0.496383 0.234121
vt 0.498603 0.302417
vt 0.498603 0.234121
vt 0.500824 0.302417
vt 0.500824 0.234121
vt 0.503045 0.302417
vt 0.503045 0.234121
vt 0.505265 0.302417
vt 0.507486 0.234121
vt 0.507486 0.302417
vt 0.509707 0.302417
vt 0.509707 0.234121
vt 0.511927 0.302417
vt 0.511927 0.234121
vt 0.514148 0.302417
vt 0.514148 0.234121
vt 0.516369 0.302417
vt 0.516369 0.234121
vt 0.518589 0.302417
vt 0.518589 0.234121
vt 0.520810 0.302417
vt 0.763884 0.225563
vt 0.769835 0.018748
vt 0.769294 0.017586
vt 0.520810 0.234121
vt 0.523031 0.302417
vt 0.523031 0.234121
vt 0.525251 0.302417
vt 0.172371 0.190448
vt 0.179063 0.194919
vt 0.174591 0.201612
vt 0.768017 0.229479
vt 0.769680 0.226736
vt 0.770634 0.229567
vt 0.767635 0.225696
vt 0.767952 0.227320
vt 0.767946 0.223990
vt 0.768736 0.225117
vt 0.767206 0.224496
vt 0.767246 0.223179
vt 0.766300 0.223164
vt 0.766757 0.223666
vt 0.765825 0.222983
vt 0.766566 0.222671
vt 0.765117 0.222611
vt 0.765846 0.222481
vt 0.764850 0.223590
vt 0.765339 0.223122
vt 0.763675 0.223822
vt 0.764383 0.223081
vt 0.764376 0.224389
vt 0.761758 0.226515
vt 0.762801 0.224915
vt 0.763492 0.227183
vt 0.760672 0.229294
vt 0.763966 0.231767
vt 0.763365 0.229300
vt 0.765632 0.233390
vt 0.760975 0.233825
vt 0.770306 0.234094
vt 0.765515 0.238751
vt 0.767366 0.231824
vt 0.770634 0.021472
vt 0.769262 0.023171
vt 0.769742 0.023067
vt 0.768715 0.018747
vt 0.770202 0.022707
vt 0.768243 0.019739
vt 0.770445 0.022205
vt 0.768028 0.020714
vt 0.767900 0.021485
vt 0.770461 0.020737
vt 0.768082 0.022221
vt 0.770214 0.019810
vt 0.768782 0.023074
vt 0.768324 0.022718
vt 0.580746 0.310376
vt 0.577399 0.293551
vt 0.586929 0.307814
vt 0.591662 0.303081
vt 0.594224 0.296898
vt 0.594224 0.290204
vt 0.591662 0.284021
vt 0.586929 0.279288
vt 0.580746 0.276726
vt 0.574052 0.276726
vt 0.567869 0.279288
vt 0.563136 0.284021
vt 0.560574 0.290204
vt 0.560574 0.296898
vt 0.563136 0.303081
vt 0.567869 0.307814
vt 0.876013 0.708759
vt 0.879153 0.692970
vt 0.894941 0.696111
vt 0.574052 0.310376
vt 0.518711 0.639494
vt 0.504447 0.649024
vt 0.513978 0.634761
vt 0.507794 0.632199
vt 0.501101 0.632199
vt 0.494917 0.634761
vt 0.490184 0.639494
vt 0.487623 0.645677
vt 0.487623 0.652371
vt 0.490184 0.658554
vt 0.494917 0.663287
vt 0.501101 0.665849
vt 0.507794 0.665849
vt 0.513978 0.663287
vt 0.518711 0.658555
vt 0.521272 0.652371
vt 0.550079 0.034952
vt 0.534291 0.038092
vt 0.531151 0.022304
vt 0.521272 0.645677
vt 0.696080 0.638831
vt 0.699427 0.655656
vt 0.689897 0.641393
vt 0.685164 0.646126
vt 0.682602 0.652309
vt 0.682602 0.659003
vt 0.685164 0.665186
vt 0.689897 0.669919
vt 0.696080 0.672481
vt 0.702774 0.672481
vt 0.708957 0.669919
vt 0.713690 0.665186
vt 0.716252 0.659003
vt 0.716252 0.652309
vt 0.713690 0.646126
vt 0.708957 0.641393
vt 0.164352 0.153861
vt 0.155409 0.140477
vt 0.168793 0.131533
vt 0.702774 0.638831
vt 0.117387 0.554523
vt 0.107856 0.540260
vt 0.122119 0.549790
vt 0.124681 0.543607
vt 0.124681 0.536913
vt 0.122119 0.530729
vt 0.117387 0.525997
vt 0.111203 0.523435
vt 0.104510 0.523435
vt 0.098326 0.525997
vt 0.093593 0.530729
vt 0.091032 0.536913
vt 0.091032 0.543607
vt 0.093593 0.549790
vt 0.098326 0.554523
vt 0.104510 0.557085
vt 0.269851 0.849972
vt 0.285640 0.846832
vt 0.288780 0.862620
vt 0.111203 0.557085
vt 0.838371 0.219027
vt 0.824108 0.228558
vt 0.833638 0.214295
vt 0.827454 0.211733
vt 0.820761 0.211733
vt 0.814577 0.214295
vt 0.809845 0.219027
vt 0.807283 0.225211
vt 0.807283 0.231904
vt 0.809845 0.238088
vt 0.814577 0.242821
vt 0.820761 0.245382
vt 0.827455 0.245382
vt 0.833638 0.242821
vt 0.838371 0.238088
vt 0.840932 0.231904
vt 0.545368 0.859381
vt 0.558752 0.850438
vt 0.567696 0.863822
vt 0.840932 0.225211
vt 0.364931 0.844331
vt 0.374461 0.858594
vt 0.360198 0.849064
vt 0.357636 0.855247
vt 0.357636 0.861941
vt 0.360198 0.868124
vt 0.364931 0.872857
vt 0.371114 0.875419
vt 0.377808 0.875419
vt 0.383991 0.872857
vt 0.388724 0.868124
vt 0.391286 0.861941
vt 0.391286 0.855247
vt 0.388724 0.849064
vt 0.383991 0.844331
vt 0.377808 0.841769
vt 0.714064 0.474116
vt 0.717205 0.489904
vt 0.701416 0.493044
vt 0.371114 0.841769
vt 0.762094 0.290653
vt 0.776358 0.300183
vt 0.759533 0.296836
vt 0.759533 0.303530
vt 0.762094 0.309713
vt 0.766827 0.314446
vt 0.773011 0.317008
vt 0.779704 0.317008
vt 0.785888 0.314446
vt 0.790621 0.309713
vt 0.793182 0.303530
vt 0.793182 0.296836
vt 0.790621 0.290653
vt 0.785888 0.285920
vt 0.779704 0.283358
vt 0.773011 0.283358
vt 0.432159 0.846832
vt 0.447947 0.849972
vt 0.444807 0.865761
vt 0.766827 0.285920
vt 0.831158 0.302203
vt 0.847983 0.298857
vt 0.833720 0.308387
vt 0.838453 0.313120
vt 0.844636 0.315681
vt 0.851330 0.315681
vt 0.857513 0.313120
vt 0.862246 0.308387
vt 0.864808 0.302203
vt 0.864808 0.295510
vt 0.862246 0.289326
vt 0.857513 0.284593
vt 0.851330 0.282032
vt 0.844636 0.282032
vt 0.838452 0.284593
vt 0.833720 0.289326
vt 0.146497 0.900375
vt 0.162285 0.897235
vt 0.165426 0.913023
vt 0.831158 0.295510
vt 0.807192 0.718242
vt 0.821455 0.708712
vt 0.811925 0.722975
vt 0.818108 0.725536
vt 0.824802 0.725536
vt 0.830985 0.722975
vt 0.835718 0.718242
vt 0.838280 0.712058
vt 0.838280 0.705365
vt 0.835718 0.699181
vt 0.830985 0.694448
vt 0.824802 0.691887
vt 0.818108 0.691887
vt 0.811925 0.694448
vt 0.807192 0.699181
vt 0.804630 0.705365
vt 0.623031 0.895070
vt 0.619891 0.910858
vt 0.604102 0.907717
vt 0.804630 0.712058
vt 0.218641 0.836464
vt 0.215294 0.853288
vt 0.211947 0.836464
vt 0.205764 0.839025
vt 0.201031 0.843758
vt 0.198469 0.849942
vt 0.198469 0.856635
vt 0.201031 0.862819
vt 0.205764 0.867552
vt 0.211947 0.870113
vt 0.218641 0.870113
vt 0.224824 0.867552
vt 0.229557 0.862819
vt 0.232119 0.856635
vt 0.232119 0.849942
vt 0.229557 0.843758
vt 0.507635 0.867926
vt 0.491847 0.871066
vt 0.488706 0.855278
vt 0.224824 0.839025
vt 0.049168 0.849064
vt 0.034905 0.858594
vt 0.044435 0.844331
vt 0.038251 0.841769
vt 0.031558 0.841769
vt 0.025374 0.844331
vt 0.020641 0.849064
vt 0.018080 0.855247
vt 0.018080 0.861941
vt 0.020641 0.868124
vt 0.025374 0.872857
vt 0.031558 0.875419
vt 0.038251 0.875419
vt 0.044435 0.872857
vt 0.049168 0.868124
vt 0.051729 0.861941
vt 0.269599 0.496071
vt 0.256214 0.487127
vt 0.265158 0.473742
vt 0.051729 0.855247
vt 0.038251 0.546473
vt 0.034905 0.529649
vt 0.044435 0.543912
vt 0.049168 0.539179
vt 0.051729 0.532995
vt 0.051729 0.526302
vt 0.049168 0.520118
vt 0.044435 0.515385
vt 0.038251 0.512824
vt 0.031558 0.512824
vt 0.025374 0.515386
vt 0.020641 0.520118
vt 0.018080 0.526302
vt 0.018080 0.532995
vt 0.020641 0.539179
vt 0.025374 0.543912
vt 0.878665 0.213304
vt 0.894454 0.210164
vt 0.897594 0.225952
vt 0.031558 0.546473
vt 0.177736 0.017919
vt 0.392612 0.032667
vt 0.391762 0.034719
vt 0.390192 0.036289
vt 0.388140 0.037139
vt 0.385920 0.037139
vt 0.383868 0.036289
vt 0.382298 0.034719
vt 0.381448 0.030447
vt 0.382298 0.028395
vt 0.383868 0.026825
vt 0.388140 0.025975
vt 0.390192 0.026825
vt 0.391762 0.028395
vt 0.585191 0.742779
vt 0.451819 0.742779
vt 0.393690 0.790347
vt 0.395265 0.793710
vt 0.393559 0.797008
vt 0.388639 0.800114
vt 0.380693 0.802910
vt 0.370027 0.805288
vt 0.357051 0.807156
vt 0.342264 0.808443
vt 0.326233 0.809099
vt 0.309575 0.809099
vt 0.292929 0.808443
vt 0.276937 0.807156
vt 0.262211 0.805288
vt 0.249319 0.802910
vt 0.238755 0.800114
vt 0.226131 0.793710
vt 0.224557 0.790347
vt 0.226263 0.787049
vt 0.231183 0.783942
vt 0.239129 0.781146
vt 0.249794 0.778768
vt 0.262771 0.776900
vt 0.293589 0.774957
vt 0.310247 0.774957
vt 0.326892 0.775613
vt 0.342885 0.776900
vt 0.357611 0.778768
vt 0.370503 0.781146
vt 0.381067 0.783942
vt 0.409826 0.742779
vt 0.602182 0.795652
vt 0.600607 0.799015
vt 0.595813 0.802313
vt 0.587984 0.805420
vt 0.577420 0.808216
vt 0.564528 0.810593
vt 0.549802 0.812462
vt 0.533810 0.813748
vt 0.517164 0.814404
vt 0.500506 0.814404
vt 0.484475 0.813748
vt 0.469688 0.812462
vt 0.456712 0.810593
vt 0.446046 0.808216
vt 0.438100 0.805420
vt 0.431474 0.799015
vt 0.433049 0.795652
vt 0.437843 0.792354
vt 0.445672 0.789248
vt 0.456236 0.786452
vt 0.469128 0.784074
vt 0.483854 0.782206
vt 0.516492 0.780263
vt 0.533150 0.780263
vt 0.549181 0.780919
vt 0.563968 0.782206
vt 0.576945 0.784074
vt 0.587610 0.786452
vt 0.595556 0.789248
vt 0.192579 0.734821
vt 0.059207 0.734821
vt 0.186773 0.787694
vt 0.188348 0.791057
vt 0.186642 0.794355
vt 0.181722 0.797462
vt 0.173776 0.800257
vt 0.163110 0.802635
vt 0.150134 0.804503
vt 0.135347 0.805790
vt 0.119316 0.806446
vt 0.102658 0.806446
vt 0.086012 0.805790
vt 0.070020 0.804503
vt 0.055294 0.802635
vt 0.042402 0.800257
vt 0.031838 0.797462
vt 0.019214 0.791057
vt 0.017640 0.787694
vt 0.019346 0.784396
vt 0.024266 0.781289
vt 0.032211 0.778493
vt 0.042877 0.776116
vt 0.055853 0.774248
vt 0.086672 0.772305
vt 0.103330 0.772305
vt 0.119975 0.772961
vt 0.135968 0.774248
vt 0.150693 0.776116
vt 0.163586 0.778493
vt 0.174150 0.781289
vt 0.017214 0.734821
vt 0.188348 0.623222
vt 0.186773 0.626584
vt 0.181979 0.629882
vt 0.174150 0.632989
vt 0.163586 0.635785
vt 0.150693 0.638163
vt 0.135968 0.640031
vt 0.119975 0.641318
vt 0.103330 0.641974
vt 0.086672 0.641974
vt 0.070641 0.641318
vt 0.055853 0.640031
vt 0.042877 0.638163
vt 0.032212 0.635785
vt 0.024266 0.632989
vt 0.017640 0.626584
vt 0.019214 0.623222
vt 0.024008 0.619924
vt 0.031838 0.616817
vt 0.042402 0.614021
vt 0.055294 0.611643
vt 0.070020 0.609775
vt 0.102658 0.607832
vt 0.119316 0.607832
vt 0.135347 0.608488
vt 0.150134 0.609775
vt 0.163110 0.611643
vt 0.173776 0.614021
vt 0.181722 0.616817
vt 0.087994 0.017486
vt 0.131957 0.489439
vt 0.183271 0.444535
vt 0.315908 0.489439
vt 0.271945 0.017486
vt 0.220631 0.062389
vt 0.513714 0.338701
vt 0.805966 0.057277
vt 0.845938 0.057277
vt 0.905896 0.057277
vt 0.101951 0.844579
vt 0.108613 0.844579
vt 0.114768 0.847129
vt 0.119479 0.851840
vt 0.122028 0.857994
vt 0.122028 0.864656
vt 0.119479 0.870811
vt 0.108613 0.878071
vt 0.101951 0.878071
vt 0.095796 0.875522
vt 0.088536 0.864656
vt 0.088536 0.857994
vt 0.091085 0.851840
vt 0.755202 0.372320
vt 0.717411 0.802814
vt 0.724210 0.819227
vt 0.724210 0.836992
vt 0.717412 0.853405
vt 0.704850 0.865967
vt 0.688437 0.872766
vt 0.670671 0.872766
vt 0.641696 0.853406
vt 0.634898 0.836993
vt 0.634898 0.819227
vt 0.654258 0.790252
vt 0.670671 0.783454
vt 0.688437 0.783454
vt 0.497777 0.107179
vt 0.524715 0.188906
vt 0.505265 0.234121
vt 0.525251 0.234121
vt 0.172371 0.201612
vt 0.170319 0.200762
vt 0.168749 0.199191
vt 0.167899 0.197140
vt 0.167899 0.194919
vt 0.168749 0.192868
vt 0.170319 0.191297
vt 0.174591 0.190448
vt 0.176643 0.191297
vt 0.178213 0.192868
vt 0.179063 0.197140
vt 0.178213 0.199191
vt 0.176643 0.200762
vt 0.896641 0.700214
vt 0.896641 0.704655
vt 0.894941 0.708759
vt 0.891801 0.711899
vt 0.887698 0.713599
vt 0.883256 0.713599
vt 0.879153 0.711899
vt 0.874313 0.704655
vt 0.874313 0.700214
vt 0.876013 0.696111
vt 0.883256 0.691271
vt 0.887698 0.691271
vt 0.891801 0.692970
vt 0.534291 0.019163
vt 0.538394 0.017464
vt 0.542836 0.017464
vt 0.546939 0.019163
vt 0.550079 0.022304
vt 0.551779 0.026407
vt 0.551779 0.030848
vt 0.546939 0.038092
vt 0.542836 0.039792
vt 0.538394 0.039792
vt 0.531151 0.034952
vt 0.529451 0.030848
vt 0.529451 0.026407
vt 0.172896 0.133233
vt 0.176037 0.136373
vt 0.177737 0.140477
vt 0.177737 0.144918
vt 0.176037 0.149021
vt 0.172896 0.152162
vt 0.168793 0.153861
vt 0.160249 0.152162
vt 0.157108 0.149021
vt 0.155409 0.144918
vt 0.157108 0.136373
vt 0.160249 0.133233
vt 0.164352 0.131533
vt 0.285640 0.865761
vt 0.281536 0.867460
vt 0.277095 0.867460
vt 0.272992 0.865761
vt 0.269851 0.862620
vt 0.268152 0.858517
vt 0.268152 0.854076
vt 0.272992 0.846832
vt 0.277095 0.845132
vt 0.281536 0.845132
vt 0.288780 0.849972
vt 0.290480 0.854076
vt 0.290480 0.858517
vt 0.565996 0.867926
vt 0.562856 0.871066
vt 0.558752 0.872766
vt 0.554311 0.872766
vt 0.550208 0.871066
vt 0.547067 0.867926
vt 0.545368 0.863823
vt 0.547067 0.855278
vt 0.550208 0.852137
vt 0.554311 0.850438
vt 0.562856 0.852138
vt 0.565996 0.855278
vt 0.567696 0.859381
vt 0.698276 0.489904
vt 0.696576 0.485801
vt 0.696576 0.481359
vt 0.698276 0.477256
vt 0.701416 0.474116
vt 0.705520 0.472416
vt 0.709961 0.472416
vt 0.717205 0.477256
vt 0.718904 0.481359
vt 0.718904 0.485801
vt 0.714064 0.493044
vt 0.709961 0.494744
vt 0.705520 0.494744
vt 0.440704 0.867460
vt 0.436262 0.867460
vt 0.432159 0.865761
vt 0.429018 0.862620
vt 0.427319 0.858517
vt 0.427319 0.854076
vt 0.429018 0.849972
vt 0.436262 0.845132
vt 0.440704 0.845132
vt 0.444807 0.846832
vt 0.449647 0.854076
vt 0.449647 0.858517
vt 0.447947 0.862620
vt 0.162285 0.916164
vt 0.158182 0.917863
vt 0.153741 0.917863
vt 0.149638 0.916164
vt 0.146497 0.913023
vt 0.144798 0.908920
vt 0.144798 0.904478
vt 0.149638 0.897235
vt 0.153741 0.895535
vt 0.158182 0.895535
vt 0.165426 0.900375
vt 0.167126 0.904478
vt 0.167126 0.908920
vt 0.602403 0.903614
vt 0.602403 0.899173
vt 0.604102 0.895070
vt 0.607243 0.891929
vt 0.611346 0.890230
vt 0.615787 0.890230
vt 0.619891 0.891929
vt 0.624731 0.899173
vt 0.624731 0.903614
vt 0.623031 0.907717
vt 0.615787 0.912558
vt 0.611346 0.912558
vt 0.607243 0.910858
vt 0.491847 0.852138
vt 0.495950 0.850438
vt 0.500391 0.850438
vt 0.504494 0.852138
vt 0.507635 0.855278
vt 0.509334 0.859381
vt 0.509334 0.863823
vt 0.504494 0.871066
vt 0.500391 0.872766
vt 0.495950 0.872766
vt 0.488706 0.867926
vt 0.487006 0.863823
vt 0.487006 0.859381
vt 0.269599 0.473743
vt 0.273702 0.475442
vt 0.276843 0.478583
vt 0.278542 0.482686
vt 0.278542 0.487127
vt 0.276843 0.491231
vt 0.273702 0.494371
vt 0.265158 0.496071
vt 0.261054 0.494371
vt 0.257914 0.491230
vt 0.256214 0.482686
vt 0.257914 0.478583
vt 0.261054 0.475442
vt 0.894454 0.229093
vt 0.890350 0.230792
vt 0.885909 0.230792
vt 0.881806 0.229093
vt 0.878665 0.225952
vt 0.876966 0.221849
vt 0.876966 0.217408
vt 0.881806 0.210164
vt 0.885909 0.208464
vt 0.890350 0.208464
vt 0.897594 0.213304
vt 0.899294 0.217407
vt 0.899294 0.221849
s 0
usemtl マテリアル
f 34/1/1 3/2/1 1/3/1
f 33/4/2 5/5/2 3/2/2
f 35/6/3 7/7/3 5/5/3
f 36/8/4 9/9/4 7/7/4
f 37/10/5 11/11/5 9/9/5
f 38/12/6 13/13/6 11/11/6
f 39/14/7 15/15/7 13/13/7
f 40/16/8 17/17/8 15/15/8
f 41/18/9 19/19/9 17/17/9
f 42/20/10 21/21/10 19/19/10
f 43/22/11 23/23/11 21/21/11
f 44/24/12 25/25/12 23/23/12
f 45/26/13 27/27/13 25/25/13
f 46/28/14 29/29/14 27/27/14
f 22/30/2 58/31/2 59/32/2
f 47/33/15 31/34/15 29/29/15
f 48/35/16 1/36/16 31/34/16
f 15/37/17 23/38/17 31/39/17
f 4/40/18 34/41/18 2/42/18
f 6/43/18 33/44/18 4/40/18
f 8/45/18 35/46/18 6/43/18
f 8/45/18 37/47/18 36/48/18
f 12/49/18 37/47/18 10/50/18
f 12/49/18 39/51/18 38/52/18
f 14/53/18 40/54/18 39/51/18
f 16/55/18 41/56/18 40/54/18
f 20/57/18 41/56/18 18/58/18
f 22/30/18 42/59/18 20/57/18
f 24/60/18 43/61/18 22/30/18
f 24/60/18 45/62/18 44/63/18
f 28/64/18 45/62/18 26/65/18
f 28/64/18 47/66/18 46/67/18
f 30/68/18 48/69/18 47/66/18
f 32/70/18 34/41/18 48/69/18
f 59/32/18 55/71/18 51/72/18
f 8/45/11 51/72/11 52/73/11
f 22/30/3 60/74/3 24/60/3
f 8/45/12 53/75/12 10/50/12
f 24/60/4 61/76/4 26/65/4
f 10/50/13 54/77/13 12/49/13
f 26/65/5 62/78/5 28/64/5
f 12/49/14 55/71/14 14/53/14
f 28/64/6 63/79/6 30/68/6
f 14/53/15 56/80/15 16/55/15
f 30/68/7 64/81/7 32/70/7
f 18/58/16 56/80/16 57/82/16
f 4/40/9 50/83/9 49/84/9
f 32/70/8 50/83/8 2/42/8
f 18/58/1 58/31/1 20/57/1
f 6/43/10 49/84/10 51/72/10
f 66/85/19 67/86/19 65/87/19
f 68/88/20 69/89/20 67/86/20
f 70/90/21 71/91/21 69/89/21
f 72/92/22 73/93/22 71/91/22
f 74/94/23 75/95/23 73/93/23
f 76/96/24 77/97/24 75/95/24
f 78/98/25 79/99/25 77/97/25
f 80/100/26 81/101/26 79/99/26
f 82/102/27 83/103/27 81/101/27
f 84/104/28 85/105/28 83/103/28
f 86/106/29 87/107/29 85/105/29
f 88/108/30 89/109/30 87/107/30
f 90/110/31 91/111/31 89/109/31
f 92/112/32 93/113/32 91/111/32
f 94/114/33 95/115/33 93/113/33
f 96/116/34 97/117/34 95/115/34
f 98/118/35 99/119/35 97/117/35
f 99/119/36 102/120/36 101/121/36
f 102/120/37 103/122/37 101/121/37
f 104/123/38 105/124/38 103/122/38
f 106/125/39 107/126/39 105/124/39
f 108/127/40 109/128/40 107/126/40
f 110/129/41 111/130/41 109/128/41
f 112/131/42 113/132/42 111/130/42
f 114/133/43 115/134/43 113/132/43
f 116/135/44 117/136/44 115/134/44
f 118/137/45 119/138/45 117/136/45
f 119/138/46 122/139/46 121/140/46
f 122/139/47 123/141/47 121/140/47
f 124/142/48 125/143/48 123/141/48
f 102/144/49 86/145/49 70/146/49
f 126/147/50 127/148/50 125/143/50
f 128/149/51 65/150/51 127/148/51
f 95/151/52 111/152/52 127/153/52
f 130/154/19 131/155/19 129/156/19
f 132/157/20 133/158/20 131/155/20
f 134/159/21 135/160/21 133/158/21
f 136/161/22 137/162/22 135/160/22
f 138/163/23 139/164/23 137/162/23
f 140/165/24 141/166/24 139/164/24
f 142/167/25 143/168/25 141/166/25
f 144/169/26 145/170/26 143/168/26
f 146/171/27 147/172/27 145/170/27
f 148/173/28 149/174/28 147/172/28
f 150/175/29 151/176/29 149/174/29
f 152/177/30 153/178/30 151/176/30
f 154/179/31 155/180/31 153/178/31
f 156/181/32 157/182/32 155/180/32
f 158/183/33 159/184/33 157/182/33
f 160/185/34 161/186/34 159/184/34
f 162/187/35 163/188/35 161/186/35
f 163/188/36 166/189/36 165/190/36
f 166/189/37 167/191/37 165/190/37
f 168/192/38 169/193/38 167/191/38
f 170/194/39 171/195/39 169/193/39
f 172/196/40 173/197/40 171/195/40
f 174/198/41 175/199/41 173/197/41
f 176/200/42 177/201/42 175/199/42
f 178/202/43 179/203/43 177/201/43
f 180/204/44 181/205/44 179/203/44
f 182/206/45 183/207/45 181/205/45
f 183/207/46 186/208/46 185/209/46
f 186/208/47 187/210/47 185/209/47
f 188/211/48 189/212/48 187/210/48
f 166/213/49 150/214/49 134/215/49
f 190/216/50 191/217/50 189/212/50
f 192/218/51 129/219/51 191/217/51
f 159/220/52 175/221/52 191/222/52
f 193/223/52 196/224/52 195/225/52
f 196/224/53 199/226/53 195/225/53
f 200/227/49 197/228/49 199/226/49
f 198/229/54 193/230/54 197/228/54
f 199/226/55 193/231/55 195/232/55
f 196/233/56 198/229/56 200/227/56
f 201/234/52 204/235/52 203/236/52
f 204/235/53 207/237/53 203/236/53
f 208/238/49 205/239/49 207/237/49
f 206/240/54 201/241/54 205/239/54
f 207/237/55 201/242/55 203/243/55
f 204/244/56 206/240/56 208/238/56
f 210/245/57 211/246/57 209/247/57
f 212/248/58 215/249/58 211/246/58
f 216/250/59 213/251/59 215/249/59
f 213/251/60 210/252/60 209/253/60
f 215/249/55 209/254/55 211/255/55
f 212/256/56 214/257/56 216/250/56
f 217/258/61 249/259/61 219/260/61
f 249/259/62 221/261/62 219/260/62
f 251/262/63 223/263/63 221/261/63
f 252/264/64 225/265/64 223/263/64
f 253/266/65 227/267/65 225/265/65
f 254/268/66 229/269/66 227/267/66
f 229/269/67 256/270/67 231/271/67
f 231/271/68 257/272/68 233/273/68
f 233/273/69 258/274/69 235/275/69
f 258/274/70 237/276/70 235/275/70
f 259/277/71 239/278/71 237/276/71
f 260/279/72 241/280/72 239/278/72
f 261/281/73 243/282/73 241/280/73
f 262/283/74 245/284/74 243/282/74
f 236/285/62 275/286/62 238/287/62
f 263/288/75 247/289/75 245/284/75
f 247/289/76 250/290/76 217/291/76
f 231/292/77 239/293/77 247/294/77
f 218/295/78 249/296/78 250/297/78
f 222/298/78 249/296/78 220/299/78
f 224/300/78 251/301/78 222/298/78
f 224/300/78 253/302/78 252/303/78
f 228/304/79 253/302/79 226/305/79
f 228/304/78 255/306/78 254/307/78
f 232/308/78 255/306/78 230/309/78
f 232/308/78 257/310/78 256/311/78
f 236/285/78 257/310/78 234/312/78
f 236/285/78 259/313/78 258/314/78
f 240/315/78 259/313/78 238/287/78
f 242/316/78 260/317/78 240/315/78
f 244/318/79 261/319/79 242/316/79
f 244/318/78 263/320/78 262/321/78
f 246/322/78 264/323/78 263/320/78
f 218/295/78 264/323/78 248/324/78
f 275/286/78 271/325/78 267/326/78
f 222/298/71 268/327/71 224/300/71
f 240/315/63 275/286/63 276/328/63
f 224/300/72 269/329/72 226/305/72
f 240/315/64 277/330/64 242/316/64
f 226/305/73 270/331/73 228/304/73
f 242/316/65 278/332/65 244/318/65
f 228/304/74 271/325/74 230/309/74
f 246/322/66 278/332/66 279/333/66
f 230/309/75 272/334/75 232/308/75
f 246/322/67 280/335/67 248/324/67
f 234/312/76 272/334/76 273/336/76
f 218/295/69 265/337/69 220/299/69
f 248/324/68 266/338/68 218/295/68
f 234/312/61 274/339/61 236/285/61
f 222/298/70 265/337/70 267/326/70
f 314/340/80 283/341/80 281/342/80
f 313/343/81 285/344/81 283/341/81
f 315/345/82 287/346/82 285/344/82
f 316/347/83 289/348/83 287/346/83
f 317/349/84 291/350/84 289/348/84
f 318/351/85 293/352/85 291/350/85
f 319/353/86 295/354/86 293/352/86
f 320/355/87 297/356/87 295/354/87
f 321/357/88 299/358/88 297/356/88
f 322/359/89 301/360/89 299/358/89
f 323/361/90 303/362/90 301/360/90
f 324/363/91 305/364/91 303/362/91
f 325/365/92 307/366/92 305/364/92
f 326/367/93 309/368/93 307/366/93
f 300/369/81 339/370/81 302/371/81
f 327/372/94 311/373/94 309/368/94
f 328/374/95 281/375/95 311/373/95
f 295/376/55 303/377/55 311/378/55
f 282/379/56 313/380/56 314/381/56
f 286/382/56 313/380/56 284/383/56
f 286/382/56 316/384/56 315/385/56
f 290/386/56 316/384/56 288/387/56
f 290/386/56 318/388/56 317/389/56
f 294/390/56 318/388/56 292/391/56
f 296/392/56 319/393/56 294/390/56
f 296/392/56 321/394/56 320/395/56
f 300/369/56 321/394/56 298/396/56
f 300/369/56 323/397/56 322/398/56
f 304/399/56 323/397/56 302/371/56
f 306/400/56 324/401/56 304/399/56
f 308/402/56 325/403/56 306/400/56
f 310/404/56 326/405/56 308/402/56
f 312/406/56 327/407/56 310/404/56
f 282/379/56 328/408/56 312/406/56
f 339/370/56 335/409/56 331/410/56
f 286/382/90 332/411/90 288/387/90
f 302/371/82 340/412/82 304/399/82
f 288/387/91 333/413/91 290/386/91
f 304/399/83 341/414/83 306/400/83
f 290/386/92 334/415/92 292/391/92
f 306/400/84 342/416/84 308/402/84
f 292/391/93 335/409/93 294/390/93
f 308/402/85 343/417/85 310/404/85
f 294/390/94 336/418/94 296/392/94
f 310/404/86 344/419/86 312/406/86
f 296/392/95 337/420/95 298/396/95
f 282/379/88 329/421/88 284/383/88
f 312/406/87 330/422/87 282/379/87
f 298/396/80 338/423/80 300/369/80
f 284/383/89 331/410/89 286/382/89
f 346/424/96 347/425/96 345/426/96
f 348/427/97 351/428/97 347/425/97
f 352/429/98 349/430/98 351/428/98
f 350/431/99 345/432/99 349/430/99
f 351/428/55 345/433/55 347/434/55
f 348/435/56 350/431/56 352/429/56
f 386/436/1 355/437/1 353/438/1
f 385/439/2 357/440/2 355/437/2
f 387/441/3 359/442/3 357/440/3
f 388/443/4 361/444/4 359/442/4
f 389/445/5 363/446/5 361/444/5
f 390/447/6 365/448/6 363/446/6
f 391/449/7 367/450/7 365/448/7
f 367/450/8 393/451/8 369/452/8
f 393/451/9 371/453/9 369/452/9
f 394/454/10 373/455/10 371/453/10
f 395/456/11 375/457/11 373/455/11
f 396/458/12 377/459/12 375/457/12
f 397/460/13 379/461/13 377/459/13
f 398/462/14 381/463/14 379/461/14
f 374/464/2 410/465/2 411/466/2
f 399/467/15 383/468/15 381/463/15
f 400/469/16 353/470/16 383/468/16
f 367/471/17 375/472/17 383/473/17
f 354/474/18 385/475/18 386/476/18
f 358/477/18 385/475/18 356/478/18
f 358/477/18 388/479/18 387/480/18
f 360/481/18 389/482/18 388/479/18
f 364/483/18 389/482/18 362/484/18
f 366/485/18 390/486/18 364/483/18
f 366/485/18 392/487/18 391/488/18
f 370/489/18 392/487/18 368/490/18
f 370/489/18 394/491/18 393/492/18
f 374/464/18 394/491/18 372/493/18
f 374/464/18 396/494/18 395/495/18
f 376/496/18 397/497/18 396/494/18
f 380/498/18 397/497/18 378/499/18
f 382/500/18 398/501/18 380/498/18
f 382/500/18 400/502/18 399/503/18
f 354/474/18 400/502/18 384/504/18
f 411/466/18 407/505/18 403/506/18
f 358/477/11 404/507/11 360/481/11
f 376/496/3 411/466/3 412/508/3
f 360/481/12 405/509/12 362/484/12
f 376/496/4 413/510/4 378/499/4
f 362/484/13 406/511/13 364/483/13
f 378/499/5 414/512/5 380/498/5
f 364/483/14 407/505/14 366/485/14
f 380/498/6 415/513/6 382/500/6
f 366/485/15 408/514/15 368/490/15
f 382/500/7 416/515/7 384/504/7
f 370/489/16 408/514/16 409/516/16
f 354/474/9 401/517/9 356/478/9
f 384/504/8 402/518/8 354/474/8
f 370/489/1 410/465/1 372/493/1
f 356/478/10 403/506/10 358/477/10
f 417/519/100 433/520/100 418/521/100
f 418/521/101 433/520/101 419/522/101
f 419/522/102 433/520/102 420/523/102
f 420/523/103 433/520/103 421/524/103
f 421/524/104 433/520/104 422/525/104
f 422/525/105 433/520/105 423/526/105
f 423/526/106 433/520/106 424/527/106
f 424/527/107 433/520/107 425/528/107
f 425/528/108 433/520/108 426/529/108
f 426/529/109 433/520/109 427/530/109
f 427/530/110 433/520/110 428/531/110
f 428/531/111 433/520/111 429/532/111
f 429/532/112 433/520/112 430/533/112
f 430/533/113 433/520/113 431/534/113
f 424/535/49 428/536/49 432/537/49
f 431/534/114 433/520/114 432/538/114
f 432/538/115 433/520/115 417/519/115
f 434/539/100 450/540/100 435/541/100
f 435/541/101 450/540/101 436/542/101
f 436/542/102 450/540/102 437/543/102
f 437/543/103 450/540/103 438/544/103
f 438/544/104 450/540/104 439/545/104
f 439/545/105 450/540/105 440/546/105
f 440/546/106 450/540/106 441/547/106
f 441/547/107 450/540/107 442/548/107
f 442/548/108 450/540/108 443/549/108
f 443/549/109 450/540/109 444/550/109
f 444/550/110 450/540/110 445/551/110
f 445/551/111 450/540/111 446/552/111
f 446/552/112 450/540/112 447/553/112
f 447/553/113 450/540/113 448/554/113
f 441/555/49 445/556/49 449/557/49
f 448/554/114 450/540/114 449/558/114
f 449/558/115 450/540/115 434/539/115
f 451/559/100 467/560/100 452/561/100
f 452/561/101 467/560/101 453/562/101
f 453/562/102 467/560/102 454/563/102
f 454/563/103 467/560/103 455/564/103
f 455/564/104 467/560/104 456/565/104
f 456/565/105 467/560/105 457/566/105
f 457/566/106 467/560/106 458/567/106
f 458/567/107 467/560/107 459/568/107
f 459/568/108 467/560/108 460/569/108
f 460/569/109 467/560/109 461/570/109
f 461/570/110 467/560/110 462/571/110
f 462/571/111 467/560/111 463/572/111
f 463/572/112 467/560/112 464/573/112
f 464/573/113 467/560/113 465/574/113
f 458/575/49 462/576/49 466/577/49
f 465/574/114 467/560/114 466/578/114
f 466/578/115 467/560/115 451/559/115
f 468/579/100 484/580/100 469/581/100
f 469/581/101 484/580/101 470/582/101
f 470/582/102 484/580/102 471/583/102
f 471/583/103 484/580/103 472/584/103
f 472/584/104 484/580/104 473/585/104
f 473/585/105 484/580/105 474/586/105
f 474/586/106 484/580/106 475/587/106
f 475/587/107 484/580/107 476/588/107
f 476/588/108 484/580/108 477/589/108
f 477/589/109 484/580/109 478/590/109
f 478/590/110 484/580/110 479/591/110
f 479/591/111 484/580/111 480/592/111
f 480/592/112 484/580/112 481/593/112
f 481/593/113 484/580/113 482/594/113
f 475/595/49 479/596/49 483/597/49
f 482/594/114 484/580/114 483/598/114
f 483/598/115 484/580/115 468/579/115
f 485/599/116 501/600/116 486/601/116
f 486/601/117 501/600/117 487/602/117
f 487/602/118 501/600/118 488/603/118
f 488/603/119 501/600/119 489/604/119
f 489/604/120 501/600/120 490/605/120
f 490/605/121 501/600/121 491/606/121
f 491/606/122 501/600/122 492/607/122
f 492/607/123 501/600/123 493/608/123
f 493/608/124 501/600/124 494/609/124
f 494/609/125 501/600/125 495/610/125
f 495/610/126 501/600/126 496/611/126
f 496/611/127 501/600/127 497/612/127
f 497/612/128 501/600/128 498/613/128
f 498/613/129 501/600/129 499/614/129
f 492/615/52 496/616/52 500/617/52
f 499/614/130 501/600/130 500/618/130
f 500/618/131 501/600/131 485/599/131
f 502/619/116 518/620/116 503/621/116
f 503/621/117 518/620/117 504/622/117
f 504/622/118 518/620/118 505/623/118
f 505/623/119 518/620/119 506/624/119
f 506/624/120 518/620/120 507/625/120
f 507/625/121 518/620/121 508/626/121
f 508/626/122 518/620/122 509/627/122
f 509/627/123 518/620/123 510/628/123
f 510/628/124 518/620/124 511/629/124
f 511/629/125 518/620/125 512/630/125
f 512/630/126 518/620/126 513/631/126
f 513/631/127 518/620/127 514/632/127
f 514/632/128 518/620/128 515/633/128
f 515/633/129 518/620/129 516/634/129
f 509/635/52 513/636/52 517/637/52
f 516/634/130 518/620/130 517/638/130
f 517/638/131 518/620/131 502/619/131
f 519/639/116 535/640/116 520/641/116
f 520/641/117 535/640/117 521/642/117
f 521/642/118 535/640/118 522/643/118
f 522/643/119 535/640/119 523/644/119
f 523/644/120 535/640/120 524/645/120
f 524/645/121 535/640/121 525/646/121
f 525/646/122 535/640/122 526/647/122
f 526/647/123 535/640/123 527/648/123
f 527/648/124 535/640/124 528/649/124
f 528/649/125 535/640/125 529/650/125
f 529/650/126 535/640/126 530/651/126
f 530/651/127 535/640/127 531/652/127
f 531/652/128 535/640/128 532/653/128
f 532/653/129 535/640/129 533/654/129
f 526/655/52 530/656/52 534/657/52
f 533/654/130 535/640/130 534/658/130
f 534/658/131 535/640/131 519/639/131
f 536/659/116 552/660/116 537/661/116
f 537/661/117 552/660/117 538/662/117
f 538/662/118 552/660/118 539/663/118
f 539/663/119 552/660/119 540/664/119
f 540/664/120 552/660/120 541/665/120
f 541/665/121 552/660/121 542/666/121
f 542/666/122 552/660/122 543/667/122
f 543/667/123 552/660/123 544/668/123
f 544/668/124 552/660/124 545/669/124
f 545/669/125 552/660/125 546/670/125
f 546/670/126 552/660/126 547/671/126
f 547/671/127 552/660/127 548/672/127
f 548/672/128 552/660/128 549/673/128
f 549/673/129 552/660/129 550/674/129
f 543/675/52 547/676/52 551/677/52
f 550/674/130 552/660/130 551/678/130
f 551/678/131 552/660/131 536/659/131
f 553/679/132 569/680/132 554/681/132
f 554/681/133 569/680/133 555/682/133
f 555/682/134 569/680/134 556/683/134
f 556/683/135 569/680/135 557/684/135
f 557/684/136 569/680/136 558/685/136
f 558/685/137 569/680/137 559/686/137
f 559/686/138 569/680/138 560/687/138
f 560/687/139 569/680/139 561/688/139
f 561/688/140 569/680/140 562/689/140
f 562/689/141 569/680/141 563/690/141
f 563/690/142 569/680/142 564/691/142
f 564/691/143 569/680/143 565/692/143
f 565/692/144 569/680/144 566/693/144
f 566/693/145 569/680/145 567/694/145
f 560/695/18 564/696/18 568/697/18
f 567/694/146 569/680/146 568/698/146
f 568/698/147 569/680/147 553/679/147
f 570/699/132 586/700/132 571/701/132
f 571/701/133 586/700/133 572/702/133
f 572/702/134 586/700/134 573/703/134
f 573/703/135 586/700/135 574/704/135
f 574/704/136 586/700/136 575/705/136
f 575/705/137 586/700/137 576/706/137
f 576/706/138 586/700/138 577/707/138
f 577/707/139 586/700/139 578/708/139
f 578/708/140 586/700/140 579/709/140
f 579/709/141 586/700/141 580/710/141
f 580/710/142 586/700/142 581/711/142
f 581/711/143 586/700/143 582/712/143
f 582/712/144 586/700/144 583/713/144
f 583/713/145 586/700/145 584/714/145
f 577/715/18 581/716/18 585/717/18
f 584/714/146 586/700/146 585/718/146
f 585/718/147 586/700/147 570/699/147
f 587/719/148 603/720/148 588/721/148
f 588/721/149 603/720/149 589/722/149
f 589/722/150 603/720/150 590/723/150
f 590/723/151 603/720/151 591/724/151
f 591/724/152 603/720/152 592/725/152
f 592/725/153 603/720/153 593/726/153
f 593/726/154 603/720/154 594/727/154
f 594/727/155 603/720/155 595/728/155
f 595/728/156 603/720/156 596/729/156
f 596/729/157 603/720/157 597/730/157
f 597/730/158 603/720/158 598/731/158
f 598/731/159 603/720/159 599/732/159
f 599/732/160 603/720/160 600/733/160
f 600/733/161 603/720/161 601/734/161
f 594/735/17 598/736/17 602/737/17
f 601/734/162 603/720/162 602/738/162
f 602/738/163 603/720/163 587/719/163
f 604/739/148 620/740/148 605/741/148
f 605/741/149 620/740/149 606/742/149
f 606/742/150 620/740/150 607/743/150
f 607/743/151 620/740/151 608/744/151
f 608/744/152 620/740/152 609/745/152
f 609/745/153 620/740/153 610/746/153
f 610/746/154 620/740/154 611/747/154
f 611/747/155 620/740/155 612/748/155
f 612/748/156 620/740/156 613/749/156
f 613/749/157 620/740/157 614/750/157
f 614/750/158 620/740/158 615/751/158
f 615/751/159 620/740/159 616/752/159
f 616/752/160 620/740/160 617/753/160
f 617/753/161 620/740/161 618/754/161
f 611/755/17 615/756/17 619/757/17
f 618/754/162 620/740/162 619/758/162
f 619/758/163 620/740/163 604/739/163
f 34/1/1 33/4/1 3/2/1
f 33/4/2 35/6/2 5/5/2
f 35/6/3 36/8/3 7/7/3
f 36/8/4 37/10/4 9/9/4
f 37/10/5 38/12/5 11/11/5
f 38/12/6 39/14/6 13/13/6
f 39/14/7 40/16/7 15/15/7
f 40/16/8 41/18/8 17/17/8
f 41/18/9 42/20/9 19/19/9
f 42/20/10 43/22/10 21/21/10
f 43/22/11 44/24/11 23/23/11
f 44/24/12 45/26/12 25/25/12
f 45/26/13 46/28/13 27/27/13
f 46/28/14 47/33/14 29/29/14
f 22/30/2 20/57/2 58/31/2
f 47/33/15 48/35/15 31/34/15
f 48/35/16 34/759/16 1/36/16
f 31/39/17 1/760/17 3/761/17
f 3/761/17 5/762/17 7/763/17
f 7/763/17 9/764/17 11/765/17
f 11/765/17 13/766/17 15/37/17
f 15/37/17 17/767/17 19/768/17
f 19/768/17 21/769/17 23/38/17
f 23/38/17 25/770/17 27/771/17
f 27/771/17 29/772/17 31/39/17
f 31/39/17 3/761/17 7/763/17
f 7/763/17 11/765/17 15/37/17
f 15/37/17 19/768/17 23/38/17
f 23/38/17 27/771/17 31/39/17
f 31/39/17 7/763/17 15/37/17
f 4/40/18 33/44/18 34/41/18
f 6/43/18 35/46/18 33/44/18
f 8/45/18 36/48/18 35/46/18
f 8/45/18 10/50/18 37/47/18
f 12/49/18 38/52/18 37/47/18
f 12/49/18 14/53/18 39/51/18
f 14/53/18 16/55/18 40/54/18
f 16/55/18 18/58/18 41/56/18
f 20/57/18 42/59/18 41/56/18
f 22/30/18 43/61/18 42/59/18
f 24/60/18 44/63/18 43/61/18
f 24/60/18 26/65/18 45/62/18
f 28/64/18 46/67/18 45/62/18
f 28/64/18 30/68/18 47/66/18
f 30/68/18 32/70/18 48/69/18
f 32/70/18 2/42/18 34/41/18
f 51/72/18 49/84/18 50/83/18
f 50/83/18 64/81/18 63/79/18
f 63/79/18 62/78/18 61/76/18
f 61/76/18 60/74/18 59/32/18
f 59/32/18 58/31/18 57/82/18
f 57/82/18 56/80/18 55/71/18
f 55/71/18 54/77/18 53/75/18
f 53/75/18 52/73/18 51/72/18
f 51/72/18 50/83/18 63/79/18
f 63/79/18 61/76/18 59/32/18
f 59/32/18 57/82/18 55/71/18
f 55/71/18 53/75/18 51/72/18
f 51/72/18 63/79/18 59/32/18
f 8/45/11 6/43/11 51/72/11
f 22/30/3 59/32/3 60/74/3
f 8/45/12 52/73/12 53/75/12
f 24/60/4 60/74/4 61/76/4
f 10/50/13 53/75/13 54/77/13
f 26/65/5 61/76/5 62/78/5
f 12/49/14 54/77/14 55/71/14
f 28/64/6 62/78/6 63/79/6
f 14/53/15 55/71/15 56/80/15
f 30/68/7 63/79/7 64/81/7
f 18/58/16 16/55/16 56/80/16
f 4/40/9 2/42/9 50/83/9
f 32/70/8 64/81/8 50/83/8
f 18/58/1 57/82/1 58/31/1
f 6/43/10 4/40/10 49/84/10
f 66/85/19 68/88/19 67/86/19
f 68/88/20 70/90/20 69/89/20
f 70/90/21 72/92/21 71/91/21
f 72/92/22 74/94/22 73/93/22
f 74/94/23 76/96/23 75/95/23
f 76/96/24 78/98/24 77/97/24
f 78/98/25 80/100/25 79/99/25
f 80/100/26 82/102/26 81/101/26
f 82/102/27 84/104/27 83/103/27
f 84/104/28 86/106/28 85/105/28
f 86/106/29 88/108/29 87/107/29
f 88/108/30 90/110/30 89/109/30
f 90/110/31 92/112/31 91/111/31
f 92/112/32 94/114/32 93/113/32
f 94/114/33 96/116/33 95/115/33
f 96/116/34 98/118/34 97/117/34
f 98/118/35 100/773/35 99/119/35
f 99/119/36 100/773/36 102/120/36
f 102/120/37 104/123/37 103/122/37
f 104/123/38 106/125/38 105/124/38
f 106/125/39 108/127/39 107/126/39
f 108/127/40 110/129/40 109/128/40
f 110/129/41 112/131/41 111/130/41
f 112/131/42 114/133/42 113/132/42
f 114/133/43 116/135/43 115/134/43
f 116/135/44 118/137/44 117/136/44
f 118/137/45 120/774/45 119/138/45
f 119/138/46 120/774/46 122/139/46
f 122/139/47 124/142/47 123/141/47
f 124/142/48 126/147/48 125/143/48
f 70/146/49 68/775/49 66/776/49
f 66/776/49 128/777/49 126/778/49
f 126/778/49 124/779/49 122/780/49
f 122/780/49 120/781/49 118/782/49
f 118/782/49 116/783/49 114/784/49
f 114/784/49 112/785/49 110/786/49
f 110/786/49 108/787/49 106/788/49
f 106/788/49 104/789/49 102/144/49
f 102/144/49 100/790/49 98/791/49
f 98/791/49 96/792/49 94/793/49
f 94/793/49 92/794/49 90/795/49
f 90/795/49 88/796/49 86/145/49
f 86/145/49 84/797/49 82/798/49
f 82/798/49 80/799/49 78/800/49
f 78/800/49 76/801/49 74/802/49
f 74/802/49 72/803/49 70/146/49
f 70/146/49 66/776/49 126/778/49
f 126/778/49 122/780/49 118/782/49
f 118/782/49 114/784/49 110/786/49
f 110/786/49 106/788/49 102/144/49
f 102/144/49 98/791/49 94/793/49
f 94/793/49 90/795/49 86/145/49
f 86/145/49 82/798/49 78/800/49
f 78/800/49 74/802/49 70/146/49
f 70/146/49 126/778/49 118/782/49
f 118/782/49 110/786/49 102/144/49
f 102/144/49 94/793/49 86/145/49
f 86/145/49 78/800/49 70/146/49
f 70/146/49 118/782/49 102/144/49
f 126/147/50 128/149/50 127/148/50
f 128/149/51 66/804/51 65/150/51
f 127/153/52 65/805/52 67/806/52
f 67/806/52 69/807/52 71/808/52
f 71/808/52 73/809/52 75/810/52
f 75/810/52 77/811/52 79/812/52
f 79/812/52 81/813/52 83/814/52
f 83/814/52 85/815/52 87/816/52
f 87/816/52 89/817/52 91/818/52
f 91/818/52 93/819/52 95/151/52
f 95/151/52 97/820/52 99/821/52
f 99/821/52 101/822/52 103/823/52
f 103/823/52 105/824/52 107/825/52
f 107/825/52 109/826/52 111/152/52
f 111/152/52 113/827/52 115/828/52
f 115/828/52 117/829/52 119/830/52
f 119/830/52 121/831/52 123/832/52
f 123/832/52 125/833/52 127/153/52
f 127/153/52 67/806/52 71/808/52
f 71/808/52 75/810/52 79/812/52
f 79/812/52 83/814/52 87/816/52
f 87/816/52 91/818/52 95/151/52
f 95/151/52 99/821/52 103/823/52
f 103/823/52 107/825/52 111/152/52
f 111/152/52 115/828/52 119/830/52
f 119/830/52 123/832/52 127/153/52
f 127/153/52 71/808/52 79/812/52
f 79/812/52 87/816/52 95/151/52
f 95/151/52 103/823/52 111/152/52
f 111/152/52 119/830/52 127/153/52
f 127/153/52 79/812/52 95/151/52
f 130/154/19 132/157/19 131/155/19
f 132/157/20 134/159/20 133/158/20
f 134/159/21 136/161/21 135/160/21
f 136/161/22 138/163/22 137/162/22
f 138/163/23 140/165/23 139/164/23
f 140/165/24 142/167/24 141/166/24
f 142/167/25 144/169/25 143/168/25
f 144/169/26 146/171/26 145/170/26
f 146/171/27 148/173/27 147/172/27
f 148/173/28 150/175/28 149/174/28
f 150/175/29 152/177/29 151/176/29
f 152/177/30 154/179/30 153/178/30
f 154/179/31 156/181/31 155/180/31
f 156/181/32 158/183/32 157/182/32
f 158/183/33 160/185/33 159/184/33
f 160/185/34 162/187/34 161/186/34
f 162/187/35 164/834/35 163/188/35
f 163/188/36 164/834/36 166/189/36
f 166/189/37 168/192/37 167/191/37
f 168/192/38 170/194/38 169/193/38
f 170/194/39 172/196/39 171/195/39
f 172/196/40 174/198/40 173/197/40
f 174/198/41 176/200/41 175/199/41
f 176/200/42 178/202/42 177/201/42
f 178/202/43 180/204/43 179/203/43
f 180/204/44 182/206/44 181/205/44
f 182/206/45 184/835/45 183/207/45
f 183/207/46 184/835/46 186/208/46
f 186/208/47 188/211/47 187/210/47
f 188/211/48 190/216/48 189/212/48
f 134/215/49 132/836/49 130/837/49
f 130/837/49 192/838/49 190/839/49
f 190/839/49 188/840/49 186/841/49
f 186/841/49 184/842/49 182/843/49
f 182/843/49 180/844/49 178/845/49
f 178/845/49 176/846/49 174/847/49
f 174/847/49 172/848/49 170/849/49
f 170/849/49 168/850/49 166/213/49
f 166/213/49 164/851/49 162/852/49
f 162/852/49 160/853/49 158/854/49
f 158/854/49 156/855/49 154/856/49
f 154/856/49 152/857/49 150/214/49
f 150/214/49 148/858/49 146/859/49
f 146/859/49 144/860/49 142/861/49
f 142/861/49 140/862/49 138/863/49
f 138/863/49 136/864/49 134/215/49
f 134/215/49 130/837/49 190/839/49
f 190/839/49 186/841/49 182/843/49
f 182/843/49 178/845/49 174/847/49
f 174/847/49 170/849/49 166/213/49
f 166/213/49 162/852/49 158/854/49
f 158/854/49 154/856/49 150/214/49
f 150/214/49 146/859/49 142/861/49
f 142/861/49 138/863/49 134/215/49
f 134/215/49 190/839/49 182/843/49
f 182/843/49 174/847/49 166/213/49
f 166/213/49 158/854/49 150/214/49
f 150/214/49 142/861/49 134/215/49
f 134/215/49 182/843/49 166/213/49
f 190/216/50 192/218/50 191/217/50
f 192/218/51 130/865/51 129/219/51
f 191/222/52 129/866/52 131/867/52
f 131/867/52 133/868/52 135/869/52
f 135/869/52 137/870/52 139/871/52
f 139/871/52 141/872/52 143/873/52
f 143/873/52 145/874/52 147/875/52
f 147/875/52 149/876/52 151/877/52
f 151/877/52 153/878/52 155/879/52
f 155/879/52 157/880/52 159/220/52
f 159/220/52 161/881/52 163/882/52
f 163/882/52 165/883/52 167/884/52
f 167/884/52 169/885/52 171/886/52
f 171/886/52 173/887/52 175/221/52
f 175/221/52 177/888/52 179/889/52
f 179/889/52 181/890/52 183/891/52
f 183/891/52 185/892/52 187/893/52
f 187/893/52 189/894/52 191/222/52
f 191/222/52 131/867/52 135/869/52
f 135/869/52 139/871/52 143/873/52
f 143/873/52 147/875/52 151/877/52
f 151/877/52 155/879/52 159/220/52
f 159/220/52 163/882/52 167/884/52
f 167/884/52 171/886/52 175/221/52
f 175/221/52 179/889/52 183/891/52
f 183/891/52 187/893/52 191/222/52
f 191/222/52 135/869/52 143/873/52
f 143/873/52 151/877/52 159/220/52
f 159/220/52 167/884/52 175/221/52
f 175/221/52 183/891/52 191/222/52
f 191/222/52 143/873/52 159/220/52
f 193/223/52 194/895/52 196/224/52
f 196/224/53 200/227/53 199/226/53
f 200/227/49 198/229/49 197/228/49
f 198/229/54 194/896/54 193/230/54
f 199/226/55 197/228/55 193/231/55
f 196/233/56 194/897/56 198/229/56
f 201/234/52 202/898/52 204/235/52
f 204/235/53 208/238/53 207/237/53
f 208/238/49 206/240/49 205/239/49
f 206/240/54 202/899/54 201/241/54
f 207/237/55 205/239/55 201/242/55
f 204/244/56 202/900/56 206/240/56
f 210/245/57 212/248/57 211/246/57
f 212/248/58 216/250/58 215/249/58
f 216/250/59 214/257/59 213/251/59
f 213/251/60 214/257/60 210/252/60
f 215/249/55 213/251/55 209/254/55
f 212/256/56 210/901/56 214/257/56
f 217/258/61 250/902/61 249/259/61
f 249/259/62 251/262/62 221/261/62
f 251/262/63 252/264/63 223/263/63
f 252/264/64 253/266/64 225/265/64
f 253/266/65 254/268/65 227/267/65
f 254/268/66 255/903/66 229/269/66
f 229/269/67 255/903/67 256/270/67
f 231/271/68 256/270/68 257/272/68
f 233/273/69 257/272/69 258/274/69
f 258/274/70 259/277/70 237/276/70
f 259/277/71 260/279/71 239/278/71
f 260/279/72 261/281/72 241/280/72
f 261/281/73 262/283/73 243/282/73
f 262/283/74 263/288/74 245/284/74
f 236/285/62 274/339/62 275/286/62
f 263/288/75 264/904/75 247/289/75
f 247/289/76 264/904/76 250/290/76
f 247/294/77 217/905/77 219/906/77
f 219/906/77 221/907/77 223/908/77
f 223/908/77 225/909/77 227/910/77
f 227/910/77 229/911/77 231/292/77
f 231/292/77 233/912/77 235/913/77
f 235/913/77 237/914/77 239/293/77
f 239/293/77 241/915/77 243/916/77
f 243/916/77 245/917/77 247/294/77
f 247/294/77 219/906/77 223/908/77
f 223/908/77 227/910/77 231/292/77
f 231/292/77 235/913/77 239/293/77
f 239/293/77 243/916/77 247/294/77
f 247/294/77 223/908/77 231/292/77
f 218/295/78 220/299/78 249/296/78
f 222/298/78 251/301/78 249/296/78
f 224/300/78 252/303/78 251/301/78
f 224/300/79 226/305/79 253/302/79
f 228/304/78 254/307/78 253/302/78
f 228/304/78 230/309/78 255/306/78
f 232/308/78 256/311/78 255/306/78
f 232/308/78 234/312/78 257/310/78
f 236/285/78 258/314/78 257/310/78
f 236/285/78 238/287/78 259/313/78
f 240/315/78 260/317/78 259/313/78
f 242/316/78 261/319/78 260/317/78
f 244/318/78 262/321/78 261/319/78
f 244/318/78 246/322/78 263/320/78
f 246/322/78 248/324/78 264/323/78
f 218/295/78 250/297/78 264/323/78
f 267/326/79 265/337/79 266/338/79
f 266/338/79 280/335/79 279/333/79
f 279/333/78 278/332/78 277/330/78
f 277/330/78 276/328/78 275/286/78
f 275/286/78 274/339/78 273/336/78
f 273/336/78 272/334/78 271/325/78
f 271/325/78 270/331/78 269/329/78
f 269/329/78 268/327/78 267/326/78
f 267/326/78 266/338/78 279/333/78
f 279/333/78 277/330/78 275/286/78
f 275/286/78 273/336/78 271/325/78
f 271/325/78 269/329/78 267/326/78
f 267/326/78 279/333/78 275/286/78
f 222/298/71 267/326/71 268/327/71
f 240/315/63 238/287/63 275/286/63
f 224/300/72 268/327/72 269/329/72
f 240/315/64 276/328/64 277/330/64
f 226/305/73 269/329/73 270/331/73
f 242/316/65 277/330/65 278/332/65
f 228/304/74 270/331/74 271/325/74
f 246/322/66 244/318/66 278/332/66
f 230/309/75 271/325/75 272/334/75
f 246/322/67 279/333/67 280/335/67
f 234/312/76 232/308/76 272/334/76
f 218/295/69 266/338/69 265/337/69
f 248/324/68 280/335/68 266/338/68
f 234/312/61 273/336/61 274/339/61
f 222/298/70 220/299/70 265/337/70
f 314/340/80 313/343/80 283/341/80
f 313/343/81 315/345/81 285/344/81
f 315/345/82 316/347/82 287/346/82
f 316/347/83 317/349/83 289/348/83
f 317/349/84 318/351/84 291/350/84
f 318/351/85 319/353/85 293/352/85
f 319/353/86 320/355/86 295/354/86
f 320/355/87 321/357/87 297/356/87
f 321/357/88 322/359/88 299/358/88
f 322/359/89 323/361/89 301/360/89
f 323/361/90 324/363/90 303/362/90
f 324/363/91 325/365/91 305/364/91
f 325/365/92 326/367/92 307/366/92
f 326/367/93 327/372/93 309/368/93
f 300/369/81 338/423/81 339/370/81
f 327/372/94 328/374/94 311/373/94
f 328/374/95 314/918/95 281/375/95
f 311/378/55 281/919/55 283/920/55
f 283/920/55 285/921/55 287/922/55
f 287/922/55 289/923/55 291/924/55
f 291/924/55 293/925/55 295/376/55
f 295/376/55 297/926/55 299/927/55
f 299/927/55 301/928/55 303/377/55
f 303/377/55 305/929/55 307/930/55
f 307/930/55 309/931/55 311/378/55
f 311/378/55 283/920/55 287/922/55
f 287/922/55 291/924/55 295/376/55
f 295/376/55 299/927/55 303/377/55
f 303/377/55 307/930/55 311/378/55
f 311/378/55 287/922/55 295/376/55
f 282/379/56 284/383/56 313/380/56
f 286/382/56 315/385/56 313/380/56
f 286/382/56 288/387/56 316/384/56
f 290/386/56 317/389/56 316/384/56
f 290/386/56 292/391/56 318/388/56
f 294/390/56 319/393/56 318/388/56
f 296/392/56 320/395/56 319/393/56
f 296/392/56 298/396/56 321/394/56
f 300/369/56 322/398/56 321/394/56
f 300/369/56 302/371/56 323/397/56
f 304/399/56 324/401/56 323/397/56
f 306/400/56 325/403/56 324/401/56
f 308/402/56 326/405/56 325/403/56
f 310/404/56 327/407/56 326/405/56
f 312/406/56 328/408/56 327/407/56
f 282/379/56 314/381/56 328/408/56
f 331/410/56 329/421/56 330/422/56
f 330/422/56 344/419/56 343/417/56
f 343/417/56 342/416/56 341/414/56
f 341/414/56 340/412/56 339/370/56
f 339/370/56 338/423/56 337/420/56
f 337/420/56 336/418/56 335/409/56
f 335/409/56 334/415/56 333/413/56
f 333/413/56 332/411/56 331/410/56
f 331/410/56 330/422/56 343/417/56
f 343/417/56 341/414/56 339/370/56
f 339/370/56 337/420/56 335/409/56
f 335/409/56 333/413/56 331/410/56
f 331/410/56 343/417/56 339/370/56
f 286/382/90 331/410/90 332/411/90
f 302/371/82 339/370/82 340/412/82
f 288/387/91 332/411/91 333/413/91
f 304/399/83 340/412/83 341/414/83
f 290/386/92 333/413/92 334/415/92
f 306/400/84 341/414/84 342/416/84
f 292/391/93 334/415/93 335/409/93
f 308/402/85 342/416/85 343/417/85
f 294/390/94 335/409/94 336/418/94
f 310/404/86 343/417/86 344/419/86
f 296/392/95 336/418/95 337/420/95
f 282/379/88 330/422/88 329/421/88
f 312/406/87 344/419/87 330/422/87
f 298/396/80 337/420/80 338/423/80
f 284/383/89 329/421/89 331/410/89
f 346/424/96 348/427/96 347/425/96
f 348/427/97 352/429/97 351/428/97
f 352/429/98 350/431/98 349/430/98
f 350/431/99 346/932/99 345/432/99
f 351/428/55 349/430/55 345/433/55
f 348/435/56 346/933/56 350/431/56
f 386/436/1 385/439/1 355/437/1
f 385/439/2 387/441/2 357/440/2
f 387/441/3 388/443/3 359/442/3
f 388/443/4 389/445/4 361/444/4
f 389/445/5 390/447/5 363/446/5
f 390/447/6 391/449/6 365/448/6
f 391/449/7 392/934/7 367/450/7
f 367/450/8 392/934/8 393/451/8
f 393/451/9 394/454/9 371/453/9
f 394/454/10 395/456/10 373/455/10
f 395/456/11 396/458/11 375/457/11
f 396/458/12 397/460/12 377/459/12
f 397/460/13 398/462/13 379/461/13
f 398/462/14 399/467/14 381/463/14
f 374/464/2 372/493/2 410/465/2
f 399/467/15 400/469/15 383/468/15
f 400/469/16 386/935/16 353/470/16
f 383/473/17 353/936/17 355/937/17
f 355/937/17 357/938/17 359/939/17
f 359/939/17 361/940/17 363/941/17
f 363/941/17 365/942/17 367/471/17
f 367/471/17 369/943/17 371/944/17
f 371/944/17 373/945/17 375/472/17
f 375/472/17 377/946/17 379/947/17
f 379/947/17 381/948/17 383/473/17
f 383/473/17 355/937/17 359/939/17
f 359/939/17 363/941/17 367/471/17
f 367/471/17 371/944/17 375/472/17
f 375/472/17 379/947/17 383/473/17
f 383/473/17 359/939/17 367/471/17
f 354/474/18 356/478/18 385/475/18
f 358/477/18 387/480/18 385/475/18
f 358/477/18 360/481/18 388/479/18
f 360/481/18 362/484/18 389/482/18
f 364/483/18 390/486/18 389/482/18
f 366/485/18 391/488/18 390/486/18
f 366/485/18 368/490/18 392/487/18
f 370/489/18 393/492/18 392/487/18
f 370/489/18 372/493/18 394/491/18
f 374/464/18 395/495/18 394/491/18
f 374/464/18 376/496/18 396/494/18
f 376/496/18 378/499/18 397/497/18
f 380/498/18 398/501/18 397/497/18
f 382/500/18 399/503/18 398/501/18
f 382/500/18 384/504/18 400/502/18
f 354/474/18 386/476/18 400/502/18
f 403/506/18 401/517/18 402/518/18
f 402/518/18 416/515/18 415/513/18
f 415/513/18 414/512/18 413/510/18
f 413/510/18 412/508/18 411/466/18
f 411/466/18 410/465/18 409/516/18
f 409/516/18 408/514/18 407/505/18
f 407/505/18 406/511/18 405/509/18
f 405/509/18 404/507/18 403/506/18
f 403/506/18 402/518/18 415/513/18
f 415/513/18 413/510/18 411/466/18
f 411/466/18 409/516/18 407/505/18
f 407/505/18 405/509/18 403/506/18
f 403/506/18 415/513/18 411/466/18
f 358/477/11 403/506/11 404/507/11
f 376/496/3 374/464/3 411/466/3
f 360/481/12 404/507/12 405/509/12
f 376/496/4 412/508/4 413/510/4
f 362/484/13 405/509/13 406/511/13
f 378/499/5 413/510/5 414/512/5
f 364/483/14 406/511/14 407/505/14
f 380/498/6 414/512/6 415/513/6
f 366/485/15 407/505/15 408/514/15
f 382/500/7 415/513/7 416/515/7
f 370/489/16 368/490/16 408/514/16
f 354/474/9 402/518/9 401/517/9
f 384/504/8 416/515/8 402/518/8
f 370/489/1 409/516/1 410/465/1
f 356/478/10 401/517/10 403/506/10
f 432/537/49 417/949/49 418/950/49
f 418/950/49 419/951/49 420/952/49
f 420/952/49 421/953/49 422/954/49
f 422/954/49 423/955/49 424/535/49
f 424/535/49 425/956/49 426/957/49
f 426/957/49 427/958/49 428/536/49
f 428/536/49 429/959/49 430/960/49
f 430/960/49 431/961/49 432/537/49
f 432/537/49 418/950/49 420/952/49
f 420/952/49 422/954/49 424/535/49
f 424/535/49 426/957/49 428/536/49
f 428/536/49 430/960/49 432/537/49
f 432/537/49 420/952/49 424/535/49
f 449/557/49 434/962/49 435/963/49
f 435/963/49 436/964/49 437/965/49
f 437/965/49 438/966/49 439/967/49
f 439/967/49 440/968/49 441/555/49
f 441/555/49 442/969/49 443/970/49
f 443/970/49 444/971/49 445/556/49
f 445/556/49 446/972/49 447/973/49
f 447/973/49 448/974/49 449/557/49
f 449/557/49 435/963/49 437/965/49
f 437/965/49 439/967/49 441/555/49
f 441/555/49 443/970/49 445/556/49
f 445/556/49 447/973/49 449/557/49
f 449/557/49 437/965/49 441/555/49
f 466/577/49 451/975/49 452/976/49
f 452/976/49 453/977/49 454/978/49
f 454/978/49 455/979/49 456/980/49
f 456/980/49 457/981/49 458/575/49
f 458/575/49 459/982/49 460/983/49
f 460/983/49 461/984/49 462/576/49
f 462/576/49 463/985/49 464/986/49
f 464/986/49 465/987/49 466/577/49
f 466/577/49 452/976/49 454/978/49
f 454/978/49 456/980/49 458/575/49
f 458/575/49 460/983/49 462/576/49
f 462/576/49 464/986/49 466/577/49
f 466/577/49 454/978/49 458/575/49
f 483/597/49 468/988/49 469/989/49
f 469/989/49 470/990/49 471/991/49
f 471/991/49 472/992/49 473/993/49
f 473/993/49 474/994/49 475/595/49
f 475/595/49 476/995/49 477/996/49
f 477/996/49 478/997/49 479/596/49
f 479/596/49 480/998/49 481/999/49
f 481/999/49 482/1000/49 483/597/49
f 483/597/49 469/989/49 471/991/49
f 471/991/49 473/993/49 475/595/49
f 475/595/49 477/996/49 479/596/49
f 479/596/49 481/999/49 483/597/49
f 483/597/49 471/991/49 475/595/49
f 500/617/52 485/1001/52 486/1002/52
f 486/1002/52 487/1003/52 488/1004/52
f 488/1004/52 489/1005/52 490/1006/52
f 490/1006/52 491/1007/52 492/615/52
f 492/615/52 493/1008/52 494/1009/52
f 494/1009/52 495/1010/52 496/616/52
f 496/616/52 497/1011/52 498/1012/52
f 498/1012/52 499/1013/52 500/617/52
f 500/617/52 486/1002/52 488/1004/52
f 488/1004/52 490/1006/52 492/615/52
f 492/615/52 494/1009/52 496/616/52
f 496/616/52 498/1012/52 500/617/52
f 500/617/52 488/1004/52 492/615/52
f 517/637/52 502/1014/52 503/1015/52
f 503/1015/52 504/1016/52 505/1017/52
f 505/1017/52 506/1018/52 507/1019/52
f 507/1019/52 508/1020/52 509/635/52
f 509/635/52 510/1021/52 511/1022/52
f 511/1022/52 512/1023/52 513/636/52
f 513/636/52 514/1024/52 515/1025/52
f 515/1025/52 516/1026/52 517/637/52
f 517/637/52 503/1015/52 505/1017/52
f 505/1017/52 507/1019/52 509/635/52
f 509/635/52 511/1022/52 513/636/52
f 513/636/52 515/1025/52 517/637/52
f 517/637/52 505/1017/52 509/635/52
f 534/657/52 519/1027/52 520/1028/52
f 520/1028/52 521/1029/52 522/1030/52
f 522/1030/52 523/1031/52 524/1032/52
f 524/1032/52 525/1033/52 526/655/52
f 526/655/52 527/1034/52 528/1035/52
f 528/1035/52 529/1036/52 530/656/52
f 530/656/52 531/1037/52 532/1038/52
f 532/1038/52 533/1039/52 534/657/52
f 534/657/52 520/1028/52 522/1030/52
f 522/1030/52 524/1032/52 526/655/52
f 526/655/52 528/1035/52 530/656/52
f 530/656/52 532/1038/52 534/657/52
f 534/657/52 522/1030/52 526/655/52
f 551/677/52 536/1040/52 537/1041/52
f 537/1041/52 538/1042/52 539/1043/52
f 539/1043/52 540/1044/52 541/1045/52
f 541/1045/52 542/1046/52 543/675/52
f 543/675/52 544/1047/52 545/1048/52
f 545/1048/52 546/1049/52 547/676/52
f 547/676/52 548/1050/52 549/1051/52
f 549/1051/52 550/1052/52 551/677/52
f 551/677/52 537/1041/52 539/1043/52
f 539/1043/52 541/1045/52 543/675/52
f 543/675/52 545/1048/52 547/676/52
f 547/676/52 549/1051/52 551/677/52
f 551/677/52 539/1043/52 543/675/52
f 568/697/18 553/1053/18 554/1054/18
f 554/1054/18 555/1055/18 556/1056/18
f 556/1056/18 557/1057/18 558/1058/18
f 558/1058/18 559/1059/18 560/695/18
f 560/695/18 561/1060/18 562/1061/18
f 562/1061/18 563/1062/18 564/696/18
f 564/696/18 565/1063/18 566/1064/18
f 566/1064/18 567/1065/18 568/697/18
f 568/697/18 554/1054/18 556/1056/18
f 556/1056/18 558/1058/18 560/695/18
f 560/695/18 562/1061/18 564/696/18
f 564/696/18 566/1064/18 568/697/18
f 568/697/18 556/1056/18 560/695/18
f 585/717/18 570/1066/18 571/1067/18
f 571/1067/18 572/1068/18 573/1069/18
f 573/1069/18 574/1070/18 575/1071/18
f 575/1071/18 576/1072/18 577/715/18
f 577/715/18 578/1073/18 579/1074/18
f 579/1074/18 580/1075/18 581/716/18
f 581/716/18 582/1076/18 583/1077/18
f 583/1077/18 584/1078/18 585/717/18
f 585/717/18 571/1067/18 573/1069/18
f 573/1069/18 575/1071/18 577/715/18
f 577/715/18 579/1074/18 581/716/18
f 581/716/18 583/1077/18 585/717/18
f 585/717/18 573/1069/18 577/715/18
f 602/737/17 587/1079/17 588/1080/17
f 588/1080/17 589/1081/17 590/1082/17
f 590/1082/17 591/1083/17 592/1084/17
f 592/1084/17 593/1085/17 594/735/17
f 594/735/17 595/1086/17 596/1087/17
f 596/1087/17 597/1088/17 598/736/17
f 598/736/17 599/1089/17 600/1090/17
f 600/1090/17 601/1091/17 602/737/17
f 602/737/17 588/1080/17 590/1082/17
f 590/1082/17 592/1084/17 594/735/17
f 594/735/17 596/1087/17 598/736/17
f 598/736/17 600/1090/17 602/737/17
f 602/737/17 590/1082/17 594/735/17
f 619/757/17 604/1092/17 605/1093/17
f 605/1093/17 606/1094/17 607/1095/17
f 607/1095/17 608/1096/17 609/1097/17
f 609/1097/17 610/1098/17 611/755/17
f 611/755/17 612/1099/17 613/1100/17
f 613/1100/17 614/1101/17 615/756/17
f 615/756/17 616/1102/17 617/1103/17
f 617/1103/17 618/1104/17 619/757/17
f 619/757/17 605/1093/17 607/1095/17
f 607/1095/17 609/1097/17 611/755/17
f 611/755/17 613/1100/17 615/756/17
f 615/756/17 617/1103/17 619/757/17
f 619/757/17 607/1095/17 611/755/17
