# Blender 4.4.3
# www.blender.org
mtllib player.mtl
o player
v 2.713645 -0.514576 -5.312109
v 2.713645 -0.897259 -4.931507
v 4.286287 -0.514576 -5.312109
v 2.713645 -0.131892 -4.931507
v 2.713645 -0.776751 -5.322540
v 2.713645 -1.159434 -4.941937
v 4.286287 -0.776751 -5.322540
v 4.286287 -1.159434 -4.941937
v 4.286287 -0.897259 -4.931507
v 4.286287 -1.221683 -3.847643
v 2.713645 -1.221683 -3.847643
v 4.286287 -1.438456 -2.225527
v 4.286287 -1.483857 -3.858073
v 2.713645 -1.483857 -3.858073
v 4.286287 -1.700630 -2.235957
v 2.713645 -1.700630 -2.235957
v 2.713645 -1.438456 -2.225527
v 2.713645 -1.514576 -0.312110
v 4.286287 -1.514576 -0.312110
v 2.713645 -1.438456 1.601307
v 2.713645 -1.776750 -0.322540
v 4.286287 -1.776750 -0.322540
v 2.713645 -1.700630 1.590878
v 4.286287 -1.700630 1.590878
v 4.286287 -1.438456 1.601307
v 4.286287 -1.221683 3.223424
v 2.713645 -1.221683 3.223424
v 4.286287 -0.897259 4.307288
v 4.286287 -1.483857 3.212994
v 2.713645 -1.483857 3.212994
v 4.286287 -1.159434 4.296858
v 2.713645 -1.159434 4.296858
v 2.713645 -0.897259 4.307288
v 2.713645 -0.514576 4.687890
v 4.286287 -0.514576 4.687890
v 2.713645 -0.131892 4.307288
v 4.286287 -0.131892 4.307288
v 2.713645 0.192531 3.223424
v 4.286287 0.192531 3.223424
v 2.713645 0.409304 1.601307
v 4.286287 0.409304 1.601307
v 2.713645 0.485424 -0.312110
v 4.286287 0.485424 -0.312110
v 2.713645 0.409304 -2.225527
v 4.286287 0.409304 -2.225527
v 2.713645 0.192531 -3.847643
v 4.286287 0.192531 -3.847643
v 4.286287 -0.131892 -4.931507
v -4.286355 -0.514576 -5.312109
v -4.286355 -0.897259 -4.931507
v -2.713713 -0.514576 -5.312109
v -4.286355 -0.131892 -4.931507
v -4.286355 -0.776751 -5.322540
v -4.286355 -1.159434 -4.941937
v -2.713713 -0.776751 -5.322540
v -2.713713 -1.159434 -4.941937
v -2.713713 -0.897259 -4.931507
v -2.713713 -1.221683 -3.847643
v -4.286355 -1.221683 -3.847643
v -2.713713 -1.438456 -2.225527
v -2.713713 -1.483857 -3.858073
v -4.286355 -1.483857 -3.858073
v -2.713713 -1.700630 -2.235957
v -4.286355 -1.700630 -2.235957
v -4.286355 -1.438456 -2.225527
v -4.286355 -1.514576 -0.312110
v -2.713713 -1.514576 -0.312110
v -4.286355 -1.438456 1.601307
v -4.286355 -1.776750 -0.322540
v -2.713713 -1.776750 -0.322540
v -4.286355 -1.700630 1.590878
v -2.713713 -1.700630 1.590878
v -2.713713 -1.438456 1.601307
v -2.713713 -1.221683 3.223424
v -4.286355 -1.221683 3.223424
v -2.713713 -0.897259 4.307288
v -2.713713 -1.483857 3.212994
v -4.286355 -1.483857 3.212994
v -2.713713 -1.159434 4.296858
v -4.286355 -1.159434 4.296858
v -4.286355 -0.897259 4.307288
v -4.286355 -0.514576 4.687890
v -2.713713 -0.514576 4.687890
v -4.286355 -0.131892 4.307288
v -2.713713 -0.131892 4.307288
v -4.286355 0.192531 3.223424
v -2.713713 0.192531 3.223424
v -4.286355 0.409304 1.601307
v -2.713713 0.409304 1.601307
v -4.286355 0.485424 -0.312110
v -2.713713 0.485424 -0.312110
v -4.286355 0.409304 -2.225527
v -2.713713 0.409304 -2.225527
v -4.286355 0.192531 -3.847643
v -2.713713 0.192531 -3.847643
v -2.713713 -0.131892 -4.931507
v -2.800034 -0.764576 3.887890
v -2.800034 -0.764576 -5.112109
v -2.800034 0.235424 3.887890
v 2.799966 -0.764576 3.887890
v 2.799966 -0.764576 -5.112109
v 2.799966 0.235424 3.887890
v 2.799966 0.235424 -5.112109
v -2.800034 0.235424 -5.112109
v -4.500034 -0.714576 5.187890
v -4.500034 -0.714576 -5.812109
v -4.500034 0.685424 5.187890
v -2.500034 -0.714576 5.187890
v -2.500034 -0.714576 -5.812109
v -2.500034 0.685424 5.187890
v -2.500034 0.685424 -5.812109
v -4.500034 0.685424 -5.812109
v 2.499966 -0.714576 5.187890
v 2.499966 -0.714576 -5.812109
v 2.499966 0.685424 5.187890
v 4.499966 -0.714576 5.187890
v 4.499966 -0.714576 -5.812109
v 4.499966 0.685424 5.187890
v 4.499966 0.685424 -5.812109
v 2.499966 0.685424 -5.812109
vn -1.0000 -0.0000 -0.0000
vn -0.0000 0.7052 -0.7090
vn -0.0000 0.0398 -0.9992
vn -0.0000 -0.7052 -0.7090
vn 1.0000 -0.0000 -0.0000
vn -0.0000 -0.0397 0.9992
vn -0.0000 -0.9580 -0.2868
vn -0.0000 -0.9912 -0.1325
vn -0.0000 -0.0398 0.9992
vn -0.0000 -0.9992 -0.0398
vn -0.0000 -0.9992 0.0398
vn -0.0000 -0.9912 0.1325
vn -0.0000 -0.9580 0.2868
vn -0.0000 -0.7052 0.7090
vn -0.0000 0.7052 0.7090
vn -0.0000 0.9580 0.2868
vn -0.0000 0.9912 0.1325
vn -0.0000 0.9992 0.0398
vn -0.0000 0.9992 -0.0398
vn -0.0000 0.9912 -0.1325
vn -0.0000 0.9580 -0.2868
vn -0.0000 -1.0000 -0.0000
vn -0.0000 -0.0000 1.0000
vn -0.0000 1.0000 -0.0000
vn -0.0000 -0.0000 -1.0000
vt 0.286941 0.023263
vt 0.323199 0.106670
vt 0.298972 0.303587
vt 0.275825 0.302667
vt 0.278999 0.314637
vt 0.267884 0.302667
vt 0.036941 0.913947
vt 0.020606 0.866348
vt 0.036941 0.866348
vt 0.020606 0.913947
vt 0.012664 0.866348
vt 0.708469 0.913947
vt 0.692134 0.866348
vt 0.708469 0.866348
vt 0.653170 0.317649
vt 0.649996 0.329620
vt 0.642055 0.329620
vt 0.684192 0.866348
vt 0.692134 0.913947
vt 0.684192 0.913947
vt 0.610401 0.072335
vt 0.653170 0.070634
vt 0.661678 0.284480
vt 0.649949 0.866348
vt 0.649949 0.913947
vt 0.642008 0.866348
vt 0.666282 0.235163
vt 0.669619 0.284480
vt 0.642008 0.913947
vt 0.592476 0.866348
vt 0.584535 0.866348
vt 0.592476 0.913947
vt 0.584535 0.913947
vt 0.262714 0.220180
vt 0.259377 0.269498
vt 0.254773 0.220180
vt 0.526577 0.866348
vt 0.526577 0.913947
vt 0.518635 0.866348
vt 0.262714 0.162222
vt 0.259377 0.104447
vt 0.267318 0.104447
vt 0.518635 0.913947
vt 0.460677 0.866348
vt 0.452736 0.866348
vt 0.460677 0.913947
vt 0.452736 0.913947
vt 0.666282 0.177205
vt 0.669619 0.119430
vt 0.674223 0.177205
vt 0.403204 0.866348
vt 0.403204 0.913947
vt 0.395262 0.866348
vt 0.649996 0.038245
vt 0.661112 0.070634
vt 0.395262 0.913947
vt 0.361020 0.866348
vt 0.353078 0.866348
vt 0.361020 0.913947
vt 0.353078 0.913947
vt 0.275825 0.055651
vt 0.278999 0.023262
vt 0.336743 0.866348
vt 0.336743 0.913947
vt 0.320407 0.866348
vt 0.320407 0.913947
vt 0.286165 0.866348
vt 0.286164 0.913947
vt 0.236632 0.866348
vt 0.236632 0.913947
vt 0.178674 0.866348
vt 0.178674 0.913947
vt 0.120716 0.866348
vt 0.120716 0.913947
vt 0.071184 0.866348
vt 0.071184 0.913947
vt 0.554299 0.421309
vt 0.518041 0.337901
vt 0.542267 0.140984
vt 0.565414 0.141905
vt 0.562240 0.129934
vt 0.573355 0.141905
vt 0.684192 0.941262
vt 0.700528 0.988860
vt 0.684192 0.988860
vt 0.700528 0.941262
vt 0.708469 0.988860
vt 0.012665 0.941262
vt 0.029000 0.988860
vt 0.012665 0.988860
vt 0.060282 0.302667
vt 0.057108 0.314637
vt 0.049167 0.314637
vt 0.036942 0.988860
vt 0.029000 0.941262
vt 0.036942 0.941262
vt 0.017513 0.057352
vt 0.060282 0.055651
vt 0.068789 0.269498
vt 0.071184 0.988860
vt 0.071184 0.941262
vt 0.079126 0.988860
vt 0.073393 0.220180
vt 0.076731 0.269498
vt 0.079126 0.941262
vt 0.128658 0.988860
vt 0.136599 0.988860
vt 0.128658 0.941262
vt 0.136599 0.941262
vt 0.578526 0.224392
vt 0.581863 0.175074
vt 0.586467 0.224392
vt 0.194557 0.988860
vt 0.194557 0.941262
vt 0.202499 0.988860
vt 0.578526 0.282350
vt 0.581863 0.340124
vt 0.573922 0.340124
vt 0.202498 0.941262
vt 0.260457 0.988860
vt 0.268398 0.988860
vt 0.260457 0.941262
vt 0.268398 0.941262
vt 0.073393 0.162222
vt 0.076731 0.104447
vt 0.081335 0.162222
vt 0.317930 0.988860
vt 0.317930 0.941262
vt 0.325871 0.988860
vt 0.057108 0.023262
vt 0.068223 0.055651
vt 0.325871 0.941262
vt 0.360114 0.988860
vt 0.368055 0.988860
vt 0.360114 0.941262
vt 0.368055 0.941262
vt 0.565414 0.388921
vt 0.562240 0.421309
vt 0.384391 0.988860
vt 0.400727 0.941262
vt 0.400727 0.988860
vt 0.434969 0.988860
vt 0.434969 0.941262
vt 0.484501 0.988860
vt 0.484501 0.941262
vt 0.542459 0.988860
vt 0.542459 0.941262
vt 0.600418 0.988860
vt 0.600418 0.941262
vt 0.649950 0.988860
vt 0.649950 0.941262
vt 0.596389 0.029132
vt 0.410120 0.230180
vt 0.572051 0.011140
vt 0.309363 0.366472
vt 0.011139 0.484755
vt 0.173071 0.265715
vt 0.171769 0.603505
vt 0.046674 0.721804
vt 0.147431 0.585513
vt 0.333701 0.384464
vt 0.469992 0.485222
vt 0.434458 0.248172
vt 0.839862 0.207129
vt 0.607873 0.449656
vt 0.805789 0.181939
vt 0.571888 0.498331
vt 0.325296 0.730063
vt 0.523212 0.462347
vt 0.408045 0.791237
vt 0.337987 0.814723
vt 0.373972 0.766047
vt 0.605961 0.523521
vt 0.654637 0.559505
vt 0.641946 0.474845
vt 0.909064 0.011439
vt 0.866691 0.344369
vt 0.866691 0.011439
vt 0.866691 0.404902
vt 0.806158 0.737833
vt 0.806158 0.404902
vt 0.909064 0.737833
vt 0.866691 0.798366
vt 0.866691 0.737833
vt 0.909064 0.404902
vt 0.969597 0.404902
vt 0.909064 0.344369
vt 0.286941 0.314637
vt 0.267318 0.269498
vt 0.298972 0.012213
vt 0.310087 0.024183
vt 0.318595 0.057352
vt 0.323199 0.164628
vt 0.318595 0.222403
vt 0.310087 0.271199
vt 0.012664 0.913947
vt 0.661112 0.317649
vt 0.630024 0.318570
vt 0.618908 0.286182
vt 0.610401 0.237386
vt 0.605797 0.179611
vt 0.605797 0.121653
vt 0.618908 0.039166
vt 0.630024 0.027195
vt 0.642055 0.038245
vt 0.661678 0.119430
vt 0.674223 0.235163
vt 0.254773 0.162222
vt 0.267884 0.055651
vt 0.554299 0.129934
vt 0.573921 0.175074
vt 0.542268 0.432359
vt 0.531152 0.420388
vt 0.522645 0.387219
vt 0.518041 0.279943
vt 0.522645 0.222169
vt 0.531152 0.173373
vt 0.708469 0.941262
vt 0.068223 0.302667
vt 0.037135 0.303587
vt 0.026020 0.271199
vt 0.017513 0.222403
vt 0.012909 0.164628
vt 0.012909 0.106670
vt 0.026020 0.024183
vt 0.037135 0.012212
vt 0.049167 0.023262
vt 0.068789 0.104447
vt 0.081335 0.220180
vt 0.586467 0.282350
vt 0.573356 0.388921
vt 0.384391 0.941262
vt 0.071012 0.739797
vt 0.308061 0.704262
vt 0.372060 0.839913
vt 0.456720 0.827222
vt 0.909064 0.798366
vt 0.969597 0.737833
s 0
usemtl マテリアル
f 33/1/1 40/2/1 4/3/1
f 2/4/1 5/5/1 6/6/1
f 48/7/2 1/8/2 4/9/2
f 3/10/3 5/11/3 1/8/3
f 7/12/4 6/13/4 5/14/4
f 9/15/5 7/16/5 3/17/5
f 2/18/6 8/19/6 9/20/6
f 39/21/5 26/22/5 10/23/5
f 9/20/7 11/24/7 2/18/7
f 10/25/3 14/26/3 11/24/3
f 12/27/5 13/28/5 10/23/5
f 13/29/8 16/30/8 14/26/8
f 17/31/9 15/32/9 12/33/9
f 17/34/1 14/35/1 16/36/1
f 12/33/10 18/37/10 17/31/10
f 19/38/3 21/39/3 18/37/3
f 18/40/1 23/41/1 20/42/1
f 22/43/11 23/44/11 21/39/11
f 20/45/9 24/46/9 25/47/9
f 19/48/5 24/49/5 22/50/5
f 25/47/12 27/51/12 20/45/12
f 26/52/3 30/53/3 27/51/3
f 26/22/5 31/54/5 29/55/5
f 29/56/13 32/57/13 30/53/13
f 33/58/9 31/59/9 28/60/9
f 27/61/1 32/62/1 33/1/1
f 28/60/14 34/63/14 33/58/14
f 35/64/15 36/65/15 34/63/15
f 37/66/16 38/67/16 36/65/16
f 39/68/17 40/69/17 38/67/17
f 41/70/18 42/71/18 40/69/18
f 43/72/19 44/73/19 42/71/19
f 45/74/20 46/75/20 44/73/20
f 47/76/21 4/9/21 46/75/21
f 81/77/1 88/78/1 52/79/1
f 50/80/1 53/81/1 54/82/1
f 96/83/2 49/84/2 52/85/2
f 51/86/3 53/87/3 49/84/3
f 55/88/4 54/89/4 53/90/4
f 57/91/5 55/92/5 51/93/5
f 50/94/9 56/95/9 57/96/9
f 87/97/5 74/98/5 58/99/5
f 57/96/7 59/100/7 50/94/7
f 58/101/3 62/102/3 59/100/3
f 60/103/5 61/104/5 58/99/5
f 61/105/8 64/106/8 62/102/8
f 65/107/9 63/108/9 60/109/9
f 65/110/1 62/111/1 64/112/1
f 60/109/10 66/113/10 65/107/10
f 67/114/3 69/115/3 66/113/3
f 66/116/1 71/117/1 68/118/1
f 70/119/11 71/120/11 69/115/11
f 68/121/9 72/122/9 73/123/9
f 67/124/5 72/125/5 70/126/5
f 73/123/12 75/127/12 68/121/12
f 74/128/3 78/129/3 75/127/3
f 74/98/5 79/130/5 77/131/5
f 77/132/13 80/133/13 78/129/13
f 81/134/9 79/135/9 76/136/9
f 75/137/1 80/138/1 81/77/1
f 76/136/14 82/139/14 81/134/14
f 82/139/15 85/140/15 84/141/15
f 85/140/16 86/142/16 84/141/16
f 87/143/17 88/144/17 86/142/17
f 89/145/18 90/146/18 88/144/18
f 91/147/19 92/148/19 90/146/19
f 93/149/20 94/150/20 92/148/20
f 95/151/21 52/85/21 94/150/21
f 99/152/1 98/153/1 97/154/1
f 101/155/22 97/156/22 98/157/22
f 102/158/23 97/159/23 100/160/23
f 103/161/5 100/160/5 101/155/5
f 104/162/24 102/158/24 103/161/24
f 104/163/25 101/155/25 98/153/25
f 107/164/1 106/165/1 105/166/1
f 109/167/22 105/168/22 106/169/22
f 110/170/23 105/171/23 108/172/23
f 111/173/5 108/172/5 109/167/5
f 112/174/24 110/170/24 111/173/24
f 112/175/25 109/167/25 106/165/25
f 115/176/1 114/177/1 113/178/1
f 117/179/22 113/180/22 114/181/22
f 118/182/23 113/183/23 116/184/23
f 119/185/5 116/184/5 117/179/5
f 120/186/24 118/182/24 119/185/24
f 120/187/25 117/179/25 114/177/25
f 4/3/1 1/188/1 2/4/1
f 2/4/1 11/189/1 17/34/1
f 17/34/1 18/40/1 20/42/1
f 20/42/1 27/61/1 33/1/1
f 33/1/1 34/190/1 36/191/1
f 36/191/1 38/192/1 40/2/1
f 40/2/1 42/193/1 44/194/1
f 44/194/1 46/195/1 4/3/1
f 4/3/1 2/4/1 17/34/1
f 17/34/1 20/42/1 33/1/1
f 33/1/1 36/191/1 40/2/1
f 40/2/1 44/194/1 4/3/1
f 4/3/1 17/34/1 33/1/1
f 2/4/1 1/188/1 5/5/1
f 48/7/2 3/10/2 1/8/2
f 3/10/3 7/196/3 5/11/3
f 7/12/4 8/19/4 6/13/4
f 9/15/5 8/197/5 7/16/5
f 2/18/9 6/13/9 8/19/9
f 10/23/5 9/15/5 3/17/5
f 3/17/5 48/198/5 47/199/5
f 47/199/5 45/200/5 43/201/5
f 43/201/5 41/202/5 39/21/5
f 39/21/5 37/203/5 35/204/5
f 35/204/5 28/205/5 26/22/5
f 26/22/5 25/206/5 19/48/5
f 19/48/5 12/27/5 10/23/5
f 10/23/5 3/17/5 47/199/5
f 47/199/5 43/201/5 39/21/5
f 39/21/5 35/204/5 26/22/5
f 26/22/5 19/48/5 10/23/5
f 10/23/5 47/199/5 39/21/5
f 9/20/7 10/25/7 11/24/7
f 10/25/3 13/29/3 14/26/3
f 12/27/5 15/207/5 13/28/5
f 13/29/8 15/32/8 16/30/8
f 17/31/9 16/30/9 15/32/9
f 17/34/1 11/189/1 14/35/1
f 12/33/10 19/38/10 18/37/10
f 19/38/3 22/43/3 21/39/3
f 18/40/1 21/208/1 23/41/1
f 22/43/11 24/46/11 23/44/11
f 20/45/9 23/44/9 24/46/9
f 19/48/5 25/206/5 24/49/5
f 25/47/12 26/52/12 27/51/12
f 26/52/3 29/56/3 30/53/3
f 26/22/5 28/205/5 31/54/5
f 29/56/13 31/59/13 32/57/13
f 33/58/9 32/57/9 31/59/9
f 27/61/1 30/209/1 32/62/1
f 28/60/14 35/64/14 34/63/14
f 35/64/15 37/66/15 36/65/15
f 37/66/16 39/68/16 38/67/16
f 39/68/17 41/70/17 40/69/17
f 41/70/18 43/72/18 42/71/18
f 43/72/19 45/74/19 44/73/19
f 45/74/20 47/76/20 46/75/20
f 47/76/21 48/7/21 4/9/21
f 52/79/1 49/210/1 50/80/1
f 50/80/1 59/211/1 65/110/1
f 65/110/1 66/116/1 68/118/1
f 68/118/1 75/137/1 81/77/1
f 81/77/1 82/212/1 84/213/1
f 84/213/1 86/214/1 88/78/1
f 88/78/1 90/215/1 92/216/1
f 92/216/1 94/217/1 52/79/1
f 52/79/1 50/80/1 65/110/1
f 65/110/1 68/118/1 81/77/1
f 81/77/1 84/213/1 88/78/1
f 88/78/1 92/216/1 52/79/1
f 52/79/1 65/110/1 81/77/1
f 50/80/1 49/210/1 53/81/1
f 96/83/2 51/86/2 49/84/2
f 51/86/3 55/218/3 53/87/3
f 55/88/4 56/95/4 54/89/4
f 57/91/5 56/219/5 55/92/5
f 50/94/9 54/89/9 56/95/9
f 58/99/5 57/91/5 51/93/5
f 51/93/5 96/220/5 95/221/5
f 95/221/5 93/222/5 91/223/5
f 91/223/5 89/224/5 87/97/5
f 87/97/5 85/225/5 83/226/5
f 83/226/5 76/227/5 74/98/5
f 74/98/5 73/228/5 67/124/5
f 67/124/5 60/103/5 58/99/5
f 58/99/5 51/93/5 95/221/5
f 95/221/5 91/223/5 87/97/5
f 87/97/5 83/226/5 74/98/5
f 74/98/5 67/124/5 58/99/5
f 58/99/5 95/221/5 87/97/5
f 57/96/7 58/101/7 59/100/7
f 58/101/3 61/105/3 62/102/3
f 60/103/5 63/229/5 61/104/5
f 61/105/8 63/108/8 64/106/8
f 65/107/9 64/106/9 63/108/9
f 65/110/1 59/211/1 62/111/1
f 60/109/10 67/114/10 66/113/10
f 67/114/3 70/119/3 69/115/3
f 66/116/1 69/230/1 71/117/1
f 70/119/11 72/122/11 71/120/11
f 68/121/9 71/120/9 72/122/9
f 67/124/5 73/228/5 72/125/5
f 73/123/12 74/128/12 75/127/12
f 74/128/3 77/132/3 78/129/3
f 74/98/5 76/227/5 79/130/5
f 77/132/13 79/135/13 80/133/13
f 81/134/6 80/133/6 79/135/6
f 75/137/1 78/231/1 80/138/1
f 76/136/14 83/232/14 82/139/14
f 82/139/15 83/232/15 85/140/15
f 85/140/16 87/143/16 86/142/16
f 87/143/17 89/145/17 88/144/17
f 89/145/18 91/147/18 90/146/18
f 91/147/19 93/149/19 92/148/19
f 93/149/20 95/151/20 94/150/20
f 95/151/21 96/83/21 52/85/21
f 99/152/1 104/163/1 98/153/1
f 101/155/22 100/160/22 97/156/22
f 102/158/23 99/233/23 97/159/23
f 103/161/5 102/158/5 100/160/5
f 104/162/24 99/234/24 102/158/24
f 104/163/25 103/161/25 101/155/25
f 107/164/1 112/175/1 106/165/1
f 109/167/22 108/172/22 105/168/22
f 110/170/23 107/235/23 105/171/23
f 111/173/5 110/170/5 108/172/5
f 112/174/24 107/236/24 110/170/24
f 112/175/25 111/173/25 109/167/25
f 115/176/1 120/187/1 114/177/1
f 117/179/22 116/184/22 113/180/22
f 118/182/23 115/237/23 113/183/23
f 119/185/5 118/182/5 116/184/5
f 120/186/24 115/238/24 118/182/24
f 120/187/25 119/185/25 117/179/25
